<svg xmlns="http://www.w3.org/2000/svg" xmlns:xlink="http://www.w3.org/1999/xlink" width="767" height="515" viewBox="0 0 767 515">
    <defs>
        <linearGradient id="b" x1="0%" y1="50%" y2="50%">
            <stop offset="0%" stop-color="#4395C0"/>
            <stop offset="100%" stop-color="#205C8C"/>
        </linearGradient>
        <path id="a" d="M0 .94c12.971 72.528 42.446 117.277 88.423 134.246 68.966 25.454 138.905 4.66 166.053 67.52 27.148 62.86-18.551 219.978-9.276 257.83 9.276 37.854 41.359 83.12 139.806 79.608 98.447-3.512 222.218-27.169 312.437-8.064 90.22 19.105 180.332 120.97 240.528 78.64V0L0 .94z"/>
        <linearGradient id="d" x1="0%" y1="50%" y2="50%">
            <stop offset="0%" stop-color="#4395C0"/>
            <stop offset="100%" stop-color="#205C8C"/>
        </linearGradient>
        <path id="c" d="M89.682 0c-6.957 66.277 12.553 107.9 58.53 124.87 68.966 25.454 109.33 14.953 136.478 77.813 27.148 62.86-47.796 219.64-38.52 257.492 9.275 37.853 41.358 61.703 139.805 58.192 98.448-3.512 222.219-36.585 312.438-17.48s178.904 85.331 239.1 43.003c0-1.427.475-182.724 1.427-543.89H89.682z"/>
    </defs>
    <g fill="none" fill-rule="evenodd" transform="translate(-13 -52)">
        <use fill="url(#b)" fill-rule="nonzero" opacity=".05" xlink:href="#a"/>
        <mask id="e" fill="#fff">
            <use xlink:href="#c"/>
        </mask>
        <use fill="url(#d)" fill-rule="nonzero" opacity=".05" xlink:href="#c"/>
        <g mask="url(#e)">
            <path fill="#92C1DB" d="M364.915 255.212c5.596 9.272 6.596 21.383 1.771 31.182-1.66 3.373-15.871-.547-18.214-1.766-14.906-7.755-19.67-26.293-11.746-40.836.829-1.52 12.217.47 13.819.86 4.915 1.194 9.486 3.772 12.585 7.909a32.08 32.08 0 0 1 1.785 2.651"/>
            <path fill="#FFFFFE" d="M365.758 287.53l-.002.001a.116.116 0 0 1-.165-.031l-28.43-42.644a.125.125 0 0 1 .03-.17.116.116 0 0 1 .164.032l28.431 42.644a.124.124 0 0 1-.028.167"/>
            <path fill="#FFFFFE" d="M349.563 263.191l-.222-.108-16.34-8.068a.123.123 0 0 1-.056-.162.117.117 0 0 1 .158-.058l16.213 8.006-.484-18.01a.12.12 0 0 1 .115-.125.12.12 0 0 1 .122.118l.494 18.407M359.73 277.925l-23.902-6.044a.122.122 0 0 1-.087-.147.118.118 0 0 1 .143-.09l23.68 5.989 5.79-21.375a.117.117 0 0 1 .145-.084c.063.018.1.085.082.15l-5.851 21.601"/>
            <g>
                <path fill="#92C1DB" d="M599.507 258.38c-5.596 9.271-6.596 21.382-1.771 31.181 1.66 3.373 15.871-.547 18.215-1.766 14.906-7.755 19.668-26.293 11.745-40.835-.829-1.522-12.217.47-13.819.859-4.915 1.194-9.486 3.773-12.584 7.909a32.08 32.08 0 0 0-1.786 2.651"/>
                <path fill="#FFFFFE" d="M598.664 290.697l.003.002a.116.116 0 0 0 .164-.032l28.431-42.643a.125.125 0 0 0-.03-.17.116.116 0 0 0-.165.032l-28.43 42.643a.124.124 0 0 0 .027.168"/>
                <path fill="#FFFFFE" d="M614.859 266.359l.223-.108 16.34-8.069a.123.123 0 0 0 .055-.162.117.117 0 0 0-.158-.058l-16.213 8.006.484-18.01a.12.12 0 0 0-.115-.125.12.12 0 0 0-.121.118l-.495 18.408M604.693 281.093l23.902-6.045a.122.122 0 0 0 .086-.147.118.118 0 0 0-.143-.09L604.86 280.8l-5.79-21.375a.117.117 0 0 0-.146-.084.122.122 0 0 0-.082.15l5.852 21.602"/>
            </g>
            <g>
                <path fill="#5398C3" d="M269.83 290.909h554.425v-4.747H269.83z"/>
                <path fill="#92C1DB" d="M269.83 293.2h554.425v-2.346H269.83z"/>
            </g>
            <g>
                <path fill="#92C1DB" d="M444.381 179.64c6.301 10.43 7.427 24.056 1.994 35.08-1.87 3.794-17.871-.616-20.51-1.987-16.784-8.725-22.147-29.58-13.225-45.94.933-1.712 13.756.529 15.56.967 5.535 1.343 10.682 4.244 14.17 8.897.72.96 1.39 1.956 2.011 2.983"/>
                <path fill="#FFFFFE" d="M445.33 215.997l-.003.002a.13.13 0 0 1-.185-.035L413.13 167.99a.14.14 0 0 1 .034-.19.131.131 0 0 1 .186.035l32.013 47.974a.14.14 0 0 1-.032.188"/>
                <path fill="#FFFFFE" d="M427.095 188.617l-.25-.122-18.4-9.077a.138.138 0 0 1-.063-.182.132.132 0 0 1 .178-.065l18.257 9.007-.546-20.262a.136.136 0 0 1 .13-.14.135.135 0 0 1 .137.133l.557 20.708M438.542 205.193l-26.914-6.8a.137.137 0 0 1-.097-.166.133.133 0 0 1 .16-.1l26.664 6.736 6.52-24.046a.132.132 0 0 1 .164-.095c.07.02.112.096.092.169l-6.589 24.302"/>
            </g>
            <g>
                <path fill="#92C1DB" d="M525.797 171.456c-5.596 9.271-6.596 21.383-1.771 31.182 1.66 3.372 15.871-.548 18.214-1.767 14.906-7.755 19.669-26.293 11.746-40.835-.83-1.521-12.217.47-13.82.86-4.914 1.193-9.486 3.772-12.584 7.908a32.08 32.08 0 0 0-1.785 2.652"/>
                <path fill="#FFFFFE" d="M524.954 203.773l.002.002a.116.116 0 0 0 .165-.032l28.43-42.643a.125.125 0 0 0-.03-.17.116.116 0 0 0-.165.032l-28.43 42.644a.124.124 0 0 0 .028.167"/>
                <path fill="#FFFFFE" d="M541.148 179.435l.223-.108 16.34-8.069a.123.123 0 0 0 .056-.162.117.117 0 0 0-.158-.057l-16.214 8.006.485-18.01a.12.12 0 0 0-.115-.126.12.12 0 0 0-.122.119l-.495 18.407M530.982 194.169l23.902-6.045a.122.122 0 0 0 .087-.147.118.118 0 0 0-.143-.09l-23.68 5.99-5.79-21.375a.117.117 0 0 0-.145-.085.122.122 0 0 0-.082.15l5.851 21.602"/>
                <g>
                    <path fill="#5398C3" d="M361.214 204.075H608.12v-4.427H361.214z"/>
                    <path fill="#FFF" d="M451.88 163.02c-2.137 0-3.87 1.712-3.87 3.824v28.227c0 2.113 1.733 3.859 3.87 3.859h67.901c2.136 0 3.885-1.707 3.885-3.773V166.93c0-2.197-1.712-3.911-3.885-3.911H451.88z"/>
                    <path fill="#F8931F" d="M518.158 164.818h-64.655c-2.034 0-3.684 1.541-3.684 3.442v25.4c0 1.9 1.65 3.47 3.684 3.47h64.655c2.034 0 3.699-1.535 3.699-3.394v-25.398c0-1.977-1.63-3.52-3.699-3.52zm-18.55 30.844h-46.105c-1.167 0-2.113-.912-2.113-2.003V168.26c0-1.091.945-1.973 2.113-1.973h46.106v29.375zm20.677-3.349l-3.52 3.35h-4.869l8.39-7.905v4.555zm0-7.086h-2.121l-11.115 10.435h-4.86l11.115-10.435h-4.85l-7.273 6.839v-4.484l2.481-2.356h-2.481v-18.94h16.978c1.187 0 2.127.897 2.127 2.05v16.89z"/>
                    <path fill="#0059A3" d="M459.519 192.658c3.301 0 4.608-1.656 4.608-4.417v-2.088h-3.06v2.705c0 .78-.384 1.202-1.531 1.202-1.112 0-1.53-.423-1.53-1.202v-15.782c0-.78.418-1.201 1.53-1.201 1.147 0 1.53.422 1.53 1.201v2.72h3.06v-2.103c0-2.76-1.306-4.416-4.607-4.416-3.266 0-4.573 1.656-4.573 4.416v14.549c0 2.76 1.307 4.416 4.573 4.416zM468.545 187.855h3.197l.59 4.483h2.989l-3.405-22.726h-3.544l-3.405 22.726h2.989l.59-4.483zm1.598-13.021l1.286 10.392h-2.572l1.286-10.392zM479.594 182.443h1.06c1.147 0 1.916.473 1.916 1.804v4.06c0 1.98.064 3.026.933 4.031h2.78c-.452-.85-.652-1.79-.652-2.765v-5.13c0-1.494-.263-2.469-2.07-2.956 1.459-.292 1.821-1.299 1.821-2.566v-6.462c0-1.72-1.254-2.848-3.13-2.848h-5.72v22.727h3.06v-9.895h.002zm0-10.203h2.033c.522 0 .696.122.696.61v6.397c0 .487-.174.646-.696.646h-2.033v-7.653zM491.586 192.658c2.92 0 4.384-1.689 4.384-3.962v-3.182c0-1.332-.381-2.338-1.25-3.313l-3.583-4.189c-.59-.681-.874-1.266-.874-2.24v-2.696c0-.78.427-1.201 1.364-1.201.938 0 1.366.422 1.366 1.201v3.029h3.06v-2.866c0-2.274-1.49-3.962-4.408-3.962s-4.442 1.688-4.442 3.962v3.182c0 1.331.388 2.338 1.222 3.312l3.656 4.19c.591.681.912 1.266.912 2.24v2.695c0 .78-.469 1.202-1.407 1.202-.938 0-1.405-.423-1.405-1.202v-3.014h-2.978v2.851c0 2.274 1.464 3.963 4.383 3.963zM509.635 175.967c.703-1.348 1.09-2.315 1.09-3.404 0-2.108-.979-2.957-2.495-2.957-1.219 0-2.494.778-2.494 3.02h1.608c0-1.082.276-1.655.905-1.655.647 0 .868.554.868 1.659 0 .76-.1 1.434-.877 2.886l-2.594 5.027v1.359h5.128v-1.391h-3.485l2.346-4.544z"/>
                    <path fill="#0059A3" d="M514.992 169.765h-1.512l-3.12 7.876v1.323h3.06v2.938h1.572v-2.938h.827v-1.391h-.827v-7.808zm-1.572 7.808h-1.586l1.586-4.043v4.043z"/>
                    <path fill="#92C1DB" d="M361.214 207.991H608.15v-3.944H361.214z"/>
                    <path fill="#337CAF" d="M365.974 235.24h235.359v-27.294h-235.36z"/>
                    <path fill="#337CAF" d="M365.571 286.162h235.837v-52.788H365.57z"/>
                    <path fill="#3D89BA" d="M433.231 286.047h62.222v-60.498H433.23z"/>
                    <path fill="#92C1DB" d="M437.92 286.047h52.844V238.75H437.92z"/>
                    <path fill="#205C8C" d="M439.483 286.048h49.718V240.33h-49.718z"/>
                    <path fill="#A0A19D" d="M490.793 252.003l-.043-.375h.043v.375"/>
                    <path fill="#3D89BA" d="M499.449 286.047h62.222v-60.498h-62.222z"/>
                    <path fill="#92C1DB" d="M503.47 286.394h52.845v-47.238H503.47z"/>
                    <path fill="#205C8C" d="M505.034 286.456h49.717v-45.72h-49.717zM567.593 274.06h27.126v-27.423h-27.126zM406.369 274.06h24.167v-27.423h-24.167z"/>
                    <path fill="#286B9E" d="M380.604 286.047h21.66v-39.41h-21.66z"/>
                    <path fill="#E3F0F5" d="M381.719 286.047h19.431v-38.122H381.72z"/>
                    <path fill="#205C8C" d="M365.571 274.06h10.362v-27.423h-10.362z"/>
                    <path fill="#BAD9E9" d="M383.185 267.617h16.499V250.07h-16.499z"/>
                    <path fill="#FFF" d="M395.436 270.66h4.248v-.84h-4.248zM387.92 263.38h7.029v-10.246h-7.029z"/>
                    <path fill="#ED6C0D" d="M388.74 254.823h5.39v-.986h-5.39z"/>
                    <path fill="#205C8C" d="M388.74 256.412h5.39v-.492h-5.39zM388.74 257.533h5.39v-.493h-5.39zM388.74 258.653h5.39v-.493h-5.39zM388.74 259.773h5.39v-.493h-5.39zM388.74 260.893h5.39v-.493h-5.39zM388.74 262.013h5.39v-.493h-5.39z"/>
                    <path fill="#92C1DB" d="M361.131 238.522h72.1v-5.148h-72.1zM608.221 233.374v5.148h-46.55v-5.148h46.55z"/>
                    <path fill="#286B9E" d="M370.752 222.368h59.227v-1.408h-59.227zM370.752 225.245h59.227v-1.408h-59.227zM370.752 228.122h59.227v-1.408h-59.227zM370.752 231h59.227v-1.409h-59.227z"/>
                </g>
            </g>
        </g>
    </g>
</svg>
