<svg width="319" height="316" viewBox="0 0 319 316" fill="none" xmlns="http://www.w3.org/2000/svg">
<mask id="mask0" mask-type="alpha" maskUnits="userSpaceOnUse" x="0" y="0" width="319" height="310">
<path fill-rule="evenodd" clip-rule="evenodd" d="M25.4568 36.5C59.7132 5.00002 116.957 -3 153.457 2C189.115 1.20021 223.504 49.3724 241.129 60.8105C260.291 73.2461 275.921 65.588 297.903 75.073C342.81 94.4493 300.393 136.171 299.957 175.33C299.556 211.333 332.338 234.757 296.251 267.453C260.164 300.149 199.249 280.717 177.219 286.534C155.189 292.351 133.042 307.877 99.2132 309.5C65.384 311.123 8.21316 292.5 1.71313 248.5C-5.47702 199.829 11.4163 192.154 25.4568 145C36.8407 106.768 -8.79948 68 25.4568 36.5Z" fill="white"/>
</mask>
<g mask="url(#mask0)">
<path fill-rule="evenodd" clip-rule="evenodd" d="M153.568 -41.5153C116.713 -14.7857 125.06 -10.7411 86.7435 1.06694C55.6473 10.65 -16.7763 -13.6022 -20.2996 45.3792C-22.6241 84.2947 -13.869 123.782 -19.8492 162.323C-24.7906 194.169 -89.9917 247.234 -24.6382 273.069C15.3189 288.865 48.9304 238.802 80.8708 254.951C140.576 285.139 200.525 373.036 276.873 293.622C353.22 214.209 342.466 137.213 332.391 78.5404C322.317 19.8683 210.302 -82.6635 153.568 -41.5153Z" fill="#EAF1F6"/>
<path d="M-5.54317 331H318.457V247H-5.54317V331Z" fill="url(#paint0_linear)"/>
<mask id="mask1" mask-type="alpha" maskUnits="userSpaceOnUse" x="166" y="245" width="138" height="10">
<path fill-rule="evenodd" clip-rule="evenodd" d="M303.863 245.785H166.381V254.18H303.863V245.785Z" fill="white"/>
</mask>
<g mask="url(#mask1)">
<path opacity="0.01" fill-rule="evenodd" clip-rule="evenodd" d="M166.381 249.982C166.381 252.3 197.158 254.18 235.122 254.18C273.086 254.18 303.863 252.3 303.863 249.982C303.863 247.664 273.086 245.785 235.122 245.785C197.158 245.785 166.381 247.664 166.381 249.982Z" fill="#A9CEE3"/>
</g>
<mask id="mask2" mask-type="alpha" maskUnits="userSpaceOnUse" x="197" y="152" width="58" height="99">
<path fill-rule="evenodd" clip-rule="evenodd" d="M243.152 223.962C226.473 259.735 207.711 249.138 207.711 249.138C207.711 249.138 187.532 241.579 204.212 205.807C220.891 170.036 252.85 152.326 252.85 152.326C252.85 152.326 259.83 188.191 243.152 223.962Z" fill="white"/>
</mask>
<g mask="url(#mask2)">
<path fill-rule="evenodd" clip-rule="evenodd" d="M243.152 223.962C226.473 259.735 207.711 249.138 207.711 249.138C207.711 249.138 187.532 241.579 204.212 205.807C220.891 170.036 252.85 152.326 252.85 152.326C252.85 152.326 259.83 188.191 243.152 223.962Z" fill="url(#paint1_linear)"/>
</g>
<path fill-rule="evenodd" clip-rule="evenodd" d="M207.518 249.552C207.668 249.622 207.845 249.558 207.915 249.408L249.043 161.197C249.112 161.048 249.048 160.871 248.898 160.8C248.749 160.732 248.571 160.795 248.502 160.945L207.373 249.157C207.303 249.307 207.368 249.484 207.518 249.552Z" fill="white"/>
<path fill-rule="evenodd" clip-rule="evenodd" d="M238.67 182.473C238.597 182.395 232.965 176.269 231.221 168.914C231.388 168.757 231.555 168.598 231.721 168.443C233.323 175.773 239.034 181.988 239.107 182.066L238.67 182.473Z" fill="white"/>
<path fill-rule="evenodd" clip-rule="evenodd" d="M246.359 165.984C246.312 165.933 244.03 163.451 241.922 159.766C242.081 159.644 242.238 159.525 242.396 159.405C244.476 163.054 246.749 165.527 246.795 165.576L246.359 165.984Z" fill="white"/>
<path fill-rule="evenodd" clip-rule="evenodd" d="M234.625 191.149C234.537 191.054 227.212 183.091 226.049 174.088C226.228 173.898 226.407 173.712 226.587 173.525C227.504 182.518 234.973 190.647 235.062 190.741L234.625 191.149Z" fill="white"/>
<path fill-rule="evenodd" clip-rule="evenodd" d="M217.184 228.556C217.059 228.421 206.424 216.864 205.084 203.983C205.252 203.638 205.423 203.296 205.596 202.955C206.448 216.002 217.494 228.012 217.621 228.149L217.184 228.556Z" fill="white"/>
<path fill-rule="evenodd" clip-rule="evenodd" d="M211.173 241.979L210.736 242.386C210.618 242.26 201.239 232.064 198.982 220.159C199.097 219.696 199.221 219.224 199.351 218.747C201.085 231.012 211.052 241.85 211.173 241.979Z" fill="white"/>
<path fill-rule="evenodd" clip-rule="evenodd" d="M227.9 205.802C227.79 205.684 218.963 196.091 216.871 184.902C217.032 184.688 217.196 184.477 217.36 184.265C219.225 195.489 228.226 205.277 228.336 205.396L227.9 205.802Z" fill="white"/>
<path fill-rule="evenodd" clip-rule="evenodd" d="M254.27 174.017C248.242 176.106 242.064 175.827 241.971 175.823L242.002 175.227C242.094 175.231 248.318 175.511 254.282 173.386C254.279 173.595 254.275 173.807 254.27 174.017Z" fill="white"/>
<path fill-rule="evenodd" clip-rule="evenodd" d="M237.019 186.443L237.049 185.848C237.168 185.853 246.527 186.275 253.847 182.379C253.828 182.612 253.808 182.846 253.789 183.081C246.358 186.869 237.137 186.451 237.019 186.443Z" fill="white"/>
<path fill-rule="evenodd" clip-rule="evenodd" d="M221.596 219.522L221.627 218.927C221.807 218.935 237.153 219.635 247.697 212.612C247.595 212.914 247.49 213.217 247.386 213.52C236.696 220.21 221.774 219.531 221.596 219.522Z" fill="white"/>
<path fill-rule="evenodd" clip-rule="evenodd" d="M212.95 237.534C213.135 237.544 229.077 238.267 239.625 230.805C239.398 231.206 239.169 231.599 238.94 231.984C228.235 238.831 213.1 238.139 212.92 238.13L212.95 237.534Z" fill="white"/>
<path fill-rule="evenodd" clip-rule="evenodd" d="M252.045 195.909C252 196.152 251.952 196.398 251.905 196.643C242.2 201.459 230.321 200.918 230.167 200.909L230.199 200.314C230.353 200.322 242.43 200.87 252.045 195.909Z" fill="white"/>
<mask id="mask3" mask-type="alpha" maskUnits="userSpaceOnUse" x="171" y="122" width="53" height="129">
<path fill-rule="evenodd" clip-rule="evenodd" d="M223.211 204.732C223.573 251.862 197.905 250.057 197.905 250.057C197.905 250.057 172.269 252.255 171.907 205.126C171.546 157.996 196.928 122.507 196.928 122.507C196.928 122.507 222.85 157.602 223.211 204.732Z" fill="white"/>
</mask>
<g mask="url(#mask3)">
<path fill-rule="evenodd" clip-rule="evenodd" d="M223.211 204.732C223.573 251.862 197.905 250.057 197.905 250.057C197.905 250.057 172.269 252.255 171.907 205.126C171.546 157.996 196.928 122.507 196.928 122.507C196.928 122.507 222.85 157.602 223.211 204.732Z" fill="url(#paint2_linear)"/>
</g>
<path fill-rule="evenodd" clip-rule="evenodd" d="M197.909 250.605C197.712 250.606 197.552 250.449 197.55 250.251L196.66 134.031C196.658 133.835 196.817 133.675 197.013 133.672C197.211 133.671 197.371 133.829 197.372 134.026L198.263 250.245C198.264 250.442 198.107 250.603 197.909 250.605Z" fill="white"/>
<path fill-rule="evenodd" clip-rule="evenodd" d="M197.366 162.288C197.484 162.238 206.641 158.382 212.186 151.258C212.082 151.004 211.98 150.749 211.876 150.497C206.499 157.665 197.212 161.58 197.094 161.629L197.366 162.288Z" fill="white"/>
<path fill-rule="evenodd" clip-rule="evenodd" d="M197.2 140.562C197.275 140.531 200.986 138.966 205.104 136.012C204.991 135.799 204.88 135.592 204.769 135.385C200.698 138.315 197.003 139.873 196.928 139.903L197.2 140.562Z" fill="white"/>
<path fill-rule="evenodd" clip-rule="evenodd" d="M197.454 173.717C197.596 173.658 209.505 168.646 215.236 159.446C215.135 159.15 215.032 158.858 214.931 158.565C209.471 167.878 197.324 173 197.181 173.059L197.454 173.717Z" fill="white"/>
<path fill-rule="evenodd" clip-rule="evenodd" d="M197.831 223.003C198.034 222.918 215.321 215.643 223.169 202.318C223.157 201.86 223.141 201.404 223.124 200.948C215.723 214.696 197.764 222.259 197.559 222.344L197.831 223.003Z" fill="white"/>
<path fill-rule="evenodd" clip-rule="evenodd" d="M197.699 240.565L197.971 241.223C198.16 241.145 213.408 234.726 221.767 222.916C221.873 222.355 221.973 221.783 222.068 221.2C214.098 233.66 197.894 240.485 197.699 240.565Z" fill="white"/>
<path fill-rule="evenodd" clip-rule="evenodd" d="M197.486 192.971C197.664 192.898 212.011 186.859 219.838 175.746C219.767 175.431 219.694 175.121 219.624 174.809C212.026 186.076 197.393 192.239 197.213 192.312L197.486 192.971Z" fill="white"/>
<path fill-rule="evenodd" clip-rule="evenodd" d="M184.619 145.362C190.13 150.622 196.979 153.386 197.082 153.427L197.345 152.764C197.242 152.723 190.343 149.937 184.919 144.67C184.819 144.898 184.72 145.13 184.619 145.362Z" fill="white"/>
<path fill-rule="evenodd" clip-rule="evenodd" d="M197.189 167.42L197.452 166.757C197.32 166.705 186.947 162.517 180.93 154.653C180.835 154.916 180.74 155.179 180.645 155.445C186.834 163.247 197.057 167.368 197.189 167.42Z" fill="white"/>
<path fill-rule="evenodd" clip-rule="evenodd" d="M197.523 211.001L197.785 210.338C197.585 210.259 180.569 203.402 172.604 190.541C172.565 190.921 172.528 191.301 172.492 191.682C180.781 204.254 197.324 210.922 197.523 211.001Z" fill="white"/>
<path fill-rule="evenodd" clip-rule="evenodd" d="M197.973 234.855C197.769 234.773 180.095 227.648 172.341 214.306C172.39 214.856 172.444 215.395 172.5 215.927C180.728 228.676 197.511 235.438 197.712 235.518L197.973 234.855Z" fill="white"/>
<path fill-rule="evenodd" clip-rule="evenodd" d="M176.171 170.242C176.099 170.529 176.029 170.819 175.959 171.108C184.11 181.156 197.28 186.464 197.452 186.533L197.713 185.87C197.541 185.801 184.152 180.404 176.171 170.242Z" fill="white"/>
<mask id="mask4" mask-type="alpha" maskUnits="userSpaceOnUse" x="222" y="216" width="72" height="35">
<path fill-rule="evenodd" clip-rule="evenodd" d="M272.732 219.094C273.783 221.891 271.647 225.139 272.691 227.937C273.5 230.104 275.958 231.197 278.254 231.476C280.551 231.755 282.907 231.457 285.169 231.935C289.08 232.765 292.34 236.091 293.091 240.016C293.842 243.942 291.726 248.393 288.396 250.605H224.259C222.129 248.018 222.621 243.696 225.279 241.656C227.255 240.137 230.187 239.724 231.399 237.548C232.586 235.418 231.473 232.719 232.007 230.339C232.652 227.471 235.583 225.647 238.467 225.082C240.233 224.737 242.035 224.74 243.838 224.741C244.981 224.743 246.128 224.744 247.264 224.657C250.854 224.381 254.37 223.201 257.399 221.257C259.93 219.633 262.173 217.462 265.017 216.482C265.793 216.215 266.641 216.078 267.487 216.078C269.737 216.078 271.962 217.047 272.732 219.094Z" fill="white"/>
</mask>
<g mask="url(#mask4)">
<path fill-rule="evenodd" clip-rule="evenodd" d="M272.732 219.094C273.783 221.891 271.647 225.139 272.691 227.937C273.5 230.104 275.958 231.197 278.254 231.476C280.551 231.755 282.907 231.457 285.169 231.935C289.08 232.765 292.34 236.091 293.091 240.016C293.842 243.942 291.726 248.393 288.396 250.605H224.259C222.129 248.018 222.621 243.696 225.279 241.656C227.255 240.137 230.187 239.724 231.399 237.548C232.586 235.418 231.473 232.719 232.007 230.339C232.652 227.471 235.583 225.647 238.467 225.082C240.233 224.737 242.035 224.74 243.838 224.741C244.981 224.743 246.128 224.744 247.264 224.657C250.854 224.381 254.37 223.201 257.399 221.257C259.93 219.633 262.173 217.462 265.017 216.482C265.793 216.215 266.641 216.078 267.487 216.078C269.737 216.078 271.962 217.047 272.732 219.094Z" fill="url(#paint3_linear)"/>
</g>
<path fill-rule="evenodd" clip-rule="evenodd" d="M252.113 250.516C252.213 250.258 261.388 226.592 270.297 216.648C270.456 216.719 270.608 216.795 270.756 216.877C262.159 226.369 253.228 249.021 252.609 250.605H252.344L252.113 250.516Z" fill="white"/>
<path fill-rule="evenodd" clip-rule="evenodd" d="M292.448 237.965C283.369 243.725 269.773 244.691 261.693 244.691C257.699 244.691 255.053 244.455 254.969 244.448L255.015 243.955C255.269 243.978 278.833 246.073 292.235 237.517C292.308 237.666 292.382 237.813 292.448 237.965Z" fill="white"/>
<path fill-rule="evenodd" clip-rule="evenodd" d="M235.305 229.619C234.513 229.12 233.777 228.615 233.094 228.113C233.202 227.976 233.315 227.844 233.435 227.717C238.772 231.616 247.559 235.829 259.464 234.218L259.53 234.708C257.718 234.954 255.981 235.064 254.319 235.064C245.927 235.064 239.48 232.239 235.305 229.619Z" fill="white"/>
<path fill-rule="evenodd" clip-rule="evenodd" d="M223.113 245.146C227.912 245.501 239.909 245.139 247.76 234.126L248.162 234.413C241.207 244.172 231.054 245.719 225.317 245.719C224.438 245.719 223.664 245.682 223.02 245.634C223.047 245.47 223.076 245.308 223.113 245.146Z" fill="white"/>
<path fill-rule="evenodd" clip-rule="evenodd" d="M280.223 231.604C278.806 234.415 276.998 238.801 276.611 243.46L276.117 243.418C276.503 238.797 278.261 234.444 279.682 231.584C279.863 231.591 280.042 231.599 280.223 231.604Z" fill="white"/>
<path fill-rule="evenodd" clip-rule="evenodd" d="M262.121 217.934C262.289 217.826 262.458 217.722 262.629 217.62C262.854 221.558 264.637 225.145 264.666 225.204L264.226 225.428C264.105 225.191 262.408 221.783 262.121 217.934Z" fill="white"/>
<path fill-rule="evenodd" clip-rule="evenodd" d="M270.091 250.605H269.303C266.111 247.956 264.477 244.612 264.454 244.566L264.899 244.351C264.923 244.4 266.678 247.987 270.091 250.605Z" fill="white"/>
<path fill-rule="evenodd" clip-rule="evenodd" d="M274.084 229.836C270.348 231.529 267.318 231.995 265.129 231.995C262.633 231.995 261.227 231.397 261.104 231.341L261.305 230.889C261.359 230.914 265.984 232.862 273.683 229.468C273.809 229.598 273.942 229.721 274.084 229.836Z" fill="white"/>
<path fill-rule="evenodd" clip-rule="evenodd" d="M254.189 234.776C254.247 234.46 255.34 227.99 249.463 224.372C249.693 224.331 249.923 224.285 250.152 224.236C255.834 228.122 254.69 234.786 254.675 234.866L254.189 234.776Z" fill="white"/>
<path fill-rule="evenodd" clip-rule="evenodd" d="M243.496 239.078L243.939 238.858C243.979 238.94 247.67 246.518 243.69 250.605H242.966C247.289 246.871 243.536 239.159 243.496 239.078Z" fill="white"/>
<mask id="mask5" mask-type="alpha" maskUnits="userSpaceOnUse" x="32" y="247" width="111" height="8">
<path fill-rule="evenodd" clip-rule="evenodd" d="M32.485 247.677H142.47V254.393H32.485V247.677Z" fill="white"/>
</mask>
<g mask="url(#mask5)">
<path opacity="0.01" fill-rule="evenodd" clip-rule="evenodd" d="M162.472 250.825C162.472 252.679 137.851 254.183 107.479 254.183C77.1078 254.183 52.4864 252.679 52.4864 250.825C52.4864 248.971 77.1078 247.467 107.479 247.467C137.851 247.467 162.472 248.971 162.472 250.825Z" fill="#A9CEE3"/>
</g>
<mask id="mask6" mask-type="alpha" maskUnits="userSpaceOnUse" x="72" y="172" width="46" height="80">
<path fill-rule="evenodd" clip-rule="evenodd" d="M81.0537 230.219C94.397 258.837 109.406 250.359 109.406 250.359C109.406 250.359 125.549 244.312 112.206 215.694C98.8628 187.077 73.2957 172.91 73.2957 172.91C73.2957 172.91 67.7112 201.602 81.0537 230.219Z" fill="white"/>
</mask>
<g mask="url(#mask6)">
<path fill-rule="evenodd" clip-rule="evenodd" d="M81.0537 230.219C94.397 258.837 109.406 250.359 109.406 250.359C109.406 250.359 125.549 244.312 112.206 215.694C98.8628 187.077 73.2957 172.91 73.2957 172.91C73.2957 172.91 67.7112 201.602 81.0537 230.219Z" fill="url(#paint4_linear)"/>
</g>
<path fill-rule="evenodd" clip-rule="evenodd" d="M109.561 250.691C109.441 250.747 109.3 250.695 109.244 250.575L76.3411 180.006C76.2862 179.887 76.3369 179.746 76.4568 179.689C76.5767 179.634 76.7185 179.685 76.7742 179.805L109.677 250.374C109.733 250.494 109.681 250.636 109.561 250.691Z" fill="white"/>
<path fill-rule="evenodd" clip-rule="evenodd" d="M84.6398 197.027C84.698 196.965 89.2035 192.064 90.5984 186.18C90.465 186.054 90.3316 185.927 90.199 185.803C88.9173 191.667 84.3485 196.639 84.2902 196.701L84.6398 197.027Z" fill="white"/>
<path fill-rule="evenodd" clip-rule="evenodd" d="M78.4884 183.836C78.5256 183.795 80.3511 181.809 82.0381 178.862C81.9106 178.764 81.7848 178.668 81.659 178.573C79.9948 181.492 78.176 183.47 78.1397 183.51L78.4884 183.836Z" fill="white"/>
<path fill-rule="evenodd" clip-rule="evenodd" d="M87.8753 203.968C87.9454 203.892 93.8061 197.522 94.7366 190.32C94.593 190.168 94.4495 190.018 94.3059 189.869C93.5722 197.063 87.5967 203.567 87.5258 203.642L87.8753 203.968Z" fill="white"/>
<path fill-rule="evenodd" clip-rule="evenodd" d="M101.829 233.894C101.928 233.786 110.436 224.54 111.508 214.235C111.374 213.959 111.237 213.686 111.099 213.413C110.417 223.85 101.58 233.459 101.479 233.568L101.829 233.894Z" fill="white"/>
<path fill-rule="evenodd" clip-rule="evenodd" d="M106.637 244.632L106.987 244.958C107.081 244.856 114.584 236.7 116.39 227.176C116.298 226.806 116.199 226.428 116.095 226.047C114.708 235.858 106.734 244.529 106.637 244.632Z" fill="white"/>
<path fill-rule="evenodd" clip-rule="evenodd" d="M93.2556 215.691C93.3434 215.596 100.405 207.922 102.079 198.971C101.95 198.799 101.819 198.63 101.687 198.461C100.195 207.44 92.9947 215.27 92.9069 215.365L93.2556 215.691Z" fill="white"/>
<path fill-rule="evenodd" clip-rule="evenodd" d="M72.1591 190.263C76.9821 191.934 81.9241 191.711 81.9984 191.707L81.9739 191.23C81.9004 191.234 76.9213 191.457 72.1498 189.758C72.1523 189.925 72.1557 190.095 72.1591 190.263Z" fill="white"/>
<path fill-rule="evenodd" clip-rule="evenodd" d="M85.9606 200.204L85.9361 199.727C85.8407 199.732 78.3538 200.068 72.4982 196.952C72.5134 197.139 72.5295 197.326 72.5447 197.513C78.4889 200.544 85.8661 200.209 85.9606 200.204Z" fill="white"/>
<path fill-rule="evenodd" clip-rule="evenodd" d="M98.2987 226.666L98.2742 226.19C98.1298 226.197 85.8529 226.757 77.4178 221.138C77.4997 221.38 77.5833 221.622 77.6669 221.865C86.2185 227.217 98.156 226.674 98.2987 226.666Z" fill="white"/>
<path fill-rule="evenodd" clip-rule="evenodd" d="M105.215 241.076C105.067 241.084 92.3143 241.662 83.8758 235.693C84.0574 236.014 84.2406 236.328 84.4238 236.636C92.9873 242.113 105.095 241.56 105.24 241.553L105.215 241.076Z" fill="white"/>
<path fill-rule="evenodd" clip-rule="evenodd" d="M73.9394 207.776C73.9757 207.971 74.0137 208.167 74.0517 208.363C81.8155 212.216 91.3187 211.783 91.442 211.776L91.4167 211.3C91.2934 211.307 81.6314 211.745 73.9394 207.776Z" fill="white"/>
<mask id="mask7" mask-type="alpha" maskUnits="userSpaceOnUse" x="97" y="149" width="42" height="103">
<path fill-rule="evenodd" clip-rule="evenodd" d="M97.007 214.835C96.7173 252.539 117.251 251.095 117.251 251.095C117.251 251.095 137.761 252.853 138.05 215.15C138.339 177.446 118.033 149.054 118.033 149.054C118.033 149.054 97.2957 177.131 97.007 214.835Z" fill="white"/>
</mask>
<g mask="url(#mask7)">
<path fill-rule="evenodd" clip-rule="evenodd" d="M97.007 214.835C96.7173 252.539 117.251 251.095 117.251 251.095C117.251 251.095 137.761 252.853 138.05 215.15C138.339 177.446 118.033 149.054 118.033 149.054C118.033 149.054 97.2957 177.131 97.007 214.835Z" fill="url(#paint5_linear)"/>
</g>
<path fill-rule="evenodd" clip-rule="evenodd" d="M117.248 251.533C117.406 251.534 117.534 251.408 117.536 251.25L118.248 158.274C118.249 158.117 118.122 157.988 117.965 157.987C117.807 157.986 117.679 158.112 117.678 158.27L116.965 251.245C116.964 251.403 117.09 251.531 117.248 251.533Z" fill="white"/>
<path fill-rule="evenodd" clip-rule="evenodd" d="M117.682 180.879C117.588 180.839 110.262 177.754 105.827 172.056C105.91 171.852 105.992 171.648 106.074 171.447C110.376 177.181 117.806 180.313 117.9 180.352L117.682 180.879Z" fill="white"/>
<path fill-rule="evenodd" clip-rule="evenodd" d="M117.815 163.498C117.755 163.474 114.787 162.221 111.492 159.858C111.582 159.688 111.672 159.522 111.76 159.357C115.017 161.7 117.973 162.948 118.033 162.971L117.815 163.498Z" fill="white"/>
<path fill-rule="evenodd" clip-rule="evenodd" d="M117.612 190.023C117.498 189.975 107.972 185.966 103.387 178.605C103.468 178.369 103.55 178.135 103.631 177.901C107.999 185.351 117.716 189.449 117.83 189.496L117.612 190.023Z" fill="white"/>
<path fill-rule="evenodd" clip-rule="evenodd" d="M117.311 229.451C117.149 229.383 103.319 223.563 97.0403 212.903C97.0496 212.537 97.0631 212.172 97.0766 211.807C102.997 222.806 117.364 228.856 117.529 228.924L117.311 229.451Z" fill="white"/>
<path fill-rule="evenodd" clip-rule="evenodd" d="M117.416 243.501L117.198 244.028C117.047 243.965 104.849 238.83 98.1615 229.381C98.0771 228.933 97.9969 228.475 97.9209 228.008C104.297 237.977 117.26 243.437 117.416 243.501Z" fill="white"/>
<path fill-rule="evenodd" clip-rule="evenodd" d="M117.587 205.426C117.444 205.367 105.967 200.536 99.7051 191.646C99.7617 191.394 99.82 191.146 99.8765 190.896C105.955 199.909 117.661 204.84 117.805 204.899L117.587 205.426Z" fill="white"/>
<path fill-rule="evenodd" clip-rule="evenodd" d="M127.88 167.338C123.471 171.546 117.992 173.758 117.91 173.791L117.699 173.26C117.782 173.227 123.301 170.998 127.64 166.785C127.72 166.967 127.8 167.153 127.88 167.338Z" fill="white"/>
<path fill-rule="evenodd" clip-rule="evenodd" d="M117.824 184.985L117.614 184.454C117.72 184.413 126.018 181.063 130.832 174.771C130.908 174.982 130.984 175.192 131.06 175.405C126.108 181.646 117.93 184.943 117.824 184.985Z" fill="white"/>
<path fill-rule="evenodd" clip-rule="evenodd" d="M117.557 219.85L117.348 219.319C117.507 219.256 131.12 213.77 137.492 203.482C137.524 203.786 137.553 204.09 137.582 204.395C130.95 214.452 117.716 219.786 117.557 219.85Z" fill="white"/>
<path fill-rule="evenodd" clip-rule="evenodd" d="M117.197 238.933C117.361 238.868 131.499 233.167 137.703 222.494C137.663 222.934 137.62 223.365 137.575 223.791C130.993 233.99 117.567 239.399 117.406 239.463L117.197 238.933Z" fill="white"/>
<path fill-rule="evenodd" clip-rule="evenodd" d="M134.639 187.242C134.696 187.472 134.752 187.704 134.809 187.936C128.288 195.974 117.752 200.22 117.614 200.275L117.405 199.745C117.542 199.69 128.254 195.372 134.639 187.242Z" fill="white"/>
<mask id="mask8" mask-type="alpha" maskUnits="userSpaceOnUse" x="40" y="223" width="58" height="29">
<path fill-rule="evenodd" clip-rule="evenodd" d="M57.3899 226.324C56.5489 228.561 58.2579 231.16 57.4228 233.399C56.7752 235.132 54.8095 236.007 52.9722 236.23C51.1349 236.453 49.2503 236.215 47.44 236.597C44.3117 237.261 41.7034 239.921 41.1031 243.061C40.5019 246.202 42.1949 249.763 44.8588 251.533H96.1685C97.8724 249.463 97.479 246.006 95.352 244.374C93.7714 243.159 91.4258 242.828 90.4565 241.087C89.5066 239.383 90.3974 237.224 89.9701 235.32C89.4542 233.025 87.1094 231.566 84.8018 231.115C83.3892 230.839 81.9479 230.841 80.5049 230.842C79.5905 230.844 78.6735 230.844 77.7641 230.774C74.8925 230.554 72.0799 229.61 69.6566 228.055C67.6319 226.755 65.8368 225.018 63.5621 224.235C62.9415 224.021 62.2626 223.911 61.5863 223.911C59.7861 223.911 58.0062 224.687 57.3899 226.324Z" fill="white"/>
</mask>
<g mask="url(#mask8)">
<path fill-rule="evenodd" clip-rule="evenodd" d="M57.3899 226.324C56.5489 228.561 58.2579 231.16 57.4228 233.399C56.7752 235.132 54.8095 236.007 52.9722 236.23C51.1349 236.453 49.2503 236.215 47.44 236.597C44.3117 237.261 41.7034 239.921 41.1031 243.061C40.5019 246.202 42.1949 249.763 44.8588 251.533H96.1685C97.8724 249.463 97.479 246.006 95.352 244.374C93.7714 243.159 91.4258 242.828 90.4565 241.087C89.5066 239.383 90.3974 237.224 89.9701 235.32C89.4542 233.025 87.1094 231.566 84.8018 231.115C83.3892 230.839 81.9479 230.841 80.5049 230.842C79.5905 230.844 78.6735 230.844 77.7641 230.774C74.8925 230.554 72.0799 229.61 69.6566 228.055C67.6319 226.755 65.8368 225.018 63.5621 224.235C62.9415 224.021 62.2626 223.911 61.5863 223.911C59.7861 223.911 58.0062 224.687 57.3899 226.324Z" fill="url(#paint6_linear)"/>
</g>
<path fill-rule="evenodd" clip-rule="evenodd" d="M73.885 251.462C73.8047 251.255 66.4648 232.323 59.3376 224.367C59.2109 224.424 59.0893 224.485 58.9703 224.551C65.8484 232.144 72.9933 250.265 73.4881 251.533H73.7L73.885 251.462Z" fill="white"/>
<path fill-rule="evenodd" clip-rule="evenodd" d="M41.6173 241.421C48.8804 246.029 59.7574 246.801 66.2209 246.801C69.416 246.801 71.5328 246.613 71.6003 246.607L71.5632 246.213C71.3605 246.231 52.5095 247.907 41.7879 241.062C41.7287 241.181 41.6696 241.3 41.6173 241.421Z" fill="white"/>
<path fill-rule="evenodd" clip-rule="evenodd" d="M87.3312 234.744C87.9653 234.345 88.5538 233.941 89.1001 233.539C89.014 233.43 88.9236 233.324 88.8274 233.222C84.5575 236.341 77.5282 239.712 68.0039 238.424L67.9515 238.815C69.4013 239.012 70.7903 239.1 72.1201 239.1C78.8336 239.1 83.9917 236.84 87.3312 234.744Z" fill="white"/>
<path fill-rule="evenodd" clip-rule="evenodd" d="M97.085 247.166C93.2457 247.45 83.648 247.16 77.3677 238.35L77.046 238.58C82.6103 246.387 90.7321 247.624 95.322 247.624C96.0254 247.624 96.6443 247.595 97.1593 247.556C97.1382 247.425 97.1146 247.295 97.085 247.166Z" fill="white"/>
<path fill-rule="evenodd" clip-rule="evenodd" d="M51.3974 236.332C52.5305 238.581 53.9769 242.09 54.2868 245.817L54.6819 245.784C54.3729 242.086 52.9662 238.604 51.8297 236.316C51.6853 236.322 51.5418 236.328 51.3974 236.332Z" fill="white"/>
<path fill-rule="evenodd" clip-rule="evenodd" d="M65.8785 225.396C65.7442 225.31 65.6091 225.227 65.4723 225.145C65.2925 228.295 63.8655 231.165 63.8427 231.212L64.1948 231.391C64.2911 231.202 65.6488 228.475 65.8785 225.396Z" fill="white"/>
<path fill-rule="evenodd" clip-rule="evenodd" d="M59.503 251.533H60.1329C62.6871 249.413 63.9941 246.739 64.0127 246.701L63.6564 246.53C63.637 246.569 62.2328 249.439 59.503 251.533Z" fill="white"/>
<path fill-rule="evenodd" clip-rule="evenodd" d="M56.3085 234.918C59.2967 236.272 61.7208 236.645 63.472 236.645C65.4689 236.645 66.5936 236.167 66.6924 236.122L66.5311 235.76C66.4881 235.78 62.7881 237.339 56.6294 234.623C56.528 234.727 56.4217 234.826 56.3085 234.918Z" fill="white"/>
<path fill-rule="evenodd" clip-rule="evenodd" d="M72.2243 238.87C72.1779 238.617 71.3031 233.441 76.0053 230.546C75.8213 230.513 75.6372 230.477 75.454 230.437C70.908 233.546 71.8233 238.878 71.8351 238.942L72.2243 238.87Z" fill="white"/>
<path fill-rule="evenodd" clip-rule="evenodd" d="M80.7791 242.312L80.4245 242.135C80.3924 242.201 77.4397 248.264 80.6237 251.533H81.203C77.7445 248.546 80.747 242.376 80.7791 242.312Z" fill="white"/>
<rect x="97.5073" y="45.9171" width="100.893" height="207.282" rx="7.95281" fill="url(#paint7_linear)"/>
<rect x="100.03" y="58.5563" width="95.8488" height="182.004" rx="3.18113" fill="#BAD9E9"/>
<rect x="104.594" y="206.287" width="85.7557" height="28.8662" rx="2.59474" fill="url(#paint8_linear)"/>
<path d="M119.613 223.686C119.613 223.124 119.467 222.701 119.177 222.416C118.893 222.126 118.372 221.826 117.614 221.516C116.231 220.992 115.236 220.38 114.63 219.679C114.023 218.971 113.72 218.138 113.72 217.178C113.72 216.016 114.131 215.084 114.952 214.383C115.779 213.676 116.828 213.322 118.097 213.322C118.943 213.322 119.698 213.502 120.361 213.862C121.024 214.216 121.533 214.718 121.886 215.368C122.246 216.019 122.426 216.758 122.426 217.585H119.651C119.651 216.941 119.512 216.451 119.234 216.117C118.962 215.776 118.567 215.605 118.05 215.605C117.563 215.605 117.184 215.75 116.913 216.041C116.641 216.325 116.505 216.71 116.505 217.197C116.505 217.576 116.657 217.92 116.96 218.229C117.263 218.532 117.8 218.848 118.571 219.177C119.916 219.663 120.892 220.26 121.498 220.967C122.11 221.674 122.417 222.574 122.417 223.667C122.417 224.867 122.035 225.805 121.27 226.48C120.506 227.156 119.467 227.494 118.154 227.494C117.263 227.494 116.452 227.311 115.719 226.945C114.987 226.578 114.412 226.054 113.995 225.372C113.585 224.69 113.379 223.885 113.379 222.956H116.174C116.174 223.752 116.329 224.33 116.638 224.69C116.948 225.05 117.453 225.23 118.154 225.23C119.126 225.23 119.613 224.715 119.613 223.686Z" fill="white"/>
<path d="M134.852 213.512V223.061C134.839 224.494 134.445 225.593 133.668 226.357C132.891 227.115 131.776 227.494 130.324 227.494C128.846 227.494 127.715 227.109 126.932 226.338C126.156 225.568 125.767 224.453 125.767 222.994V213.512H128.571V223.004C128.571 223.787 128.697 224.346 128.95 224.68C129.203 225.015 129.661 225.183 130.324 225.183C130.987 225.183 131.442 225.018 131.688 224.69C131.934 224.355 132.06 223.809 132.067 223.051V213.512H134.852Z" fill="white"/>
<path d="M138.581 227.305V213.512H142.844C144.284 213.512 145.377 213.834 146.122 214.478C146.873 215.116 147.249 216.054 147.249 217.291C147.249 217.992 147.095 218.596 146.785 219.101C146.476 219.606 146.052 219.975 145.516 220.209C146.135 220.386 146.611 220.743 146.946 221.28C147.281 221.81 147.448 222.467 147.448 223.25C147.448 224.589 147.079 225.599 146.34 226.281C145.607 226.964 144.543 227.305 143.147 227.305H138.581ZM141.366 221.308V224.993H143.147C143.646 224.993 144.025 224.838 144.284 224.529C144.543 224.219 144.673 223.781 144.673 223.212C144.673 221.974 144.224 221.34 143.327 221.308H141.366ZM141.366 219.281H142.816C143.908 219.281 144.455 218.716 144.455 217.585C144.455 216.96 144.328 216.511 144.076 216.24C143.823 215.968 143.413 215.832 142.844 215.832H141.366V219.281Z" fill="white"/>
<path d="M154.73 213.512L157.335 223.487L159.931 213.512H163.568V227.305H160.774V223.572L161.03 217.822L158.273 227.305H156.378L153.622 217.822L153.877 223.572V227.305H151.092V213.512H154.73Z" fill="white"/>
<path d="M170.339 227.305H167.554V213.512H170.339V227.305Z" fill="white"/>
<path d="M182.944 215.832H179.534V227.305H176.739V215.832H173.386V213.512H182.944V215.832Z" fill="white"/>
<path d="M119.613 223.686C119.613 223.124 119.467 222.701 119.177 222.416C118.893 222.126 118.372 221.826 117.614 221.516C116.231 220.992 115.236 220.38 114.63 219.679C114.023 218.971 113.72 218.138 113.72 217.178C113.72 216.016 114.131 215.084 114.952 214.383C115.779 213.676 116.828 213.322 118.097 213.322C118.943 213.322 119.698 213.502 120.361 213.862C121.024 214.216 121.533 214.718 121.886 215.368C122.246 216.019 122.426 216.758 122.426 217.585H119.651C119.651 216.941 119.512 216.451 119.234 216.117C118.962 215.776 118.567 215.605 118.05 215.605C117.563 215.605 117.184 215.75 116.913 216.041C116.641 216.325 116.505 216.71 116.505 217.197C116.505 217.576 116.657 217.92 116.96 218.229C117.263 218.532 117.8 218.848 118.571 219.177C119.916 219.663 120.892 220.26 121.498 220.967C122.11 221.674 122.417 222.574 122.417 223.667C122.417 224.867 122.035 225.805 121.27 226.48C120.506 227.156 119.467 227.494 118.154 227.494C117.263 227.494 116.452 227.311 115.719 226.945C114.987 226.578 114.412 226.054 113.995 225.372C113.585 224.69 113.379 223.885 113.379 222.956H116.174C116.174 223.752 116.329 224.33 116.638 224.69C116.948 225.05 117.453 225.23 118.154 225.23C119.126 225.23 119.613 224.715 119.613 223.686Z" stroke="white" stroke-width="0.5"/>
<path d="M134.852 213.512V223.061C134.839 224.494 134.445 225.593 133.668 226.357C132.891 227.115 131.776 227.494 130.324 227.494C128.846 227.494 127.715 227.109 126.932 226.338C126.156 225.568 125.767 224.453 125.767 222.994V213.512H128.571V223.004C128.571 223.787 128.697 224.346 128.95 224.68C129.203 225.015 129.661 225.183 130.324 225.183C130.987 225.183 131.442 225.018 131.688 224.69C131.934 224.355 132.06 223.809 132.067 223.051V213.512H134.852Z" stroke="white" stroke-width="0.5"/>
<path d="M138.581 227.305V213.512H142.844C144.284 213.512 145.377 213.834 146.122 214.478C146.873 215.116 147.249 216.054 147.249 217.291C147.249 217.992 147.095 218.596 146.785 219.101C146.476 219.606 146.052 219.975 145.516 220.209C146.135 220.386 146.611 220.743 146.946 221.28C147.281 221.81 147.448 222.467 147.448 223.25C147.448 224.589 147.079 225.599 146.34 226.281C145.607 226.964 144.543 227.305 143.147 227.305H138.581ZM141.366 221.308V224.993H143.147C143.646 224.993 144.025 224.838 144.284 224.529C144.543 224.219 144.673 223.781 144.673 223.212C144.673 221.974 144.224 221.34 143.327 221.308H141.366ZM141.366 219.281H142.816C143.908 219.281 144.455 218.716 144.455 217.585C144.455 216.96 144.328 216.511 144.076 216.24C143.823 215.968 143.413 215.832 142.844 215.832H141.366V219.281Z" stroke="white" stroke-width="0.5"/>
<path d="M154.73 213.512L157.335 223.487L159.931 213.512H163.568V227.305H160.774V223.572L161.03 217.822L158.273 227.305H156.378L153.622 217.822L153.877 223.572V227.305H151.092V213.512H154.73Z" stroke="white" stroke-width="0.5"/>
<path d="M170.339 227.305H167.554V213.512H170.339V227.305Z" stroke="white" stroke-width="0.5"/>
<path d="M182.944 215.832H179.534V227.305H176.739V215.832H173.386V213.512H182.944V215.832Z" stroke="white" stroke-width="0.5"/>
<g opacity="0.3">
<path d="M100.202 61.7848C100.202 60.0279 101.627 58.6036 103.384 58.6036H192.87C194.627 58.6036 196.051 60.0279 196.051 61.7848V118.957H100.202V61.7848Z" fill="#205C8C"/>
<mask id="mask9" mask-type="alpha" maskUnits="userSpaceOnUse" x="100" y="58" width="97" height="61">
<path d="M100.202 61.7848C100.202 60.0279 101.627 58.6036 103.384 58.6036H192.87C194.627 58.6036 196.051 60.0279 196.051 61.7848V118.957H100.202V61.7848Z" fill="white"/>
</mask>
<g mask="url(#mask9)">
<g opacity="0.1">
<rect x="97.9187" y="113.063" width="6.17217" height="6.18562" fill="#205C8C" stroke="white" stroke-width="0.72"/>
<rect x="97.9187" y="106.877" width="6.17217" height="6.18562" fill="#205C8C" stroke="white" stroke-width="0.72"/>
<rect x="104.091" y="113.063" width="6.17217" height="6.18562" fill="#205C8C" stroke="white" stroke-width="0.72"/>
<rect x="104.091" y="106.877" width="6.17217" height="6.18562" fill="#205C8C" stroke="white" stroke-width="0.72"/>
<rect x="110.263" y="113.063" width="6.17217" height="6.18562" fill="#205C8C" stroke="white" stroke-width="0.72"/>
<rect x="110.263" y="106.877" width="6.17217" height="6.18562" fill="#205C8C" stroke="white" stroke-width="0.72"/>
<rect x="116.435" y="113.063" width="6.17217" height="6.18562" fill="#205C8C" stroke="white" stroke-width="0.72"/>
<rect x="116.435" y="106.877" width="6.17217" height="6.18562" fill="#205C8C" stroke="white" stroke-width="0.72"/>
<rect x="122.607" y="113.063" width="6.17217" height="6.18562" fill="#205C8C" stroke="white" stroke-width="0.72"/>
<rect x="122.607" y="106.877" width="6.17217" height="6.18562" fill="#205C8C" stroke="white" stroke-width="0.72"/>
<rect x="128.78" y="113.063" width="6.17217" height="6.18562" fill="#205C8C" stroke="white" stroke-width="0.72"/>
<rect x="128.78" y="106.877" width="6.17217" height="6.18562" fill="#205C8C" stroke="white" stroke-width="0.72"/>
<rect x="134.952" y="113.063" width="6.17217" height="6.18562" fill="#205C8C" stroke="white" stroke-width="0.72"/>
<rect x="134.952" y="106.877" width="6.17217" height="6.18562" fill="#205C8C" stroke="white" stroke-width="0.72"/>
<rect x="141.124" y="113.063" width="6.17217" height="6.18562" fill="#205C8C" stroke="white" stroke-width="0.72"/>
<rect x="141.124" y="106.877" width="6.17217" height="6.18562" fill="#205C8C" stroke="white" stroke-width="0.72"/>
<rect x="147.296" y="113.063" width="6.17217" height="6.18562" fill="#205C8C" stroke="white" stroke-width="0.72"/>
<rect x="147.296" y="106.877" width="6.17217" height="6.18562" fill="#205C8C" stroke="white" stroke-width="0.72"/>
<rect x="153.468" y="113.063" width="6.17217" height="6.18562" fill="#205C8C" stroke="white" stroke-width="0.72"/>
<rect x="153.468" y="106.877" width="6.17217" height="6.18562" fill="#205C8C" stroke="white" stroke-width="0.72"/>
<rect x="159.64" y="113.063" width="6.17217" height="6.18562" fill="#205C8C" stroke="white" stroke-width="0.72"/>
<rect x="159.64" y="106.877" width="6.17217" height="6.18562" fill="#205C8C" stroke="white" stroke-width="0.72"/>
<rect x="165.813" y="113.063" width="6.17217" height="6.18562" fill="#205C8C" stroke="white" stroke-width="0.72"/>
<rect x="165.813" y="106.877" width="6.17217" height="6.18562" fill="#205C8C" stroke="white" stroke-width="0.72"/>
<rect x="171.985" y="113.063" width="6.17217" height="6.18562" fill="#205C8C" stroke="white" stroke-width="0.72"/>
<rect x="171.985" y="106.877" width="6.17217" height="6.18562" fill="#205C8C" stroke="white" stroke-width="0.72"/>
<rect x="178.157" y="113.063" width="6.17217" height="6.18562" fill="#205C8C" stroke="white" stroke-width="0.72"/>
<rect x="178.157" y="106.877" width="6.17217" height="6.18562" fill="#205C8C" stroke="white" stroke-width="0.72"/>
<rect x="184.329" y="113.063" width="6.17217" height="6.18562" fill="#205C8C" stroke="white" stroke-width="0.72"/>
<rect x="184.329" y="106.877" width="6.17217" height="6.18562" fill="#205C8C" stroke="white" stroke-width="0.72"/>
<rect x="190.501" y="113.063" width="6.17217" height="6.18562" fill="#205C8C" stroke="white" stroke-width="0.72"/>
<rect x="190.501" y="106.877" width="6.17217" height="6.18562" fill="#205C8C" stroke="white" stroke-width="0.72"/>
<rect x="97.9187" y="100.691" width="6.17217" height="6.18562" fill="#205C8C" stroke="white" stroke-width="0.72"/>
<rect x="104.091" y="100.691" width="6.17217" height="6.18562" fill="#205C8C" stroke="white" stroke-width="0.72"/>
<rect x="110.263" y="100.691" width="6.17217" height="6.18562" fill="#205C8C" stroke="white" stroke-width="0.72"/>
<rect x="116.435" y="100.691" width="6.17217" height="6.18562" fill="#205C8C" stroke="white" stroke-width="0.72"/>
<rect x="122.607" y="100.691" width="6.17217" height="6.18562" fill="#205C8C" stroke="white" stroke-width="0.72"/>
<rect x="128.78" y="100.691" width="6.17217" height="6.18562" fill="#205C8C" stroke="white" stroke-width="0.72"/>
<rect x="134.952" y="100.691" width="6.17217" height="6.18562" fill="#205C8C" stroke="white" stroke-width="0.72"/>
<rect x="141.124" y="100.691" width="6.17217" height="6.18562" fill="#205C8C" stroke="white" stroke-width="0.72"/>
<rect x="147.296" y="100.691" width="6.17217" height="6.18562" fill="#205C8C" stroke="white" stroke-width="0.72"/>
<rect x="153.468" y="100.691" width="6.17217" height="6.18562" fill="#205C8C" stroke="white" stroke-width="0.72"/>
<rect x="159.64" y="100.691" width="6.17217" height="6.18562" fill="#205C8C" stroke="white" stroke-width="0.72"/>
<rect x="165.813" y="100.691" width="6.17217" height="6.18562" fill="#205C8C" stroke="white" stroke-width="0.72"/>
<rect x="171.985" y="100.691" width="6.17217" height="6.18562" fill="#205C8C" stroke="white" stroke-width="0.72"/>
<rect x="178.157" y="100.691" width="6.17217" height="6.18562" fill="#205C8C" stroke="white" stroke-width="0.72"/>
<rect x="184.329" y="100.691" width="6.17217" height="6.18562" fill="#205C8C" stroke="white" stroke-width="0.72"/>
<rect x="190.501" y="100.691" width="6.17217" height="6.18562" fill="#205C8C" stroke="white" stroke-width="0.72"/>
<rect x="97.9187" y="94.5059" width="6.17217" height="6.18562" fill="#205C8C" stroke="white" stroke-width="0.72"/>
<rect x="104.091" y="94.5059" width="6.17217" height="6.18562" fill="#205C8C" stroke="white" stroke-width="0.72"/>
<rect x="110.263" y="94.5059" width="6.17217" height="6.18562" fill="#205C8C" stroke="white" stroke-width="0.72"/>
<rect x="116.435" y="94.5059" width="6.17217" height="6.18562" fill="#205C8C" stroke="white" stroke-width="0.72"/>
<rect x="122.607" y="94.5059" width="6.17217" height="6.18562" fill="#205C8C" stroke="white" stroke-width="0.72"/>
<rect x="128.78" y="94.5059" width="6.17217" height="6.18562" fill="#205C8C" stroke="white" stroke-width="0.72"/>
<rect x="134.952" y="94.5059" width="6.17217" height="6.18562" fill="#205C8C" stroke="white" stroke-width="0.72"/>
<rect x="141.124" y="94.5059" width="6.17217" height="6.18562" fill="#205C8C" stroke="white" stroke-width="0.72"/>
<rect x="147.296" y="94.5059" width="6.17217" height="6.18562" fill="#205C8C" stroke="white" stroke-width="0.72"/>
<rect x="153.468" y="94.5059" width="6.17217" height="6.18562" fill="#205C8C" stroke="white" stroke-width="0.72"/>
<rect x="159.64" y="94.5059" width="6.17217" height="6.18562" fill="#205C8C" stroke="white" stroke-width="0.72"/>
<rect x="165.813" y="94.5059" width="6.17217" height="6.18562" fill="#205C8C" stroke="white" stroke-width="0.72"/>
<rect x="171.985" y="94.5059" width="6.17217" height="6.18562" fill="#205C8C" stroke="white" stroke-width="0.72"/>
<rect x="178.157" y="94.5059" width="6.17217" height="6.18562" fill="#205C8C" stroke="white" stroke-width="0.72"/>
<rect x="184.329" y="94.5059" width="6.17217" height="6.18562" fill="#205C8C" stroke="white" stroke-width="0.72"/>
<rect x="190.501" y="94.5059" width="6.17217" height="6.18562" fill="#205C8C" stroke="white" stroke-width="0.72"/>
<rect x="97.9187" y="88.3201" width="6.17217" height="6.18562" fill="#205C8C" stroke="white" stroke-width="0.72"/>
<rect x="104.091" y="88.3201" width="6.17217" height="6.18562" fill="#205C8C" stroke="white" stroke-width="0.72"/>
<rect x="110.263" y="88.3201" width="6.17217" height="6.18562" fill="#205C8C" stroke="white" stroke-width="0.72"/>
<rect x="116.435" y="88.3201" width="6.17217" height="6.18562" fill="#205C8C" stroke="white" stroke-width="0.72"/>
<rect x="122.607" y="88.3201" width="6.17217" height="6.18562" fill="#205C8C" stroke="white" stroke-width="0.72"/>
<rect x="128.78" y="88.3201" width="6.17217" height="6.18562" fill="#205C8C" stroke="white" stroke-width="0.72"/>
<rect x="134.952" y="88.3201" width="6.17217" height="6.18562" fill="#205C8C" stroke="white" stroke-width="0.72"/>
<rect x="141.124" y="88.3201" width="6.17217" height="6.18562" fill="#205C8C" stroke="white" stroke-width="0.72"/>
<rect x="147.296" y="88.3201" width="6.17217" height="6.18562" fill="#205C8C" stroke="white" stroke-width="0.72"/>
<rect x="153.468" y="88.3201" width="6.17217" height="6.18562" fill="#205C8C" stroke="white" stroke-width="0.72"/>
<rect x="159.64" y="88.3201" width="6.17217" height="6.18562" fill="#205C8C" stroke="white" stroke-width="0.72"/>
<rect x="165.813" y="88.3201" width="6.17217" height="6.18562" fill="#205C8C" stroke="white" stroke-width="0.72"/>
<rect x="171.985" y="88.3201" width="6.17217" height="6.18562" fill="#205C8C" stroke="white" stroke-width="0.72"/>
<rect x="178.157" y="88.3201" width="6.17217" height="6.18562" fill="#205C8C" stroke="white" stroke-width="0.72"/>
<rect x="184.329" y="88.3201" width="6.17217" height="6.18562" fill="#205C8C" stroke="white" stroke-width="0.72"/>
<rect x="190.501" y="88.3201" width="6.17217" height="6.18562" fill="#205C8C" stroke="white" stroke-width="0.72"/>
<rect x="97.9187" y="82.1346" width="6.17217" height="6.18562" fill="#205C8C" stroke="white" stroke-width="0.72"/>
<rect x="104.091" y="82.1346" width="6.17217" height="6.18562" fill="#205C8C" stroke="white" stroke-width="0.72"/>
<rect x="110.263" y="82.1346" width="6.17217" height="6.18562" fill="#205C8C" stroke="white" stroke-width="0.72"/>
<rect x="116.435" y="82.1346" width="6.17217" height="6.18562" fill="#205C8C" stroke="white" stroke-width="0.72"/>
<rect x="122.607" y="82.1346" width="6.17217" height="6.18562" fill="#205C8C" stroke="white" stroke-width="0.72"/>
<rect x="128.78" y="82.1346" width="6.17217" height="6.18562" fill="#205C8C" stroke="white" stroke-width="0.72"/>
<rect x="134.952" y="82.1346" width="6.17217" height="6.18562" fill="#205C8C" stroke="white" stroke-width="0.72"/>
<rect x="141.124" y="82.1346" width="6.17217" height="6.18562" fill="#205C8C" stroke="white" stroke-width="0.72"/>
<rect x="147.296" y="82.1346" width="6.17217" height="6.18562" fill="#205C8C" stroke="white" stroke-width="0.72"/>
<rect x="153.468" y="82.1346" width="6.17217" height="6.18562" fill="#205C8C" stroke="white" stroke-width="0.72"/>
<rect x="159.64" y="82.1346" width="6.17217" height="6.18562" fill="#205C8C" stroke="white" stroke-width="0.72"/>
<rect x="165.813" y="82.1346" width="6.17217" height="6.18562" fill="#205C8C" stroke="white" stroke-width="0.72"/>
<rect x="171.985" y="82.1346" width="6.17217" height="6.18562" fill="#205C8C" stroke="white" stroke-width="0.72"/>
<rect x="178.157" y="82.1346" width="6.17217" height="6.18562" fill="#205C8C" stroke="white" stroke-width="0.72"/>
<rect x="184.329" y="82.1346" width="6.17217" height="6.18562" fill="#205C8C" stroke="white" stroke-width="0.72"/>
<rect x="190.501" y="82.1346" width="6.17217" height="6.18562" fill="#205C8C" stroke="white" stroke-width="0.72"/>
<rect x="97.9187" y="75.9489" width="6.17217" height="6.18562" fill="#205C8C" stroke="white" stroke-width="0.72"/>
<rect x="104.091" y="75.9489" width="6.17217" height="6.18562" fill="#205C8C" stroke="white" stroke-width="0.72"/>
<rect x="110.263" y="75.9489" width="6.17217" height="6.18562" fill="#205C8C" stroke="white" stroke-width="0.72"/>
<rect x="116.435" y="75.9489" width="6.17217" height="6.18562" fill="#205C8C" stroke="white" stroke-width="0.72"/>
<rect x="122.607" y="75.9489" width="6.17217" height="6.18562" fill="#205C8C" stroke="white" stroke-width="0.72"/>
<rect x="128.78" y="75.9489" width="6.17217" height="6.18562" fill="#205C8C" stroke="white" stroke-width="0.72"/>
<rect x="134.952" y="75.9489" width="6.17217" height="6.18562" fill="#205C8C" stroke="white" stroke-width="0.72"/>
<rect x="141.124" y="75.9489" width="6.17217" height="6.18562" fill="#205C8C" stroke="white" stroke-width="0.72"/>
<rect x="147.296" y="75.9489" width="6.17217" height="6.18562" fill="#205C8C" stroke="white" stroke-width="0.72"/>
<rect x="153.468" y="75.9489" width="6.17217" height="6.18562" fill="#205C8C" stroke="white" stroke-width="0.72"/>
<rect x="159.64" y="75.9489" width="6.17217" height="6.18562" fill="#205C8C" stroke="white" stroke-width="0.72"/>
<rect x="165.813" y="75.9489" width="6.17217" height="6.18562" fill="#205C8C" stroke="white" stroke-width="0.72"/>
<rect x="171.985" y="75.9489" width="6.17217" height="6.18562" fill="#205C8C" stroke="white" stroke-width="0.72"/>
<rect x="178.157" y="75.9489" width="6.17217" height="6.18562" fill="#205C8C" stroke="white" stroke-width="0.72"/>
<rect x="184.329" y="75.9489" width="6.17217" height="6.18562" fill="#205C8C" stroke="white" stroke-width="0.72"/>
<rect x="190.501" y="75.9489" width="6.17217" height="6.18562" fill="#205C8C" stroke="white" stroke-width="0.72"/>
<rect x="97.9187" y="69.7633" width="6.17217" height="6.18562" fill="#205C8C" stroke="white" stroke-width="0.72"/>
<rect x="104.091" y="69.7633" width="6.17217" height="6.18562" fill="#205C8C" stroke="white" stroke-width="0.72"/>
<rect x="110.263" y="69.7633" width="6.17217" height="6.18562" fill="#205C8C" stroke="white" stroke-width="0.72"/>
<rect x="116.435" y="69.7633" width="6.17217" height="6.18562" fill="#205C8C" stroke="white" stroke-width="0.72"/>
<rect x="122.607" y="69.7633" width="6.17217" height="6.18562" fill="#205C8C" stroke="white" stroke-width="0.72"/>
<rect x="128.78" y="69.7633" width="6.17217" height="6.18562" fill="#205C8C" stroke="white" stroke-width="0.72"/>
<rect x="134.952" y="69.7633" width="6.17217" height="6.18562" fill="#205C8C" stroke="white" stroke-width="0.72"/>
<rect x="141.124" y="69.7633" width="6.17217" height="6.18562" fill="#205C8C" stroke="white" stroke-width="0.72"/>
<rect x="147.296" y="69.7633" width="6.17217" height="6.18562" fill="#205C8C" stroke="white" stroke-width="0.72"/>
<rect x="153.468" y="69.7633" width="6.17217" height="6.18562" fill="#205C8C" stroke="white" stroke-width="0.72"/>
<rect x="159.64" y="69.7633" width="6.17217" height="6.18562" fill="#205C8C" stroke="white" stroke-width="0.72"/>
<rect x="165.813" y="69.7633" width="6.17217" height="6.18562" fill="#205C8C" stroke="white" stroke-width="0.72"/>
<rect x="171.985" y="69.7633" width="6.17217" height="6.18562" fill="#205C8C" stroke="white" stroke-width="0.72"/>
<rect x="178.157" y="69.7633" width="6.17217" height="6.18562" fill="#205C8C" stroke="white" stroke-width="0.72"/>
<rect x="184.329" y="69.7633" width="6.17217" height="6.18562" fill="#205C8C" stroke="white" stroke-width="0.72"/>
<rect x="190.501" y="69.7633" width="6.17217" height="6.18562" fill="#205C8C" stroke="white" stroke-width="0.72"/>
<rect x="97.9187" y="63.5776" width="6.17217" height="6.18562" fill="#205C8C" stroke="white" stroke-width="0.72"/>
<rect x="104.091" y="63.5776" width="6.17217" height="6.18562" fill="#205C8C" stroke="white" stroke-width="0.72"/>
<rect x="110.263" y="63.5776" width="6.17217" height="6.18562" fill="#205C8C" stroke="white" stroke-width="0.72"/>
<rect x="116.435" y="63.5776" width="6.17217" height="6.18562" fill="#205C8C" stroke="white" stroke-width="0.72"/>
<rect x="122.607" y="63.5776" width="6.17217" height="6.18562" fill="#205C8C" stroke="white" stroke-width="0.72"/>
<rect x="128.78" y="63.5776" width="6.17217" height="6.18562" fill="#205C8C" stroke="white" stroke-width="0.72"/>
<rect x="134.952" y="63.5776" width="6.17217" height="6.18562" fill="#205C8C" stroke="white" stroke-width="0.72"/>
<rect x="141.124" y="63.5776" width="6.17217" height="6.18562" fill="#205C8C" stroke="white" stroke-width="0.72"/>
<rect x="147.296" y="63.5776" width="6.17217" height="6.18562" fill="#205C8C" stroke="white" stroke-width="0.72"/>
<rect x="153.468" y="63.5776" width="6.17217" height="6.18562" fill="#205C8C" stroke="white" stroke-width="0.72"/>
<rect x="159.64" y="63.5776" width="6.17217" height="6.18562" fill="#205C8C" stroke="white" stroke-width="0.72"/>
<rect x="165.813" y="63.5776" width="6.17217" height="6.18562" fill="#205C8C" stroke="white" stroke-width="0.72"/>
<rect x="171.985" y="63.5776" width="6.17217" height="6.18562" fill="#205C8C" stroke="white" stroke-width="0.72"/>
<rect x="178.157" y="63.5776" width="6.17217" height="6.18562" fill="#205C8C" stroke="white" stroke-width="0.72"/>
<rect x="184.329" y="63.5776" width="6.17217" height="6.18562" fill="#205C8C" stroke="white" stroke-width="0.72"/>
<rect x="190.501" y="63.5776" width="6.17217" height="6.18562" fill="#205C8C" stroke="white" stroke-width="0.72"/>
<rect x="97.9187" y="57.3921" width="6.17217" height="6.18562" fill="#205C8C" stroke="white" stroke-width="0.72"/>
<rect x="104.091" y="57.392" width="6.17217" height="6.18562" fill="#205C8C" stroke="white" stroke-width="0.72"/>
<rect x="110.263" y="57.392" width="6.17217" height="6.18562" fill="#205C8C" stroke="white" stroke-width="0.72"/>
<rect x="116.435" y="57.392" width="6.17217" height="6.18562" fill="#205C8C" stroke="white" stroke-width="0.72"/>
<rect x="122.607" y="57.392" width="6.17217" height="6.18562" fill="#205C8C" stroke="white" stroke-width="0.72"/>
<rect x="128.78" y="57.392" width="6.17217" height="6.18562" fill="#205C8C" stroke="white" stroke-width="0.72"/>
<rect x="134.952" y="57.392" width="6.17217" height="6.18562" fill="#205C8C" stroke="white" stroke-width="0.72"/>
<rect x="141.124" y="57.392" width="6.17217" height="6.18562" fill="#205C8C" stroke="white" stroke-width="0.72"/>
<rect x="147.296" y="57.392" width="6.17217" height="6.18562" fill="#205C8C" stroke="white" stroke-width="0.72"/>
<rect x="153.468" y="57.392" width="6.17217" height="6.18562" fill="#205C8C" stroke="white" stroke-width="0.72"/>
<rect x="159.64" y="57.392" width="6.17217" height="6.18562" fill="#205C8C" stroke="white" stroke-width="0.72"/>
<rect x="165.813" y="57.392" width="6.17217" height="6.18562" fill="#205C8C" stroke="white" stroke-width="0.72"/>
<rect x="171.985" y="57.392" width="6.17217" height="6.18562" fill="#205C8C" stroke="white" stroke-width="0.72"/>
<rect x="178.157" y="57.392" width="6.17217" height="6.18562" fill="#205C8C" stroke="white" stroke-width="0.72"/>
<rect x="184.329" y="57.392" width="6.17217" height="6.18562" fill="#205C8C" stroke="white" stroke-width="0.72"/>
<rect x="190.501" y="57.392" width="6.17217" height="6.18562" fill="#205C8C" stroke="white" stroke-width="0.72"/>
</g>
</g>
</g>
<mask id="mask10" mask-type="alpha" maskUnits="userSpaceOnUse" x="189" y="87" width="2" height="5">
<path fill-rule="evenodd" clip-rule="evenodd" d="M190.135 87.7587H189.143V91.1975H190.135V87.7587Z" fill="white"/>
</mask>
<g mask="url(#mask10)">
<path fill-rule="evenodd" clip-rule="evenodd" d="M189.143 90.7018C189.143 90.9752 189.365 91.1975 189.639 91.1975C189.913 91.1975 190.135 90.9752 190.135 90.7018V88.2545C190.135 87.9803 189.913 87.7587 189.639 87.7587C189.365 87.7587 189.143 87.9803 189.143 88.2545V90.7018Z" fill="#FEA62C"/>
</g>
<path fill-rule="evenodd" clip-rule="evenodd" d="M189.639 91.8623H186.441V87.7585H189.639V91.8623Z" fill="#6293B8"/>
<path fill-rule="evenodd" clip-rule="evenodd" d="M130.496 69.6589H131.07V66.2319C131.07 65.6013 131.482 65.2804 131.727 65.1455L133.099 64.3903L132.822 63.887L131.45 64.6419C131.163 64.8001 130.496 65.2713 130.496 66.2319V69.6589Z" fill="#BAD9E9"/>
<path fill-rule="evenodd" clip-rule="evenodd" d="M116.445 110.036L116.795 110.094L118.431 100.299L118.08 100.24L116.445 110.036Z" fill="#80A8C6"/>
<path fill-rule="evenodd" clip-rule="evenodd" d="M118.029 110.012L118.364 109.892L115.043 100.533L114.709 100.652L118.029 110.012Z" fill="#BAD9E9"/>
<path fill-rule="evenodd" clip-rule="evenodd" d="M111.597 108.678L111.871 108.905L118.185 101.239L117.911 101.014L111.597 108.678Z" fill="#80A8C6"/>
<path fill-rule="evenodd" clip-rule="evenodd" d="M112.981 109.45L113.33 109.515L115.134 99.7484L114.785 99.6848L112.981 109.45Z" fill="#BAD9E9"/>
<path fill-rule="evenodd" clip-rule="evenodd" d="M108.076 105.08L108.201 105.412L117.502 101.932L117.378 101.598L108.076 105.08Z" fill="#80A8C6"/>
<path fill-rule="evenodd" clip-rule="evenodd" d="M108.889 106.44L109.16 106.671L115.605 99.1153L115.335 98.8846L108.889 106.44Z" fill="#BAD9E9"/>
<path fill-rule="evenodd" clip-rule="evenodd" d="M106.828 100.203L106.769 100.554L116.564 102.189L116.623 101.839L106.828 100.203Z" fill="#80A8C6"/>
<path fill-rule="evenodd" clip-rule="evenodd" d="M106.851 101.787L106.97 102.123L116.33 98.802L116.211 98.4669L106.851 101.787Z" fill="#BAD9E9"/>
<path fill-rule="evenodd" clip-rule="evenodd" d="M108.185 95.3546L107.958 95.6292L115.623 101.944L115.849 101.669L108.185 95.3546Z" fill="#80A8C6"/>
<path fill-rule="evenodd" clip-rule="evenodd" d="M107.413 96.7394L107.348 97.0883L117.114 98.8928L117.178 98.5442L107.413 96.7394Z" fill="#BAD9E9"/>
<path fill-rule="evenodd" clip-rule="evenodd" d="M111.783 91.8353L111.45 91.96L114.931 101.261L115.265 101.136L111.783 91.8353Z" fill="#80A8C6"/>
<path fill-rule="evenodd" clip-rule="evenodd" d="M110.422 92.6479L110.192 92.9181L117.747 99.3633L117.978 99.0939L110.422 92.6479Z" fill="#BAD9E9"/>
<path fill-rule="evenodd" clip-rule="evenodd" d="M116.66 90.587L116.309 90.5281L114.673 100.323L115.025 100.381L116.66 90.587Z" fill="#80A8C6"/>
<path fill-rule="evenodd" clip-rule="evenodd" d="M115.075 90.6097L114.741 90.7288L118.061 100.089L118.396 99.9691L115.075 90.6097Z" fill="#BAD9E9"/>
<path fill-rule="evenodd" clip-rule="evenodd" d="M121.508 91.9427L121.234 91.7172L114.92 99.3817L115.194 99.6072L121.508 91.9427Z" fill="#80A8C6"/>
<path fill-rule="evenodd" clip-rule="evenodd" d="M120.123 91.1716L119.774 91.1067L117.97 100.872L118.318 100.937L120.123 91.1716Z" fill="#80A8C6"/>
<path fill-rule="evenodd" clip-rule="evenodd" d="M125.028 95.542L124.903 95.2089L115.602 98.6901L115.726 99.0224L125.028 95.542Z" fill="#80A8C6"/>
<path fill-rule="evenodd" clip-rule="evenodd" d="M124.215 94.1813L123.945 93.9514L117.499 101.506L117.769 101.737L124.215 94.1813Z" fill="#BAD9E9"/>
<path fill-rule="evenodd" clip-rule="evenodd" d="M126.277 100.419L126.335 100.068L116.54 98.4321L116.481 98.7831L126.277 100.419Z" fill="#80A8C6"/>
<path fill-rule="evenodd" clip-rule="evenodd" d="M126.253 98.8342L126.134 98.4995L116.775 101.82L116.893 102.155L126.253 98.8342Z" fill="#BAD9E9"/>
<path fill-rule="evenodd" clip-rule="evenodd" d="M124.92 105.267L125.146 104.992L117.481 98.6774L117.256 98.952L124.92 105.267Z" fill="#80A8C6"/>
<path fill-rule="evenodd" clip-rule="evenodd" d="M125.691 103.882L125.756 103.533L115.991 101.729L115.926 102.078L125.691 103.882Z" fill="#BAD9E9"/>
<path fill-rule="evenodd" clip-rule="evenodd" d="M121.321 108.786L121.654 108.661L118.173 99.3608L117.84 99.4851L121.321 108.786Z" fill="#80A8C6"/>
<path fill-rule="evenodd" clip-rule="evenodd" d="M122.682 107.974L122.912 107.704L115.357 101.258L115.126 101.528L122.682 107.974Z" fill="#BAD9E9"/>
<path fill-rule="evenodd" clip-rule="evenodd" d="M172.304 110.036L172.654 110.094L174.29 100.299L173.94 100.24L172.304 110.036Z" fill="#80A8C6"/>
<path fill-rule="evenodd" clip-rule="evenodd" d="M173.888 110.012L174.223 109.892L170.903 100.533L170.568 100.652L173.888 110.012Z" fill="#BAD9E9"/>
<path fill-rule="evenodd" clip-rule="evenodd" d="M167.456 108.678L167.73 108.905L174.044 101.239L173.77 101.014L167.456 108.678Z" fill="#80A8C6"/>
<path fill-rule="evenodd" clip-rule="evenodd" d="M168.839 109.45L169.189 109.515L170.994 99.7484L170.644 99.6848L168.839 109.45Z" fill="#BAD9E9"/>
<path fill-rule="evenodd" clip-rule="evenodd" d="M163.936 105.08L164.06 105.412L173.36 101.932L173.237 101.598L163.936 105.08Z" fill="#BAD9E9"/>
<path fill-rule="evenodd" clip-rule="evenodd" d="M164.748 106.44L165.019 106.671L171.464 99.1153L171.194 98.8846L164.748 106.44Z" fill="#BAD9E9"/>
<path fill-rule="evenodd" clip-rule="evenodd" d="M162.687 100.203L162.628 100.554L172.423 102.189L172.482 101.839L162.687 100.203Z" fill="#BAD9E9"/>
<path fill-rule="evenodd" clip-rule="evenodd" d="M162.71 101.787L162.829 102.123L172.188 98.802L172.069 98.4669L162.71 101.787Z" fill="#BAD9E9"/>
<path fill-rule="evenodd" clip-rule="evenodd" d="M164.043 95.3546L163.817 95.6292L171.482 101.944L171.708 101.669L164.043 95.3546Z" fill="#80A8C6"/>
<path fill-rule="evenodd" clip-rule="evenodd" d="M163.271 96.7394L163.207 97.0883L172.972 98.8928L173.037 98.5442L163.271 96.7394Z" fill="#BAD9E9"/>
<path fill-rule="evenodd" clip-rule="evenodd" d="M167.642 91.8353L167.309 91.96L170.79 101.261L171.122 101.136L167.642 91.8353Z" fill="#BAD9E9"/>
<path fill-rule="evenodd" clip-rule="evenodd" d="M166.282 92.6479L166.051 92.9181L173.606 99.3633L173.836 99.0939L166.282 92.6479Z" fill="#BAD9E9"/>
<path fill-rule="evenodd" clip-rule="evenodd" d="M172.519 90.587L172.169 90.5281L170.533 100.323L170.883 100.381L172.519 90.587Z" fill="#80A8C6"/>
<path fill-rule="evenodd" clip-rule="evenodd" d="M170.934 90.6097L170.599 90.7288L173.919 100.089L174.255 99.9691L170.934 90.6097Z" fill="#BAD9E9"/>
<path fill-rule="evenodd" clip-rule="evenodd" d="M177.367 91.9427L177.093 91.7172L170.778 99.3817L171.052 99.6072L177.367 91.9427Z" fill="#80A8C6"/>
<path fill-rule="evenodd" clip-rule="evenodd" d="M175.983 91.1716L175.634 91.1067L173.829 100.872L174.178 100.937L175.983 91.1716Z" fill="#BAD9E9"/>
<path fill-rule="evenodd" clip-rule="evenodd" d="M180.886 95.542L180.763 95.2089L171.462 98.6901L171.586 99.0224L180.886 95.542Z" fill="#80A8C6"/>
<path fill-rule="evenodd" clip-rule="evenodd" d="M180.074 94.1813L179.804 93.9514L173.358 101.506L173.628 101.737L180.074 94.1813Z" fill="#BAD9E9"/>
<path fill-rule="evenodd" clip-rule="evenodd" d="M182.136 100.419L182.194 100.068L172.399 98.4321L172.34 98.7831L182.136 100.419Z" fill="#80A8C6"/>
<path fill-rule="evenodd" clip-rule="evenodd" d="M182.112 98.8342L181.994 98.4995L172.633 101.82L172.752 102.155L182.112 98.8342Z" fill="#BAD9E9"/>
<path fill-rule="evenodd" clip-rule="evenodd" d="M180.779 105.267L181.004 104.992L173.34 98.6774L173.114 98.952L180.779 105.267Z" fill="#80A8C6"/>
<path fill-rule="evenodd" clip-rule="evenodd" d="M181.55 103.882L181.615 103.533L171.85 101.729L171.784 102.078L181.55 103.882Z" fill="#BAD9E9"/>
<path fill-rule="evenodd" clip-rule="evenodd" d="M177.18 108.786L177.513 108.661L174.032 99.3608L173.699 99.4851L177.18 108.786Z" fill="#80A8C6"/>
<path fill-rule="evenodd" clip-rule="evenodd" d="M178.54 107.974L178.771 107.704L171.216 101.258L170.985 101.528L178.54 107.974Z" fill="#BAD9E9"/>
<path fill-rule="evenodd" clip-rule="evenodd" d="M116.552 109.798C121.792 109.798 126.04 105.551 126.04 100.311C126.04 95.0709 121.792 90.8242 116.552 90.8242C111.312 90.8242 107.065 95.0709 107.065 100.311C107.065 105.551 111.312 109.798 116.552 109.798ZM116.552 89.6243C122.454 89.6243 127.239 94.4091 127.239 100.311C127.239 106.213 122.454 110.997 116.552 110.997C110.65 110.997 105.865 106.213 105.865 100.311C105.865 94.4091 110.65 89.6243 116.552 89.6243Z" fill="#739FC0"/>
<path fill-rule="evenodd" clip-rule="evenodd" d="M116.552 110.454C122.155 110.454 126.696 105.913 126.696 100.311C126.696 94.7082 122.155 90.1668 116.552 90.1668C110.95 90.1668 106.409 94.7082 106.409 100.311C106.409 105.913 110.95 110.454 116.552 110.454ZM116.552 87.3056C123.733 87.3056 129.556 93.1289 129.556 100.311C129.556 107.492 123.733 113.315 116.552 113.315C109.37 113.315 103.548 107.492 103.548 100.311C103.548 93.1289 109.37 87.3056 116.552 87.3056Z" fill="#12406D"/>
<path fill-rule="evenodd" clip-rule="evenodd" d="M111.65 100.311C111.65 103.018 113.845 105.214 116.552 105.214C119.26 105.214 121.454 103.018 121.454 100.311C121.454 97.6027 119.26 95.4085 116.552 95.4085C113.845 95.4085 111.65 97.6027 111.65 100.311Z" fill="#739FC0"/>
<path fill-rule="evenodd" clip-rule="evenodd" d="M118.685 95.8955C120.324 96.6887 121.454 98.3674 121.454 100.311C121.454 102.365 120.191 104.123 118.398 104.852L115.504 101.958L118.685 95.8955Z" fill="#4D84AE"/>
<path fill-rule="evenodd" clip-rule="evenodd" d="M126.695 100.311C126.695 96.2513 124.31 92.7492 120.865 91.1275L122.095 88.5444C126.505 90.6254 129.556 95.1107 129.556 100.311C129.556 104.587 127.492 108.381 124.304 110.753L122.254 108.702C124.935 106.876 126.695 103.799 126.695 100.311Z" fill="#12406D"/>
<path fill-rule="evenodd" clip-rule="evenodd" d="M172.411 109.798C177.651 109.798 181.899 105.551 181.899 100.311C181.899 95.0709 177.651 90.8242 172.411 90.8242C167.172 90.8242 162.924 95.0709 162.924 100.311C162.924 105.551 167.172 109.798 172.411 109.798ZM172.411 89.6243C178.313 89.6243 183.098 94.4091 183.098 100.311C183.098 106.213 178.313 110.997 172.411 110.997C166.509 110.997 161.724 106.213 161.724 100.311C161.724 94.4091 166.509 89.6243 172.411 89.6243Z" fill="#739FC0"/>
<path fill-rule="evenodd" clip-rule="evenodd" d="M172.411 110.454C178.013 110.454 182.554 105.913 182.554 100.311C182.554 94.7082 178.013 90.1668 172.411 90.1668C166.809 90.1668 162.267 94.7082 162.267 100.311C162.267 105.913 166.809 110.454 172.411 110.454ZM172.411 87.3056C179.593 87.3056 185.415 93.1289 185.415 100.311C185.415 107.492 179.593 113.315 172.411 113.315C165.229 113.315 159.406 107.492 159.406 100.311C159.406 93.1289 165.229 87.3056 172.411 87.3056Z" fill="#12406D"/>
<path fill-rule="evenodd" clip-rule="evenodd" d="M167.86 100.311C167.86 102.825 169.897 104.862 172.411 104.862C174.925 104.862 176.962 102.825 176.962 100.311C176.962 97.797 174.925 95.7599 172.411 95.7599C169.897 95.7599 167.86 97.797 167.86 100.311Z" fill="#4D84AE"/>
<path fill-rule="evenodd" clip-rule="evenodd" d="M169.634 97.7629L171.568 96.6567L165.111 85.3765L163.178 86.4827L169.634 97.7629Z" fill="#12406D"/>
<path fill-rule="evenodd" clip-rule="evenodd" d="M170.303 97.3803L170.898 97.0389L171.993 98.9529L171.399 99.2936L170.303 97.3803Z" fill="#12406D"/>
<path fill-rule="evenodd" clip-rule="evenodd" d="M169.531 97.8227L171.671 96.597L171.931 97.0496L169.789 98.2745L169.531 97.8227Z" fill="#12406D"/>
<path fill-rule="evenodd" clip-rule="evenodd" d="M165.169 90.4097L167.488 89.0827L165.303 85.2665L162.986 86.5934L165.169 90.4097Z" fill="#80A8C6"/>
<path fill-rule="evenodd" clip-rule="evenodd" d="M127.745 83.7044L135.848 101.785H155.954C156.612 90.5417 162.791 85.0183 172.411 85.0183C178.341 85.0183 183.483 88.3942 186.02 93.3285C186.145 93.573 186.34 94.0561 187.049 94.0561H188.316C189.532 94.0561 189.639 93.1976 189.639 91.8623C186.515 85.5034 179.974 81.1261 172.411 81.1261H131.079L132.454 77.2217L128.828 75.5505L128.27 76.7829L124.487 76.1456L123.754 77.914L126.834 79.9531L125.617 82.641L127.745 83.7044Z" fill="#12406D"/>
<path fill-rule="evenodd" clip-rule="evenodd" d="M138.142 93.5492L144.512 90.6923V94.3392L139.947 95.6535L138.142 93.5492Z" fill="#BAD9E9"/>
<path fill-rule="evenodd" clip-rule="evenodd" d="M136.125 99.2553L137.432 98.6689L130.33 82.8343L129.022 83.421L136.125 99.2553Z" fill="#286B9E"/>
<path fill-rule="evenodd" clip-rule="evenodd" d="M130.585 71.9909C130.586 71.9886 130.711 71.6998 131.045 70.9489C131.219 70.5568 131.437 70.4828 131.779 70.4828H134.191V69.0518H131.779C130.575 69.0518 130.003 69.7671 129.737 70.3677C129.398 71.1285 129.272 71.4212 129.272 71.4212L130.585 71.9909Z" fill="#286B9E"/>
<path fill-rule="evenodd" clip-rule="evenodd" d="M139.467 97.3803C139.099 96.9783 138.875 96.4442 138.875 95.8571C138.875 94.6125 139.885 93.6024 141.13 93.6024H149.117V102.209H141.13V101.089L139.467 97.3803Z" fill="#4680AC"/>
<path fill-rule="evenodd" clip-rule="evenodd" d="M136.07 99.1339C135.842 98.6252 136.111 98.2094 136.668 98.2094H143.049C143.607 98.2094 144.249 98.6252 144.477 99.1339L145.357 101.097C145.585 101.605 145.316 102.021 144.759 102.021H138.377C137.82 102.021 137.178 101.605 136.95 101.097L136.07 99.1339Z" fill="#80A8C6"/>
<path fill-rule="evenodd" clip-rule="evenodd" d="M133.656 69.7682C133.656 70.1627 133.895 70.4831 134.192 70.4831C134.487 70.4831 134.727 70.1627 134.727 69.7682C134.727 69.373 134.487 69.0518 134.192 69.0518C133.895 69.0518 133.656 69.373 133.656 69.7682Z" fill="#2E577F"/>
<path fill-rule="evenodd" clip-rule="evenodd" d="M125.225 71.7908L127.408 73.8224L128.601 71.2678L126.834 70.3843L125.225 71.7908Z" fill="#2E577F"/>
<path fill-rule="evenodd" clip-rule="evenodd" d="M115.19 99.9801L117.668 101.137L131.079 72.425L128.601 71.2678L115.19 99.9801Z" fill="#BAD9E9"/>
<path fill-rule="evenodd" clip-rule="evenodd" d="M116.429 100.559L117.668 101.137L131.079 72.425L129.839 71.8466L116.429 100.559Z" fill="#92C1DB"/>
<path fill-rule="evenodd" clip-rule="evenodd" d="M127.908 71.6776L131.21 73.2189L131.586 72.4134L128.284 70.8713L127.908 71.6776Z" fill="#739FC0"/>
<path fill-rule="evenodd" clip-rule="evenodd" d="M124.495 71.4492C124.918 71.647 125.431 71.8876 125.918 72.1143C126.445 72.3603 126.866 72.0446 127.107 71.543C127.247 71.2494 127.709 70.2528 127.709 70.2528L124.694 68.844C124.694 68.844 124.332 69.5977 124.072 70.1769C123.811 70.7561 124.072 71.251 124.495 71.4492Z" fill="#739FC0"/>
<path fill-rule="evenodd" clip-rule="evenodd" d="M127.448 72.6613L130.75 74.2038L130.137 75.5169L126.834 73.974L127.448 72.6613Z" fill="#739FC0"/>
<path fill-rule="evenodd" clip-rule="evenodd" d="M123.072 82.0327L126.374 83.5744L126.851 82.5521L123.548 81.0096L123.072 82.0327Z" fill="#739FC0"/>
<path fill-rule="evenodd" clip-rule="evenodd" d="M114.627 100.311C114.627 101.374 115.489 102.236 116.552 102.236C117.616 102.236 118.477 101.374 118.477 100.311C118.477 99.2474 117.616 98.3853 116.552 98.3853C115.489 98.3853 114.627 99.2474 114.627 100.311Z" fill="#80A8C6"/>
<path fill-rule="evenodd" clip-rule="evenodd" d="M122.726 72.8019C123.848 72.8019 125.336 74.2989 125.336 76.1453C125.336 77.9913 123.848 79.488 122.726 79.488H120.569V72.8019H122.726Z" fill="#BAD9E9"/>
<path fill-rule="evenodd" clip-rule="evenodd" d="M180.095 103.07H161.12V98.456H180.095V103.07Z" fill="#BAD9E9"/>
<path fill-rule="evenodd" clip-rule="evenodd" d="M180.095 102.463H161.12V99.9834H180.095V102.463Z" fill="#92C1DB"/>
<path fill-rule="evenodd" clip-rule="evenodd" d="M152.786 103.07H161.12V98.456L152.786 101.347V103.07Z" fill="#5398C3"/>
<path fill-rule="evenodd" clip-rule="evenodd" d="M136.784 103.07H152.786V101.347H136.784C136.021 101.347 135.795 101.132 135.58 100.651C135.348 100.13 135.054 99.4786 134.747 98.7985C134.105 97.375 133.377 95.7613 133.097 95.093C132.867 94.5447 132.489 93.2 133.952 92.5677L137.094 91.2131L136.401 89.6357L133.27 90.986C131.684 91.6709 130.523 93.4124 131.508 95.7593C131.798 96.4493 132.498 98.0033 133.177 99.5067C133.482 100.185 133.776 100.835 134.007 101.353C134.531 102.525 135.414 103.07 136.784 103.07Z" fill="#BAD9E9"/>
<path fill-rule="evenodd" clip-rule="evenodd" d="M160.111 88.4632C158.881 89.675 157.864 91.1108 157.066 92.7633C156.941 93.0193 156.688 93.549 155.877 93.549H152.13C151.522 93.549 151.143 93.2634 150.948 92.7866C150.84 92.5184 149.759 89.6738 148.826 87.2162H161.56C161.051 87.598 160.567 88.0134 160.111 88.4632Z" fill="#286B9E"/>
<path fill-rule="evenodd" clip-rule="evenodd" d="M172.411 82.7084V84.0048C168.038 84.0048 164.397 85.0841 161.56 87.2162H148.826C148.089 85.276 147.445 83.5776 147.445 83.5776L172.411 82.7084Z" fill="#2A537C"/>
<path fill-rule="evenodd" clip-rule="evenodd" d="M181.062 102.665L180.095 103.07V98.4558L181.062 98.8613V102.665Z" fill="#447EAB"/>
<path fill-rule="evenodd" clip-rule="evenodd" d="M155.954 90.1369H153.105C152.617 90.1369 152.307 89.8259 152.307 89.3006V84.4976H160.404C160.404 84.4976 160.49 85.0214 159.972 85.7423C159.918 85.8182 159.84 85.9262 159.744 86.0592C159.181 86.8421 158.001 88.4856 157.322 89.4287C157.018 89.8532 156.65 90.1369 155.954 90.1369Z" fill="#FFCB82"/>
<path fill-rule="evenodd" clip-rule="evenodd" d="M155.954 90.1369H153.105C152.617 90.1369 152.307 89.8259 152.307 89.3006V84.4976H160.404C160.404 84.4976 160.49 85.0214 159.972 85.7423C159.918 85.8182 159.84 85.9262 159.744 86.0592C159.181 86.8421 158.001 88.4856 157.322 89.4287C157.018 89.8532 156.65 90.1369 155.954 90.1369Z" fill="#5398C3"/>
<path fill-rule="evenodd" clip-rule="evenodd" d="M156.222 89.1571H153.867C153.464 89.1571 153.209 88.9007 153.209 88.4663V84.4977H159.899C159.899 84.4977 159.969 84.9306 159.542 85.526C159.497 85.5885 159.432 85.6783 159.353 85.7879C158.888 86.4347 157.913 87.7929 157.353 88.5723C157.101 88.9232 156.797 89.1571 156.222 89.1571Z" fill="#FFF3E0"/>
<path fill-rule="evenodd" clip-rule="evenodd" d="M150.45 97.7628H154.569L154.771 96.4315H150.45V97.7628Z" fill="#4680AC"/>
<path fill-rule="evenodd" clip-rule="evenodd" d="M145.622 97.0975C145.622 99.027 147.186 100.591 149.116 100.591C151.047 100.591 152.611 99.027 152.611 97.0975C152.611 95.1673 151.047 93.6025 149.116 93.6025C147.186 93.6025 145.622 95.1673 145.622 97.0975Z" fill="#BAD9E9"/>
<path fill-rule="evenodd" clip-rule="evenodd" d="M136.935 88.3682L142.047 86.0751L140.575 82.793L136.071 85.0864L136.935 88.3682Z" fill="#BAD9E9"/>
<path fill-rule="evenodd" clip-rule="evenodd" d="M138.142 93.5492L144.512 90.6916L142.375 85.9282L136.005 88.7851L138.142 93.5492Z" fill="#BAD9E9"/>
<path fill-rule="evenodd" clip-rule="evenodd" d="M138.142 93.5492L144.512 90.6923L144.345 90.3204L137.976 93.1773L138.142 93.5492Z" fill="#92C1DB"/>
<path fill-rule="evenodd" clip-rule="evenodd" d="M136.172 89.1571L142.542 86.2999L142.376 85.9284L136.005 88.7852L136.172 89.1571Z" fill="#92C1DB"/>
<path fill-rule="evenodd" clip-rule="evenodd" d="M156.054 79.6021H163.702C165.069 79.6021 165.829 78.1842 166.943 78.1842H177.072C177.815 78.1842 178.372 78.5695 178.508 79.3315C178.559 79.6199 178.648 80.1347 178.745 80.6905C178.906 81.6092 179.087 82.6398 179.149 82.9444C179.258 83.4852 178.652 83.7685 178.017 83.9968C176.848 84.4169 176.254 84.4976 175.444 84.4976H150.212V81.3662V78.727C151.61 79.4114 152.408 79.6021 156.054 79.6021Z" fill="#286B9E"/>
<path fill-rule="evenodd" clip-rule="evenodd" d="M163.955 81.3662H150.212V78.727C151.609 79.4114 152.408 79.6021 156.054 79.6021H163.702C165.069 79.6021 165.829 78.1842 166.944 78.1842H177.072C177.815 78.1842 178.372 78.5695 178.508 79.3315C178.559 79.6199 178.648 80.1347 178.745 80.6905H168.159C166.539 80.6905 165.588 81.3662 163.955 81.3662Z" fill="#4680AC"/>
<path fill-rule="evenodd" clip-rule="evenodd" d="M163.956 81.3662C165.588 81.3662 166.539 80.6905 168.159 80.6905H178.745C178.906 81.6091 179.087 82.6398 179.149 82.9444C179.258 83.4852 178.652 83.7685 178.017 83.9968C176.848 84.4169 176.254 84.4976 175.444 84.4976H150.212V81.3662H163.956Z" fill="#286B9E"/>
<path fill-rule="evenodd" clip-rule="evenodd" d="M142.816 95.8611C142.816 96.7917 142.06 97.5457 141.13 97.5457C140.2 97.5457 139.445 96.7917 139.445 95.8611C139.445 94.9306 140.2 94.1769 141.13 94.1769C142.06 94.1769 142.816 94.9306 142.816 95.8611Z" fill="#92C1DB"/>
<path fill-rule="evenodd" clip-rule="evenodd" d="M149.844 78.5273C148.755 78.0134 147.262 77.3103 146.382 76.8969C144.971 76.233 143.427 75.8544 141.638 75.8544H134.455C132.1 75.8544 131.287 76.5246 130.879 77.3962C130.274 78.6776 129.47 80.3962 129.175 81.0542C128.681 82.1596 128.769 83.3619 129.095 83.8861C129.245 84.1286 129.563 84.641 129.86 85.1228C130.208 85.6838 130.867 86.2029 133.264 86.2029H146.251C149.398 86.2029 151.193 85.6284 151.193 84.2109V80.6653C151.193 79.425 150.62 78.8937 149.844 78.5273Z" fill="#E3F0F5"/>
<path fill-rule="evenodd" clip-rule="evenodd" d="M151.193 82.2924V84.2112C151.193 85.6287 149.398 86.2031 146.251 86.2031H133.264C130.868 86.2031 130.208 85.6837 129.86 85.1227C129.563 84.6412 129.245 84.1289 129.095 83.886C128.891 83.5572 128.781 82.9622 128.848 82.2924H151.193Z" fill="#5398C3"/>
<path fill-rule="evenodd" clip-rule="evenodd" d="M146.251 84.1766C147.575 84.1766 148.355 84.0607 148.776 83.9633C149.1 83.889 149.166 83.6235 149.166 83.413L149.167 82.0584C149.167 81.6671 148.658 81.3245 148.078 81.3245H144.512C143.125 81.3245 142.229 80.593 142.229 79.4619C142.229 78.4716 141.035 77.8806 139.882 77.8806H134.455C133.869 77.8806 132.846 77.9712 132.558 78.5828C131.75 80.303 131.262 81.3506 131.025 81.8808C130.78 82.4271 130.823 82.8295 130.934 83.0075L131.058 83.2073C131.216 83.4605 131.336 83.652 131.504 83.9281C131.54 83.9867 131.771 84.1766 133.264 84.1766H146.251Z" fill="#BAD9E9"/>
<path fill-rule="evenodd" clip-rule="evenodd" d="M122.726 76.1452H120.972V72.8018H122.726V76.1452Z" fill="#E3F0F5"/>
<path fill-rule="evenodd" clip-rule="evenodd" d="M132.701 63.8009C132.701 64.9194 133.608 65.8266 134.727 65.8266C135.845 65.8266 136.043 64.9194 136.043 63.8009C136.043 62.6821 135.845 61.7753 134.727 61.7753C133.608 61.7753 132.701 62.6821 132.701 63.8009Z" fill="#12406D"/>
<rect x="137.865" y="50.9728" width="20.1787" height="2.52784" rx="0.795281" fill="#5398C3"/>
<rect x="160.566" y="50.9728" width="2.52234" height="2.52784" rx="0.795281" fill="#BAD9E9"/>
<rect x="105.074" y="166.933" width="85.7594" height="30.334" rx="3.18113" fill="white"/>
<rect x="110.119" y="171.989" width="20.1787" height="20.2227" rx="1.59056" fill="#5398C3"/>
<path d="M115.164 182.39L118.109 185.711C118.255 185.876 118.508 185.89 118.672 185.742L126.924 178.309" stroke="#FFF3E0" stroke-width="0.795281" stroke-linecap="round"/>
<rect x="135.342" y="174.517" width="50.4467" height="5.05567" fill="#BAD9E9"/>
<rect x="135.342" y="184.628" width="40.3574" height="5.05567" fill="#BAD9E9"/>
<rect x="105.074" y="128.874" width="85.7594" height="30.334" rx="3.18113" fill="white"/>
<rect x="110.119" y="133.93" width="20.1787" height="20.2227" rx="1.59056" fill="#5398C3"/>
<path d="M115.164 144.33L118.109 147.651C118.255 147.816 118.508 147.831 118.672 147.683L126.924 140.249" stroke="#FFF3E0" stroke-width="0.795281" stroke-linecap="round"/>
<rect x="135.342" y="136.457" width="50.4467" height="5.05567" fill="#BAD9E9"/>
<rect x="135.342" y="146.569" width="40.3574" height="5.05567" fill="#BAD9E9"/>
</g>
<path fill-rule="evenodd" clip-rule="evenodd" d="M183.891 226.984L192.599 250.326L191.023 250.914C188.415 251.886 187.09 254.789 188.063 257.397L191.869 267.599C193.175 271.099 195.61 274.064 198.789 276.025L205.894 280.408C207.166 281.192 208.14 282.378 208.662 283.778L212.185 293.222L245.239 280.891L243.128 275.233C242.255 272.893 241.577 270.484 241.1 268.032L240.582 265.369C240.105 262.915 239.427 260.505 238.553 258.163L232.92 243.064C231.967 240.507 229.197 238.93 226.594 239.748C223.817 240.622 222.373 243.628 223.377 246.32L222.303 243.439C221.349 240.882 218.579 239.305 215.976 240.123C213.2 240.997 211.755 244.003 212.759 246.695L211.585 243.547C210.631 240.99 207.862 239.412 205.259 240.231C202.482 241.104 201.038 244.11 202.042 246.802L193.235 223.193C192.231 220.502 189.171 219.176 186.501 220.334C183.997 221.421 182.937 224.427 183.891 226.984Z" fill="#FFE0B3"/>
<rect x="212.186" y="293.221" width="3.3597" height="35.2772" transform="rotate(-110.458 212.186 293.221)" fill="#FFCB82"/>
<path fill-rule="evenodd" clip-rule="evenodd" d="M247.398 281.878L253.27 297.617C253.594 298.487 253.152 299.454 252.283 299.778L219.231 312.109C218.362 312.433 217.394 311.991 217.07 311.122L211.198 295.383C210.874 294.514 211.316 293.546 212.185 293.222L245.237 280.891C246.106 280.567 247.074 281.009 247.398 281.878Z" fill="url(#paint9_linear)"/>
<circle cx="242.465" cy="292.683" r="3.3597" transform="rotate(-110.458 242.465 292.683)" fill="white"/>
<defs>
<linearGradient id="paint0_linear" x1="299.074" y1="241.379" x2="46.3034" y2="241.379" gradientUnits="userSpaceOnUse">
<stop stop-color="#C4CFDB"/>
<stop offset="0.468384" stop-color="#8BA1B7"/>
<stop offset="1" stop-color="#63819F"/>
</linearGradient>
<linearGradient id="paint1_linear" x1="279.378" y1="189.392" x2="205.467" y2="244.883" gradientUnits="userSpaceOnUse">
<stop stop-color="#6DA8CA"/>
<stop offset="1" stop-color="#5297C3"/>
</linearGradient>
<linearGradient id="paint2_linear" x1="223.184" y1="121.705" x2="224.459" y2="249.772" gradientUnits="userSpaceOnUse">
<stop stop-color="#BAD8E8"/>
<stop offset="1" stop-color="#1F5B8C"/>
</linearGradient>
<linearGradient id="paint3_linear" x1="306.524" y1="222.028" x2="301.824" y2="256.356" gradientUnits="userSpaceOnUse">
<stop stop-color="#BAD8E8"/>
<stop offset="1" stop-color="#1F5B8C"/>
</linearGradient>
<linearGradient id="paint4_linear" x1="52.0734" y1="202.562" x2="111.202" y2="246.955" gradientUnits="userSpaceOnUse">
<stop stop-color="#6DA8CA"/>
<stop offset="1" stop-color="#5297C3"/>
</linearGradient>
<linearGradient id="paint5_linear" x1="97.0282" y1="148.413" x2="96.0081" y2="250.866" gradientUnits="userSpaceOnUse">
<stop stop-color="#BAD8E8"/>
<stop offset="1" stop-color="#1F5B8C"/>
</linearGradient>
<linearGradient id="paint6_linear" x1="30.3563" y1="228.671" x2="34.1161" y2="256.134" gradientUnits="userSpaceOnUse">
<stop stop-color="#BAD8E8"/>
<stop offset="1" stop-color="#1F5B8C"/>
</linearGradient>
<linearGradient id="paint7_linear" x1="198.401" y1="-51.8819" x2="18.5171" y2="-51.8819" gradientUnits="userSpaceOnUse">
<stop stop-color="#4395C0"/>
<stop offset="1" stop-color="#205C8C"/>
</linearGradient>
<linearGradient id="paint8_linear" x1="104.594" y1="235.153" x2="190.35" y2="235.153" gradientUnits="userSpaceOnUse">
<stop stop-color="#FB9E13"/>
<stop offset="1" stop-color="#FD852B"/>
</linearGradient>
<linearGradient id="paint9_linear" x1="242.18" y1="271.964" x2="174.61" y2="301.926" gradientUnits="userSpaceOnUse">
<stop stop-color="#648EAF"/>
<stop offset="1" stop-color="#346B95"/>
</linearGradient>
</defs>
</svg>
