<svg width="358" height="324" viewBox="0 0 358 324" fill="none" xmlns="http://www.w3.org/2000/svg">
<mask id="mask0" mask-type="alpha" maskUnits="userSpaceOnUse" x="0" y="0" width="358" height="324">
<path fill-rule="evenodd" clip-rule="evenodd" d="M299.744 27.5C351.73 55.1069 377.244 124.185 338.943 169.975C300.643 215.765 351.374 265.962 311.808 298.782C288.501 318.115 275.134 324.768 238.145 323C201.156 321.232 185.235 305.12 161.147 298.782C137.06 292.444 67.1766 320.197 29.7437 264.5C-7.68929 208.803 -5.2516 162.77 12.2437 119.5C29.7389 76.2304 47.4172 82.4515 94.2436 55.1854C141.07 27.9193 110.244 20.3147 172.244 0C211.232 0.871372 247.757 -0.106977 299.744 27.5Z" fill="white"/>
</mask>
<g mask="url(#mask0)">
<path opacity="0.1" fill-rule="evenodd" clip-rule="evenodd" d="M326.188 26.9405C389.07 44.0819 367.769 128.881 367.769 191.568C367.769 254.256 396.466 319.286 257.587 329.001C217.584 327.088 200.365 309.657 174.315 302.8C148.265 295.944 80.3757 331.446 39.8928 271.189C-0.590195 210.932 -10.3999 136.385 8.52092 89.5722C27.4417 42.7599 66.2002 45.8379 116.842 16.3393C167.484 -13.1592 162.045 -17.8327 204.21 -16.89C246.376 -15.9473 263.306 9.79908 326.188 26.9405Z" fill="url(#paint0_linear)"/>
<g opacity="0.5">
<mask id="mask1" mask-type="alpha" maskUnits="userSpaceOnUse" x="163" y="185" width="57" height="5">
<path fill-rule="evenodd" clip-rule="evenodd" d="M219.83 185.841H163.164V189.302H219.83V185.841Z" fill="white"/>
</mask>
<g mask="url(#mask1)">
<path fill-rule="evenodd" clip-rule="evenodd" d="M163.164 187.571C163.164 188.527 175.849 189.302 191.497 189.302C207.145 189.302 219.83 188.527 219.83 187.571C219.83 186.616 207.145 185.841 191.497 185.841C175.849 185.841 163.164 186.616 163.164 187.571Z" fill="#A9CEE3"/>
</g>
<mask id="mask2" mask-type="alpha" maskUnits="userSpaceOnUse" x="176" y="147" width="24" height="41">
<path fill-rule="evenodd" clip-rule="evenodd" d="M194.807 176.847C187.932 191.591 180.199 187.223 180.199 187.223C180.199 187.223 171.882 184.108 178.757 169.364C185.631 154.62 198.804 147.321 198.804 147.321C198.804 147.321 201.681 162.103 194.807 176.847Z" fill="white"/>
</mask>
<g mask="url(#mask2)">
<path fill-rule="evenodd" clip-rule="evenodd" d="M194.807 176.847C187.932 191.591 180.199 187.223 180.199 187.223C180.199 187.223 171.882 184.108 178.757 169.364C185.631 154.62 198.804 147.321 198.804 147.321C198.804 147.321 201.681 162.103 194.807 176.847Z" fill="url(#paint1_linear)"/>
</g>
<path fill-rule="evenodd" clip-rule="evenodd" d="M180.119 187.394C180.181 187.423 180.254 187.396 180.283 187.335L197.235 150.977C197.263 150.915 197.237 150.842 197.175 150.813C197.113 150.785 197.04 150.811 197.012 150.873L180.06 187.231C180.031 187.293 180.058 187.366 180.119 187.394Z" fill="white"/>
<path fill-rule="evenodd" clip-rule="evenodd" d="M192.959 159.746C192.929 159.714 190.608 157.189 189.889 154.157C189.958 154.093 190.027 154.027 190.095 153.963C190.755 156.985 193.109 159.546 193.139 159.578L192.959 159.746Z" fill="white"/>
<path fill-rule="evenodd" clip-rule="evenodd" d="M196.129 152.95C196.109 152.929 195.169 151.906 194.3 150.387C194.365 150.337 194.43 150.287 194.495 150.238C195.352 151.742 196.289 152.761 196.308 152.782L196.129 152.95Z" fill="white"/>
<path fill-rule="evenodd" clip-rule="evenodd" d="M191.292 163.322C191.256 163.283 188.237 160.001 187.757 156.29C187.831 156.212 187.905 156.135 187.979 156.058C188.357 159.765 191.436 163.115 191.472 163.154L191.292 163.322Z" fill="white"/>
<path fill-rule="evenodd" clip-rule="evenodd" d="M184.103 178.74C184.052 178.684 179.669 173.921 179.116 168.612C179.185 168.47 179.256 168.329 179.327 168.188C179.678 173.566 184.231 178.516 184.283 178.572L184.103 178.74Z" fill="white"/>
<path fill-rule="evenodd" clip-rule="evenodd" d="M181.626 184.273L181.446 184.441C181.397 184.388 177.531 180.186 176.601 175.279C176.649 175.088 176.7 174.894 176.753 174.697C177.468 179.752 181.576 184.22 181.626 184.273Z" fill="white"/>
<path fill-rule="evenodd" clip-rule="evenodd" d="M188.52 169.362C188.475 169.313 184.837 165.359 183.974 160.747C184.041 160.659 184.108 160.572 184.176 160.485C184.945 165.111 188.655 169.145 188.7 169.194L188.52 169.362Z" fill="white"/>
<path fill-rule="evenodd" clip-rule="evenodd" d="M199.39 156.261C196.905 157.122 194.358 157.007 194.32 157.005L194.333 156.759C194.371 156.761 196.936 156.876 199.394 156.001C199.393 156.087 199.391 156.174 199.39 156.261Z" fill="white"/>
<path fill-rule="evenodd" clip-rule="evenodd" d="M192.279 161.383L192.291 161.137C192.341 161.139 196.198 161.313 199.215 159.707C199.207 159.803 199.199 159.9 199.191 159.997C196.128 161.558 192.328 161.386 192.279 161.383Z" fill="white"/>
<path fill-rule="evenodd" clip-rule="evenodd" d="M185.922 175.017L185.935 174.771C186.009 174.775 192.334 175.063 196.68 172.168C196.638 172.293 196.595 172.418 196.552 172.543C192.146 175.3 185.996 175.02 185.922 175.017Z" fill="white"/>
<path fill-rule="evenodd" clip-rule="evenodd" d="M182.359 182.441C182.435 182.445 189.005 182.743 193.353 179.667C193.259 179.832 193.165 179.994 193.071 180.153C188.659 182.975 182.42 182.69 182.346 182.686L182.359 182.441Z" fill="white"/>
<path fill-rule="evenodd" clip-rule="evenodd" d="M198.472 165.284C198.454 165.384 198.434 165.486 198.414 165.587C194.414 167.572 189.518 167.348 189.455 167.345L189.468 167.1C189.531 167.103 194.509 167.329 198.472 165.284Z" fill="white"/>
<mask id="mask3" mask-type="alpha" maskUnits="userSpaceOnUse" x="165" y="135" width="22" height="53">
<path fill-rule="evenodd" clip-rule="evenodd" d="M186.588 168.921C186.737 188.346 176.158 187.602 176.158 187.602C176.158 187.602 165.591 188.508 165.442 169.083C165.293 149.658 175.755 135.03 175.755 135.03C175.755 135.03 186.439 149.495 186.588 168.921Z" fill="white"/>
</mask>
<g mask="url(#mask3)">
<path fill-rule="evenodd" clip-rule="evenodd" d="M186.588 168.921C186.737 188.346 176.158 187.602 176.158 187.602C176.158 187.602 165.591 188.508 165.442 169.083C165.293 149.658 175.755 135.03 175.755 135.03C175.755 135.03 186.439 149.495 186.588 168.921Z" fill="url(#paint2_linear)"/>
</g>
<path fill-rule="evenodd" clip-rule="evenodd" d="M176.159 187.828C176.078 187.828 176.012 187.764 176.011 187.682L175.644 139.78C175.643 139.699 175.709 139.633 175.79 139.632C175.871 139.632 175.937 139.696 175.938 139.778L176.305 187.68C176.305 187.761 176.241 187.827 176.159 187.828Z" fill="white"/>
<path fill-rule="evenodd" clip-rule="evenodd" d="M175.935 151.426C175.984 151.406 179.758 149.816 182.044 146.88C182.001 146.776 181.959 146.67 181.916 146.567C179.7 149.521 175.872 151.134 175.823 151.155L175.935 151.426Z" fill="white"/>
<path fill-rule="evenodd" clip-rule="evenodd" d="M175.867 142.471C175.898 142.459 177.427 141.814 179.125 140.596C179.078 140.509 179.032 140.423 178.987 140.338C177.309 141.545 175.786 142.188 175.755 142.2L175.867 142.471Z" fill="white"/>
<path fill-rule="evenodd" clip-rule="evenodd" d="M175.971 156.137C176.03 156.113 180.939 154.047 183.301 150.255C183.259 150.133 183.217 150.013 183.175 149.892C180.925 153.73 175.918 155.841 175.859 155.866L175.971 156.137Z" fill="white"/>
<path fill-rule="evenodd" clip-rule="evenodd" d="M176.127 176.451C176.21 176.416 183.335 173.418 186.57 167.926C186.566 167.737 186.559 167.549 186.552 167.361C183.501 173.027 176.099 176.144 176.015 176.18L176.127 176.451Z" fill="white"/>
<path fill-rule="evenodd" clip-rule="evenodd" d="M176.073 183.69L176.185 183.961C176.263 183.929 182.548 181.283 185.993 176.415C186.036 176.184 186.078 175.949 186.117 175.708C182.832 180.844 176.153 183.657 176.073 183.69Z" fill="white"/>
<path fill-rule="evenodd" clip-rule="evenodd" d="M175.984 164.073C176.058 164.043 181.971 161.554 185.197 156.973C185.168 156.844 185.138 156.716 185.109 156.587C181.977 161.231 175.946 163.772 175.872 163.802L175.984 164.073Z" fill="white"/>
<path fill-rule="evenodd" clip-rule="evenodd" d="M170.681 144.45C172.953 146.618 175.776 147.757 175.818 147.774L175.927 147.501C175.884 147.484 173.041 146.336 170.805 144.165C170.764 144.259 170.723 144.355 170.681 144.45Z" fill="white"/>
<path fill-rule="evenodd" clip-rule="evenodd" d="M175.862 153.542L175.971 153.268C175.916 153.247 171.641 151.521 169.161 148.28C169.122 148.388 169.082 148.496 169.043 148.606C171.594 151.822 175.808 153.52 175.862 153.542Z" fill="white"/>
<path fill-rule="evenodd" clip-rule="evenodd" d="M176 171.504L176.108 171.231C176.026 171.199 169.012 168.372 165.729 163.072C165.713 163.228 165.698 163.385 165.683 163.542C169.1 168.723 175.918 171.472 176 171.504Z" fill="white"/>
<path fill-rule="evenodd" clip-rule="evenodd" d="M176.185 181.336C176.101 181.303 168.817 178.366 165.621 172.867C165.641 173.093 165.663 173.316 165.686 173.535C169.078 178.79 175.995 181.577 176.078 181.609L176.185 181.336Z" fill="white"/>
<path fill-rule="evenodd" clip-rule="evenodd" d="M167.199 154.705C167.17 154.823 167.141 154.943 167.112 155.062C170.471 159.203 175.9 161.391 175.971 161.419L176.078 161.146C176.008 161.118 170.489 158.893 167.199 154.705Z" fill="white"/>
<mask id="mask4" mask-type="alpha" maskUnits="userSpaceOnUse" x="186" y="173" width="30" height="15">
<path fill-rule="evenodd" clip-rule="evenodd" d="M206.999 174.84C207.432 175.993 206.552 177.332 206.982 178.485C207.316 179.378 208.328 179.829 209.275 179.944C210.222 180.059 211.192 179.936 212.125 180.133C213.737 180.475 215.081 181.846 215.39 183.464C215.7 185.082 214.828 186.916 213.455 187.828H187.02C186.142 186.762 186.344 184.98 187.44 184.14C188.255 183.514 189.463 183.343 189.963 182.446C190.452 181.569 189.993 180.456 190.213 179.475C190.479 178.293 191.687 177.541 192.876 177.308C193.604 177.166 194.346 177.167 195.09 177.168C195.561 177.169 196.033 177.169 196.502 177.133C197.981 177.02 199.43 176.533 200.679 175.732C201.722 175.062 202.647 174.168 203.819 173.764C204.139 173.654 204.488 173.597 204.837 173.597C205.764 173.597 206.681 173.997 206.999 174.84Z" fill="white"/>
</mask>
<g mask="url(#mask4)">
<path fill-rule="evenodd" clip-rule="evenodd" d="M206.999 174.84C207.432 175.993 206.552 177.332 206.982 178.485C207.316 179.378 208.328 179.829 209.275 179.944C210.222 180.059 211.192 179.936 212.125 180.133C213.737 180.475 215.081 181.846 215.39 183.464C215.7 185.082 214.828 186.916 213.455 187.828H187.02C186.142 186.762 186.344 184.98 187.44 184.14C188.255 183.514 189.463 183.343 189.963 182.446C190.452 181.569 189.993 180.456 190.213 179.475C190.479 178.293 191.687 177.541 192.876 177.308C193.604 177.166 194.346 177.167 195.09 177.168C195.561 177.169 196.033 177.169 196.502 177.133C197.981 177.02 199.43 176.533 200.679 175.732C201.722 175.062 202.647 174.168 203.819 173.764C204.139 173.654 204.488 173.597 204.837 173.597C205.764 173.597 206.681 173.997 206.999 174.84Z" fill="url(#paint3_linear)"/>
</g>
<path fill-rule="evenodd" clip-rule="evenodd" d="M198.5 187.792C198.542 187.685 202.323 177.931 205.995 173.832C206.061 173.861 206.123 173.893 206.185 173.926C202.641 177.839 198.96 187.175 198.705 187.828H198.596L198.5 187.792Z" fill="white"/>
<path fill-rule="evenodd" clip-rule="evenodd" d="M215.125 182.618C211.383 184.992 205.779 185.39 202.449 185.39C200.803 185.39 199.712 185.293 199.677 185.29L199.696 185.087C199.801 185.097 209.513 185.96 215.037 182.434C215.067 182.495 215.098 182.556 215.125 182.618Z" fill="white"/>
<path fill-rule="evenodd" clip-rule="evenodd" d="M191.573 179.178C191.246 178.973 190.943 178.764 190.661 178.557C190.706 178.501 190.752 178.447 190.802 178.394C193.002 180.001 196.623 181.738 201.53 181.074L201.557 181.276C200.811 181.377 200.095 181.422 199.41 181.422C195.951 181.422 193.293 180.258 191.573 179.178Z" fill="white"/>
<path fill-rule="evenodd" clip-rule="evenodd" d="M186.547 185.578C188.525 185.724 193.47 185.575 196.706 181.036L196.872 181.154C194.005 185.177 189.821 185.814 187.456 185.814C187.093 185.814 186.775 185.799 186.509 185.779C186.52 185.712 186.532 185.645 186.547 185.578Z" fill="white"/>
<path fill-rule="evenodd" clip-rule="evenodd" d="M210.086 179.996C209.502 181.155 208.757 182.963 208.597 184.883L208.394 184.866C208.553 182.961 209.278 181.167 209.863 179.988C209.938 179.991 210.012 179.994 210.086 179.996Z" fill="white"/>
<path fill-rule="evenodd" clip-rule="evenodd" d="M202.625 174.362C202.695 174.318 202.764 174.275 202.835 174.233C202.927 175.856 203.662 177.334 203.674 177.359L203.493 177.451C203.443 177.353 202.744 175.948 202.625 174.362Z" fill="white"/>
<path fill-rule="evenodd" clip-rule="evenodd" d="M205.91 187.828H205.586C204.27 186.736 203.596 185.358 203.587 185.339L203.77 185.251C203.78 185.271 204.504 186.749 205.91 187.828Z" fill="white"/>
<path fill-rule="evenodd" clip-rule="evenodd" d="M207.556 179.268C206.016 179.966 204.767 180.158 203.865 180.158C202.836 180.158 202.257 179.911 202.206 179.888L202.289 179.702C202.311 179.712 204.217 180.515 207.391 179.116C207.443 179.169 207.498 179.22 207.556 179.268Z" fill="white"/>
<path fill-rule="evenodd" clip-rule="evenodd" d="M199.356 181.304C199.38 181.174 199.831 178.507 197.408 177.016C197.503 176.999 197.598 176.98 197.692 176.959C200.034 178.561 199.563 181.308 199.557 181.341L199.356 181.304Z" fill="white"/>
<path fill-rule="evenodd" clip-rule="evenodd" d="M194.948 183.077L195.131 182.986C195.148 183.02 196.669 186.144 195.028 187.828H194.73C196.512 186.289 194.965 183.11 194.948 183.077Z" fill="white"/>
<mask id="mask5" mask-type="alpha" maskUnits="userSpaceOnUse" x="-35" y="185" width="69" height="5">
<path fill-rule="evenodd" clip-rule="evenodd" d="M-34.3875 185.584H33.6114V189.737H-34.3875V185.584Z" fill="white"/>
</mask>
<g mask="url(#mask5)">
<path fill-rule="evenodd" clip-rule="evenodd" d="M33.6116 187.661C33.6116 188.807 18.3893 189.737 -0.387974 189.737C-19.1653 189.737 -34.3875 188.807 -34.3875 187.661C-34.3875 186.514 -19.1653 185.584 -0.387974 185.584C18.3893 185.584 33.6116 186.514 33.6116 187.661Z" fill="#A9CEE3"/>
</g>
<mask id="mask6" mask-type="alpha" maskUnits="userSpaceOnUse" x="-10" y="139" width="29" height="49">
<path fill-rule="evenodd" clip-rule="evenodd" d="M-4.35978 174.791C3.8898 192.484 13.1693 187.243 13.1693 187.243C13.1693 187.243 23.15 183.504 14.9004 165.811C6.65079 148.119 -9.15616 139.359 -9.15616 139.359C-9.15616 139.359 -12.6088 157.098 -4.35978 174.791Z" fill="white"/>
</mask>
<g mask="url(#mask6)">
<path fill-rule="evenodd" clip-rule="evenodd" d="M-4.35978 174.791C3.8898 192.484 13.1693 187.243 13.1693 187.243C13.1693 187.243 23.15 183.504 14.9004 165.811C6.65079 148.119 -9.15616 139.359 -9.15616 139.359C-9.15616 139.359 -12.6088 157.098 -4.35978 174.791Z" fill="url(#paint4_linear)"/>
</g>
<path fill-rule="evenodd" clip-rule="evenodd" d="M13.2652 187.448C13.1911 187.482 13.1034 187.451 13.0689 187.376L-7.27339 143.747C-7.30732 143.673 -7.276 143.586 -7.20187 143.551C-7.12775 143.517 -7.04005 143.548 -7.00559 143.622L13.3367 187.252C13.3712 187.326 13.3393 187.414 13.2652 187.448Z" fill="white"/>
<path fill-rule="evenodd" clip-rule="evenodd" d="M-2.14265 154.27C-2.10663 154.232 0.678906 151.202 1.54129 147.564C1.45881 147.486 1.37633 147.408 1.29438 147.331C0.501939 150.956 -2.32274 154.03 -2.35876 154.069L-2.14265 154.27Z" fill="white"/>
<path fill-rule="evenodd" clip-rule="evenodd" d="M-0.142463 158.561C-0.0991345 158.514 3.52425 154.576 4.09952 150.123C4.01078 150.029 3.92203 149.937 3.83329 149.844C3.37965 154.293 -0.314731 158.313 -0.358582 158.36L-0.142463 158.561Z" fill="white"/>
<path fill-rule="evenodd" clip-rule="evenodd" d="M8.48443 177.063C8.54603 176.996 13.806 171.28 14.4689 164.909C14.3859 164.738 14.3014 164.569 14.2158 164.401C13.7945 170.853 8.33095 176.794 8.26831 176.861L8.48443 177.063Z" fill="white"/>
<path fill-rule="evenodd" clip-rule="evenodd" d="M11.4576 183.702L11.6737 183.903C11.7316 183.841 16.3709 178.798 17.487 172.91C17.4301 172.681 17.369 172.448 17.3048 172.212C16.4471 178.278 11.5171 183.638 11.4576 183.702Z" fill="white"/>
<path fill-rule="evenodd" clip-rule="evenodd" d="M3.18422 165.809C3.23852 165.75 7.60422 161.006 8.6394 155.472C8.55953 155.366 8.47861 155.261 8.39718 155.156C7.47476 160.708 3.02292 165.549 2.96863 165.608L3.18422 165.809Z" fill="white"/>
<path fill-rule="evenodd" clip-rule="evenodd" d="M6.30217 172.595L6.28703 172.3C6.19776 172.304 -1.3925 172.651 -6.60754 169.177C-6.55691 169.326 -6.50523 169.476 -6.45355 169.626C-1.16646 172.935 6.21394 172.599 6.30217 172.595Z" fill="white"/>
<path fill-rule="evenodd" clip-rule="evenodd" d="M10.5781 181.504C10.4867 181.508 2.60202 181.866 -2.61511 178.175C-2.50288 178.374 -2.3896 178.568 -2.27632 178.758C3.01807 182.145 10.5039 181.803 10.5932 181.798L10.5781 181.504Z" fill="white"/>
<path fill-rule="evenodd" clip-rule="evenodd" d="M-8.7583 160.916C-8.73585 161.036 -8.71236 161.158 -8.68887 161.279C-3.88884 163.661 1.98656 163.393 2.06278 163.389L2.04712 163.094C1.9709 163.098 -4.00264 163.369 -8.7583 160.916Z" fill="white"/>
<mask id="mask7" mask-type="alpha" maskUnits="userSpaceOnUse" x="5" y="124" width="26" height="64">
<path fill-rule="evenodd" clip-rule="evenodd" d="M5.50346 165.28C5.32441 188.59 18.0196 187.698 18.0196 187.698C18.0196 187.698 30.6996 188.784 30.8786 165.474C31.0572 142.164 18.503 124.611 18.503 124.611C18.503 124.611 5.682 141.969 5.50346 165.28Z" fill="white"/>
</mask>
<g mask="url(#mask7)">
<path fill-rule="evenodd" clip-rule="evenodd" d="M5.50346 165.28C5.32441 188.59 18.0196 187.698 18.0196 187.698C18.0196 187.698 30.6996 188.784 30.8786 165.474C31.0572 142.164 18.503 124.611 18.503 124.611C18.503 124.611 5.682 141.969 5.50346 165.28Z" fill="url(#paint5_linear)"/>
</g>
<path fill-rule="evenodd" clip-rule="evenodd" d="M18.0178 187.968C18.1155 187.969 18.1948 187.891 18.1958 187.794L18.6359 130.311C18.637 130.214 18.5581 130.134 18.461 130.133C18.3634 130.133 18.2841 130.21 18.2835 130.308L17.843 187.79C17.8424 187.888 17.9202 187.967 18.0178 187.968Z" fill="white"/>
<path fill-rule="evenodd" clip-rule="evenodd" d="M18.2864 144.286C18.228 144.262 13.6989 142.354 10.9567 138.831C11.0078 138.705 11.0585 138.579 11.1096 138.455C13.7693 142 18.3627 143.936 18.4211 143.961L18.2864 144.286Z" fill="white"/>
<path fill-rule="evenodd" clip-rule="evenodd" d="M18.3684 133.541C18.3314 133.525 16.4959 132.751 14.459 131.29C14.5148 131.185 14.5702 131.082 14.625 130.98C16.6384 132.429 18.4661 133.2 18.5031 133.215L18.3684 133.541Z" fill="white"/>
<path fill-rule="evenodd" clip-rule="evenodd" d="M18.2431 149.939C18.1726 149.91 12.2826 147.431 9.448 142.881C9.49811 142.734 9.54875 142.59 9.59886 142.445C12.2993 147.051 18.3073 149.584 18.3778 149.614L18.2431 149.939Z" fill="white"/>
<path fill-rule="evenodd" clip-rule="evenodd" d="M18.0565 174.316C17.9562 174.274 9.40596 170.676 5.52417 164.085C5.52991 163.859 5.53826 163.633 5.54662 163.408C9.20707 170.208 18.0893 173.948 18.1911 173.99L18.0565 174.316Z" fill="white"/>
<path fill-rule="evenodd" clip-rule="evenodd" d="M18.1217 183.003L17.987 183.328C17.8935 183.29 10.3518 180.115 6.21738 174.273C6.16518 173.996 6.11559 173.713 6.0686 173.424C10.0104 179.587 18.0251 182.963 18.1217 183.003Z" fill="white"/>
<path fill-rule="evenodd" clip-rule="evenodd" d="M18.2272 159.462C18.139 159.426 11.0431 156.439 7.17175 150.943C7.20673 150.787 7.24275 150.634 7.27772 150.479C11.0358 156.052 18.2732 159.101 18.3619 159.137L18.2272 159.462Z" fill="white"/>
<path fill-rule="evenodd" clip-rule="evenodd" d="M24.5911 135.915C21.8656 138.516 18.4781 139.884 18.427 139.904L18.297 139.576C18.3482 139.556 21.7601 138.178 24.4428 135.573C24.4924 135.685 24.5415 135.8 24.5911 135.915Z" fill="white"/>
<path fill-rule="evenodd" clip-rule="evenodd" d="M18.3741 146.825L18.2441 146.497C18.3093 146.471 23.4398 144.4 26.4159 140.51C26.4629 140.64 26.5098 140.77 26.5568 140.902C23.4957 144.761 18.4393 146.799 18.3741 146.825Z" fill="white"/>
<path fill-rule="evenodd" clip-rule="evenodd" d="M18.2089 168.38L18.0795 168.052C18.1781 168.013 26.5942 164.622 30.534 158.261C30.5533 158.449 30.5716 158.637 30.5893 158.825C26.4893 165.043 18.3071 168.341 18.2089 168.38Z" fill="white"/>
<path fill-rule="evenodd" clip-rule="evenodd" d="M17.986 180.178C18.0873 180.138 26.8286 176.614 30.664 170.015C30.6394 170.287 30.6128 170.554 30.5851 170.817C26.5154 177.122 18.2147 180.467 18.1155 180.506L17.986 180.178Z" fill="white"/>
<path fill-rule="evenodd" clip-rule="evenodd" d="M28.7698 148.221C28.8053 148.363 28.8397 148.506 28.8747 148.649C24.8431 153.619 18.3292 156.244 18.2441 156.278L18.1147 155.95C18.1998 155.916 24.8222 153.247 28.7698 148.221Z" fill="white"/>
<mask id="mask8" mask-type="alpha" maskUnits="userSpaceOnUse" x="-30" y="170" width="36" height="18">
<path fill-rule="evenodd" clip-rule="evenodd" d="M-18.99 172.383C-19.5099 173.766 -18.4534 175.373 -18.9696 176.757C-19.37 177.829 -20.5853 178.37 -21.7212 178.507C-22.8572 178.645 -24.0223 178.498 -25.1416 178.734C-27.0757 179.145 -28.6882 180.79 -29.0594 182.731C-29.431 184.673 -28.3844 186.874 -26.7374 187.969H4.9851C6.03855 186.689 5.79529 184.551 4.4803 183.542C3.50307 182.791 2.05288 182.587 1.45359 181.511C0.866314 180.457 1.41705 179.122 1.15291 177.945C0.83395 176.526 -0.615719 175.624 -2.04242 175.345C-2.91577 175.174 -3.80686 175.176 -4.69901 175.176C-5.26436 175.177 -5.83128 175.178 -6.39351 175.135C-8.16892 174.998 -9.90779 174.415 -11.406 173.453C-12.6578 172.65 -13.7676 171.576 -15.174 171.091C-15.5577 170.959 -15.9774 170.891 -16.3955 170.891C-17.5085 170.891 -18.6089 171.371 -18.99 172.383Z" fill="white"/>
</mask>
<g mask="url(#mask8)">
<path fill-rule="evenodd" clip-rule="evenodd" d="M-18.99 172.383C-19.5099 173.766 -18.4534 175.373 -18.9696 176.757C-19.37 177.829 -20.5853 178.37 -21.7212 178.507C-22.8572 178.645 -24.0223 178.498 -25.1416 178.734C-27.0757 179.145 -28.6882 180.79 -29.0594 182.731C-29.431 184.673 -28.3844 186.874 -26.7374 187.969H4.9851C6.03855 186.689 5.79529 184.551 4.4803 183.542C3.50307 182.791 2.05288 182.587 1.45359 181.511C0.866314 180.457 1.41705 179.122 1.15291 177.945C0.83395 176.526 -0.615719 175.624 -2.04242 175.345C-2.91577 175.174 -3.80686 175.176 -4.69901 175.176C-5.26436 175.177 -5.83128 175.178 -6.39351 175.135C-8.16892 174.998 -9.90779 174.415 -11.406 173.453C-12.6578 172.65 -13.7676 171.576 -15.174 171.091C-15.5577 170.959 -15.9774 170.891 -16.3955 170.891C-17.5085 170.891 -18.6089 171.371 -18.99 172.383Z" fill="url(#paint6_linear)"/>
</g>
<path fill-rule="evenodd" clip-rule="evenodd" d="M-0.478597 177.589C-0.0865555 177.342 0.277297 177.092 0.615048 176.844C0.561802 176.776 0.505944 176.711 0.446433 176.648C-2.19345 178.576 -6.53932 180.66 -12.4278 179.864L-12.4601 180.106C-11.5638 180.227 -10.7051 180.282 -9.8829 180.282C-5.73227 180.282 -2.54321 178.885 -0.478597 177.589Z" fill="white"/>
<path fill-rule="evenodd" clip-rule="evenodd" d="M5.55166 185.269C3.17801 185.444 -2.75586 185.265 -6.63869 179.818L-6.83759 179.96C-3.39743 184.787 1.62394 185.552 4.46167 185.552C4.89652 185.552 5.27917 185.534 5.5976 185.51C5.58455 185.429 5.56993 185.348 5.55166 185.269Z" fill="white"/>
<path fill-rule="evenodd" clip-rule="evenodd" d="M128.749 100.738C124.444 107.733 123.675 116.87 127.387 124.263C128.665 126.807 139.597 123.85 141.399 122.93C152.867 117.08 156.531 103.094 150.435 92.1226C149.798 90.975 141.037 92.4773 139.804 92.771C136.023 93.6719 132.506 95.6172 130.123 98.7377C129.631 99.3814 129.173 100.049 128.749 100.738Z" fill="#92C1DB"/>
<path fill-rule="evenodd" clip-rule="evenodd" d="M128.101 125.119L128.103 125.121C128.144 125.149 128.201 125.139 128.229 125.097L150.101 92.9254C150.13 92.8838 150.119 92.8273 150.078 92.7977C150.036 92.769 149.98 92.7796 149.951 92.8214L128.079 124.993C128.051 125.034 128.061 125.09 128.101 125.119Z" fill="#FFFFFE"/>
<path fill-rule="evenodd" clip-rule="evenodd" d="M140.559 106.758L140.731 106.676L153.301 100.589C153.347 100.568 153.366 100.512 153.344 100.467C153.322 100.421 153.268 100.402 153.223 100.424L140.749 106.463L141.122 92.8761C141.124 92.8252 141.084 92.7831 141.034 92.7816C140.983 92.7801 140.942 92.8203 140.94 92.8709L140.559 106.758Z" fill="#FFFFFE"/>
<path fill-rule="evenodd" clip-rule="evenodd" d="M132.739 117.874L151.126 113.314C151.175 113.302 151.205 113.252 151.193 113.202C151.181 113.153 151.132 113.123 151.083 113.135L132.866 117.653L128.412 101.527C128.399 101.478 128.348 101.45 128.3 101.464C128.252 101.477 128.223 101.528 128.237 101.577L132.739 117.874Z" fill="#FFFFFE"/>
<path fill-rule="evenodd" clip-rule="evenodd" d="M70.7622 100.738C75.0672 107.733 75.8366 116.87 72.1248 124.263C70.847 126.807 59.9149 123.85 58.1122 122.93C46.645 117.08 42.981 103.094 49.0765 92.1226C49.7141 90.975 58.4747 92.4773 59.7072 92.771C63.4885 93.6719 67.0052 95.6172 69.3887 98.7377C69.8801 99.3814 70.3384 100.049 70.7622 100.738Z" fill="#92C1DB"/>
<path fill-rule="evenodd" clip-rule="evenodd" d="M71.4107 125.119L71.4088 125.121C71.3673 125.149 71.3106 125.139 71.2823 125.097L49.4102 92.9254C49.3819 92.8838 49.393 92.8273 49.434 92.7977C49.4754 92.769 49.5319 92.7796 49.5605 92.8214L71.4323 124.993C71.4601 125.034 71.4504 125.09 71.4107 125.119Z" fill="#FFFFFE"/>
<path fill-rule="evenodd" clip-rule="evenodd" d="M58.9521 106.758L58.7808 106.676L46.2103 100.589C46.165 100.568 46.1458 100.512 46.1676 100.467C46.1895 100.421 46.2437 100.402 46.289 100.424L58.7622 106.463L58.3895 92.8761C58.388 92.8252 58.428 92.7831 58.4779 92.7816C58.5283 92.7801 58.57 92.8203 58.5715 92.8709L58.9521 106.758Z" fill="#FFFFFE"/>
<path fill-rule="evenodd" clip-rule="evenodd" d="M66.7729 117.874L48.385 113.314C48.3363 113.302 48.3065 113.252 48.3184 113.202C48.3305 113.153 48.3797 113.123 48.4284 113.135L66.645 117.653L71.0994 101.527C71.1125 101.478 71.1629 101.45 71.2114 101.464C71.2598 101.477 71.288 101.528 71.2746 101.577L66.7729 117.874Z" fill="#FFFFFE"/>
<path fill-rule="evenodd" clip-rule="evenodd" d="M2.1358 122.21H192.081V118.87H2.1358V122.21Z" fill="#5398C3"/>
<path fill-rule="evenodd" clip-rule="evenodd" d="M74.0491 92.7176C72.4179 92.7176 71.0938 93.986 71.0938 95.5509V116.461C71.0938 118.026 72.4179 119.319 74.0491 119.319H125.906C127.538 119.319 128.873 118.055 128.873 116.524V95.6149C128.873 93.9873 127.565 92.7176 125.906 92.7176H74.0491Z" fill="white"/>
<path fill-rule="evenodd" clip-rule="evenodd" d="M124.667 94.0502H75.2893C73.736 94.0502 72.4752 95.1915 72.4752 96.5996V115.415C72.4752 116.823 73.736 117.986 75.2893 117.986H124.667C126.22 117.986 127.492 116.849 127.492 115.472V96.6572C127.492 95.1926 126.246 94.0502 124.667 94.0502ZM110.5 116.899H75.2894C74.3977 116.899 73.6751 116.223 73.6751 115.415V96.5996C73.6751 95.7912 74.397 95.1379 75.2894 95.1379H110.5V116.899ZM126.291 114.417L123.602 116.899H119.884L126.291 111.043V114.417ZM126.291 109.168H124.671L116.182 116.899H112.471L120.96 109.168H117.256L111.701 114.234V110.913L113.596 109.167H111.701V95.1373H124.667C125.574 95.1373 126.292 95.8021 126.292 96.6561V109.168H126.291Z" fill="#F8931F"/>
<path fill-rule="evenodd" clip-rule="evenodd" d="M79.8835 114.673C82.4045 114.673 83.4025 113.446 83.4025 111.401V109.854H81.0651V111.858C81.0651 112.436 80.772 112.748 79.8961 112.748C79.0471 112.748 78.7277 112.435 78.7277 111.858V100.167C78.7277 99.5898 79.0471 99.2774 79.8961 99.2774C80.772 99.2774 81.0651 99.5904 81.0651 100.167V102.181H83.4025V100.625C83.4025 98.5796 82.4045 97.3527 79.8835 97.3527C77.3895 97.3527 76.3909 98.5796 76.3909 100.625V111.402C76.3916 113.447 77.3895 114.673 79.8835 114.673Z" fill="#0059A3"/>
<path fill-rule="evenodd" clip-rule="evenodd" d="M86.7769 111.115H89.2181L89.6696 114.436H91.9516L89.3514 97.6007H86.6449L84.0446 114.436H86.3267L86.7769 111.115ZM87.9968 101.469L88.979 109.167H87.0152L87.9968 101.469Z" fill="#0059A3"/>
<path fill-rule="evenodd" clip-rule="evenodd" d="M95.2145 107.106H96.0245C96.9005 107.106 97.4878 107.456 97.4878 108.442V111.45C97.4878 112.917 97.5368 113.692 98.2003 114.436H100.323C99.978 113.806 99.8252 113.11 99.8252 112.388V108.587C99.8252 107.481 99.6246 106.759 98.2443 106.398C99.3586 106.181 99.6353 105.436 99.6353 104.497V99.7101C99.6353 98.4354 98.6775 97.6002 97.2444 97.6002H92.8765V114.436H95.2139V107.106H95.2145ZM95.2146 99.5476H96.7678C97.1659 99.5476 97.2992 99.6383 97.2992 99.9991V104.738C97.2992 105.099 97.1659 105.217 96.7678 105.217H95.2146V99.5476Z" fill="#0059A3"/>
<path fill-rule="evenodd" clip-rule="evenodd" d="M104.374 114.673C106.603 114.673 107.722 113.422 107.722 111.738V109.381C107.722 108.394 107.43 107.649 106.767 106.927L104.03 103.824C103.579 103.319 103.363 102.886 103.363 102.164V100.167C103.363 99.5898 103.69 99.2774 104.405 99.2774C105.121 99.2774 105.448 99.5904 105.448 100.167V102.411H107.784V100.288C107.784 98.6035 106.648 97.3527 104.418 97.3527C102.19 97.3527 101.026 98.6035 101.026 100.288V102.645C101.026 103.631 101.323 104.377 101.96 105.099L104.752 108.202C105.203 108.707 105.448 109.14 105.448 109.862V111.858C105.448 112.436 105.09 112.748 104.374 112.748C103.657 112.748 103.3 112.435 103.3 111.858V109.625H101.026V111.737C101.026 113.422 102.144 114.673 104.374 114.673Z" fill="#0059A3"/>
<path fill-rule="evenodd" clip-rule="evenodd" d="M118.158 102.309C118.694 101.31 118.99 100.594 118.99 99.7871C118.99 98.2256 118.243 97.5967 117.085 97.5967C116.154 97.5967 115.18 98.1731 115.18 99.8338H116.408C116.408 99.0322 116.619 98.6075 117.099 98.6075C117.593 98.6075 117.762 99.018 117.762 99.8367C117.762 100.399 117.686 100.899 117.093 101.975L115.111 105.698V106.705H119.027V105.674H116.366L118.158 102.309Z" fill="#0059A3"/>
<path fill-rule="evenodd" clip-rule="evenodd" d="M122.249 97.7147H121.094L118.712 103.549V104.529H121.048V106.705H122.249V104.529H122.88V103.498H122.249V97.7147ZM121.048 103.498H119.836L121.048 100.503V103.498Z" fill="#0059A3"/>
<path fill-rule="evenodd" clip-rule="evenodd" d="M2.1358 125.164H192.103V122.189H2.1358V125.164Z" fill="#92C1DB"/>
<path fill-rule="evenodd" clip-rule="evenodd" d="M5.79749 145.722H186.859V125.13H5.79749V145.722Z" fill="#337CAF"/>
<path fill-rule="evenodd" clip-rule="evenodd" d="M5.48773 184.138H186.917V144.314H5.48773V184.138Z" fill="#337CAF"/>
<path fill-rule="evenodd" clip-rule="evenodd" d="M57.5388 184.051H105.406V138.41H57.5388V184.051Z" fill="#3D89BA"/>
<path fill-rule="evenodd" clip-rule="evenodd" d="M61.1458 184.051H101.799V148.37H61.1458V184.051Z" fill="#92C1DB"/>
<path fill-rule="evenodd" clip-rule="evenodd" d="M62.3483 184.053H100.596V149.561H62.3483V184.053Z" fill="#205C8C"/>
<path fill-rule="evenodd" clip-rule="evenodd" d="M101.821 158.368L101.788 158.085H101.821V158.368Z" fill="#A0A19D"/>
<path fill-rule="evenodd" clip-rule="evenodd" d="M108.48 184.051H156.348V138.41H108.48V184.051Z" fill="#3D89BA"/>
<path fill-rule="evenodd" clip-rule="evenodd" d="M111.573 184.314H152.227V148.676H111.573V184.314Z" fill="#92C1DB"/>
<path fill-rule="evenodd" clip-rule="evenodd" d="M112.776 184.36H151.024V149.868H112.776V184.36Z" fill="#205C8C"/>
<path fill-rule="evenodd" clip-rule="evenodd" d="M160.903 175.008H181.771V154.32H160.903V175.008Z" fill="#205C8C"/>
<path fill-rule="evenodd" clip-rule="evenodd" d="M36.8735 175.008H55.4652V154.32H36.8735V175.008Z" fill="#205C8C"/>
<path fill-rule="evenodd" clip-rule="evenodd" d="M17.0529 184.051H33.716V154.32H17.0529V184.051Z" fill="#286B9E"/>
<path fill-rule="evenodd" clip-rule="evenodd" d="M17.9097 184.051H32.8586V155.291H17.9097V184.051Z" fill="#E3F0F5"/>
<path fill-rule="evenodd" clip-rule="evenodd" d="M5.48773 175.008H13.4593V154.32H5.48773V175.008Z" fill="#205C8C"/>
<path fill-rule="evenodd" clip-rule="evenodd" d="M19.0379 170.148H31.7306V156.909H19.0379V170.148Z" fill="#BAD9E9"/>
<path fill-rule="evenodd" clip-rule="evenodd" d="M28.463 172.443H31.7308V171.81H28.463V172.443Z" fill="white"/>
<path fill-rule="evenodd" clip-rule="evenodd" d="M22.6806 166.951H28.088V159.221H22.6806V166.951Z" fill="white"/>
<path fill-rule="evenodd" clip-rule="evenodd" d="M23.3107 160.495H27.4574V159.752H23.3107V160.495Z" fill="#ED6C0D"/>
<path fill-rule="evenodd" clip-rule="evenodd" d="M23.3107 161.695H27.4574V161.323H23.3107V161.695Z" fill="#205C8C"/>
<path fill-rule="evenodd" clip-rule="evenodd" d="M23.3107 162.54H27.4574V162.168H23.3107V162.54Z" fill="#205C8C"/>
<path fill-rule="evenodd" clip-rule="evenodd" d="M23.3107 163.385H27.4574V163.013H23.3107V163.385Z" fill="#205C8C"/>
<path fill-rule="evenodd" clip-rule="evenodd" d="M23.3107 164.23H27.4574V163.858H23.3107V164.23Z" fill="#205C8C"/>
<path fill-rule="evenodd" clip-rule="evenodd" d="M23.3107 165.075H27.4574V164.703H23.3107V165.075Z" fill="#205C8C"/>
<path fill-rule="evenodd" clip-rule="evenodd" d="M23.3107 165.92H27.4574V165.548H23.3107V165.92Z" fill="#205C8C"/>
<path fill-rule="evenodd" clip-rule="evenodd" d="M2.07184 148.198H57.5387V144.314H2.07184V148.198Z" fill="#92C1DB"/>
<path fill-rule="evenodd" clip-rule="evenodd" d="M192.159 144.314H156.348V148.198H192.159V144.314Z" fill="#92C1DB"/>
<path fill-rule="evenodd" clip-rule="evenodd" d="M9.47351 136.01H55.0364V134.948H9.47351V136.01Z" fill="#286B9E"/>
<path fill-rule="evenodd" clip-rule="evenodd" d="M9.47351 138.181H55.0364V137.119H9.47351V138.181Z" fill="#286B9E"/>
<path fill-rule="evenodd" clip-rule="evenodd" d="M9.47351 140.351H55.0364V139.289H9.47351V140.351Z" fill="#286B9E"/>
<path fill-rule="evenodd" clip-rule="evenodd" d="M9.47351 142.522H55.0364V141.46H9.47351V142.522Z" fill="#286B9E"/>
</g>
<path d="M-1.1347 368.573H346.525V220.195H-1.1347V368.573Z" fill="url(#paint7_linear)"/>
<path fill-rule="evenodd" clip-rule="evenodd" d="M-1.1347 186.621H343.276V218.029H-1.1347V186.621Z" fill="#BAD9E9"/>
<path fill-rule="evenodd" clip-rule="evenodd" d="M30.3713 148.552H29.7332V144.745C29.7332 144.045 29.2757 143.688 29.0028 143.538L27.4795 142.699L27.7867 142.14L29.3109 142.979C29.6299 143.155 30.3713 143.678 30.3713 144.745V148.552Z" fill="#BAD9E9"/>
<path fill-rule="evenodd" clip-rule="evenodd" d="M45.9802 193.406L45.5912 193.47L43.7735 182.589L44.1629 182.524L45.9802 193.406Z" fill="#80A8C6"/>
<path fill-rule="evenodd" clip-rule="evenodd" d="M44.2199 193.379L43.8477 193.246L47.5367 182.849L47.9081 182.981L44.2199 193.379Z" fill="#BAD9E9"/>
<path fill-rule="evenodd" clip-rule="evenodd" d="M51.365 191.898L51.0605 192.149L44.0466 183.634L44.3512 183.383L51.365 191.898Z" fill="#80A8C6"/>
<path fill-rule="evenodd" clip-rule="evenodd" d="M49.8278 192.755L49.4397 192.827L47.4361 181.978L47.8233 181.907L49.8278 192.755Z" fill="#BAD9E9"/>
<path fill-rule="evenodd" clip-rule="evenodd" d="M55.276 187.9L55.1375 188.269L44.8055 184.403L44.9435 184.032L55.276 187.9Z" fill="#80A8C6"/>
<path fill-rule="evenodd" clip-rule="evenodd" d="M54.3731 189.411L54.0725 189.668L46.9119 181.274L47.2125 181.018L54.3731 189.411Z" fill="#BAD9E9"/>
<path fill-rule="evenodd" clip-rule="evenodd" d="M56.6631 182.482L56.7277 182.872L45.8472 184.689L45.7822 184.3L56.6631 182.482Z" fill="#80A8C6"/>
<path fill-rule="evenodd" clip-rule="evenodd" d="M56.6373 184.242L56.5046 184.615L46.1075 180.926L46.2394 180.554L56.6373 184.242Z" fill="#BAD9E9"/>
<path fill-rule="evenodd" clip-rule="evenodd" d="M55.1558 177.097L55.4076 177.402L46.8925 184.416L46.6415 184.111L55.1558 177.097Z" fill="#80A8C6"/>
<path fill-rule="evenodd" clip-rule="evenodd" d="M56.0133 178.635L56.0854 179.023L45.2361 181.027L45.1649 180.64L56.0133 178.635Z" fill="#BAD9E9"/>
<path fill-rule="evenodd" clip-rule="evenodd" d="M51.1581 173.187L51.5277 173.326L47.6611 183.658L47.2902 183.519L51.1581 173.187Z" fill="#80A8C6"/>
<path fill-rule="evenodd" clip-rule="evenodd" d="M52.6699 174.09L52.9253 174.39L44.5327 181.55L44.2761 181.25L52.6699 174.09Z" fill="#BAD9E9"/>
<path fill-rule="evenodd" clip-rule="evenodd" d="M45.741 171.801L46.1304 171.735L47.9477 182.616L47.5574 182.681L45.741 171.801Z" fill="#80A8C6"/>
<path fill-rule="evenodd" clip-rule="evenodd" d="M47.5016 171.826L47.8725 171.958L44.1839 182.356L43.8125 182.223L47.5016 171.826Z" fill="#BAD9E9"/>
<path fill-rule="evenodd" clip-rule="evenodd" d="M40.3552 173.307L40.6593 173.056L47.6736 181.57L47.3694 181.821L40.3552 173.307Z" fill="#80A8C6"/>
<path fill-rule="evenodd" clip-rule="evenodd" d="M41.8937 172.45L42.2809 172.378L44.2849 183.226L43.8982 183.298L41.8937 172.45Z" fill="#80A8C6"/>
<path fill-rule="evenodd" clip-rule="evenodd" d="M36.4448 177.305L36.5837 176.935L46.9157 180.802L46.7777 181.171L36.4448 177.305Z" fill="#80A8C6"/>
<path fill-rule="evenodd" clip-rule="evenodd" d="M37.3482 175.793L37.6484 175.538L44.8086 183.93L44.5084 184.186L37.3482 175.793Z" fill="#BAD9E9"/>
<path fill-rule="evenodd" clip-rule="evenodd" d="M35.0576 182.722L34.9934 182.333L45.8743 180.515L45.9394 180.905L35.0576 182.722Z" fill="#80A8C6"/>
<path fill-rule="evenodd" clip-rule="evenodd" d="M35.0837 180.962L35.216 180.59L45.6126 184.278L45.4821 184.651L35.0837 180.962Z" fill="#BAD9E9"/>
<path fill-rule="evenodd" clip-rule="evenodd" d="M36.5647 188.108L36.3138 187.803L44.8289 180.788L45.079 181.093L36.5647 188.108Z" fill="#80A8C6"/>
<path fill-rule="evenodd" clip-rule="evenodd" d="M35.7083 186.569L35.6358 186.182L46.4842 184.177L46.5563 184.566L35.7083 186.569Z" fill="#BAD9E9"/>
<path fill-rule="evenodd" clip-rule="evenodd" d="M40.5623 192.018L40.1932 191.879L44.0594 181.547L44.4294 181.685L40.5623 192.018Z" fill="#80A8C6"/>
<path fill-rule="evenodd" clip-rule="evenodd" d="M39.0511 191.115L38.7953 190.816L47.1883 183.655L47.445 183.955L39.0511 191.115Z" fill="#BAD9E9"/>
<path fill-rule="evenodd" clip-rule="evenodd" d="M45.8605 193.142C40.0403 193.142 35.3211 188.424 35.3211 182.603C35.3211 176.782 40.0403 172.064 45.8605 172.064C51.6811 172.064 56.4 176.782 56.4 182.603C56.4 188.424 51.6811 193.142 45.8605 193.142ZM45.8603 170.731C39.304 170.731 33.9888 176.046 33.9888 182.603C33.9888 189.159 39.304 194.473 45.8603 194.473C52.4171 194.473 57.7323 189.159 57.7323 182.603C57.7323 176.046 52.4171 170.731 45.8603 170.731Z" fill="#739FC0"/>
<path fill-rule="evenodd" clip-rule="evenodd" d="M45.8603 193.87C39.6371 193.87 34.5926 188.825 34.5926 182.603C34.5926 176.379 39.6371 171.334 45.8603 171.334C52.0835 171.334 57.1284 176.379 57.1284 182.603C57.1284 188.825 52.0835 193.87 45.8603 193.87ZM45.8602 168.155C37.883 168.155 31.4146 174.624 31.4146 182.603C31.4146 190.58 37.883 197.048 45.8602 197.048C53.8383 197.048 60.3063 190.58 60.3063 182.603C60.3063 174.624 53.8383 168.155 45.8602 168.155Z" fill="#12406D"/>
<path fill-rule="evenodd" clip-rule="evenodd" d="M51.3063 182.603C51.3063 185.61 48.868 188.049 45.8601 188.049C42.8522 188.049 40.4148 185.61 40.4148 182.603C40.4148 179.594 42.8522 177.157 45.8601 177.157C48.868 177.157 51.3063 179.594 51.3063 182.603Z" fill="#739FC0"/>
<path fill-rule="evenodd" clip-rule="evenodd" d="M43.4912 177.698C41.6704 178.579 40.4148 180.444 40.4148 182.603C40.4148 184.884 41.8185 186.837 43.8099 187.647L47.0243 184.432L43.4912 177.698Z" fill="#4D84AE"/>
<path fill-rule="evenodd" clip-rule="evenodd" d="M34.5928 182.603C34.5928 178.093 37.242 174.202 41.0695 172.401L39.7036 169.531C34.8042 171.843 31.4148 176.826 31.4148 182.603C31.4148 187.353 33.7081 191.568 37.249 194.202L39.5269 191.924C36.5485 189.896 34.5928 186.477 34.5928 182.603Z" fill="#12406D"/>
<path fill-rule="evenodd" clip-rule="evenodd" d="M33.427 164.155L24.4258 184.24H2.09037C1.35906 171.75 -5.50448 165.614 -16.1912 165.614C-22.7787 165.614 -28.4908 169.365 -31.3088 174.846C-31.4485 175.118 -31.6652 175.654 -32.4523 175.654H-33.8596C-35.2106 175.654 -35.3297 174.7 -35.3297 173.217C-31.8595 166.153 -24.5933 161.291 -16.1912 161.291H29.7229L28.1953 156.953L32.2236 155.097L32.8433 156.466L37.0462 155.758L37.8597 157.723L34.4387 159.988L35.7906 162.974L33.427 164.155Z" fill="#12406D"/>
<path fill-rule="evenodd" clip-rule="evenodd" d="M21.877 175.091L14.8003 171.918V175.969L19.872 177.429L21.877 175.091Z" fill="#BAD9E9"/>
<path fill-rule="evenodd" clip-rule="evenodd" d="M24.118 181.43L22.6659 180.778L30.5556 163.188L32.0082 163.84L24.118 181.43Z" fill="#286B9E"/>
<path fill-rule="evenodd" clip-rule="evenodd" d="M30.2718 151.143C30.2709 151.14 30.1316 150.819 29.7611 149.985C29.5677 149.55 29.3255 149.467 28.9458 149.467H26.2658V147.878H28.9458C30.2828 147.878 30.9178 148.672 31.2136 149.339C31.5902 150.185 31.73 150.51 31.73 150.51L30.2718 151.143Z" fill="#286B9E"/>
<path fill-rule="evenodd" clip-rule="evenodd" d="M20.4055 179.347C20.8138 178.9 21.0625 178.307 21.0625 177.655C21.0625 176.272 19.941 175.15 18.5574 175.15H9.68542V184.711H18.5574V183.467L20.4055 179.347Z" fill="#4680AC"/>
<path fill-rule="evenodd" clip-rule="evenodd" d="M24.1788 181.295C24.4324 180.73 24.1331 180.268 23.5147 180.268H16.4253C15.8065 180.268 15.0932 180.73 14.8396 181.295L13.8618 183.475C13.609 184.04 13.9075 184.502 14.5267 184.502H21.6157C22.2341 184.502 22.9474 184.04 23.2009 183.475L24.1788 181.295Z" fill="#80A8C6"/>
<path fill-rule="evenodd" clip-rule="evenodd" d="M26.8605 148.674C26.8605 149.112 26.5946 149.468 26.2654 149.468C25.9367 149.468 25.6708 149.112 25.6708 148.674C25.6708 148.234 25.9367 147.878 26.2654 147.878C26.5946 147.878 26.8605 148.234 26.8605 148.674Z" fill="#2E577F"/>
<path fill-rule="evenodd" clip-rule="evenodd" d="M36.2261 150.92L33.8014 153.177L32.4759 150.339L34.4382 149.358L36.2261 150.92Z" fill="#2E577F"/>
<path fill-rule="evenodd" clip-rule="evenodd" d="M47.3733 182.235L44.6208 183.521L29.7233 151.625L32.4763 150.339L47.3733 182.235Z" fill="#BAD9E9"/>
<path fill-rule="evenodd" clip-rule="evenodd" d="M45.9973 182.878L44.6208 183.52L29.7233 151.625L31.1003 150.982L45.9973 182.878Z" fill="#92C1DB"/>
<path fill-rule="evenodd" clip-rule="evenodd" d="M33.2456 150.795L29.5776 152.507L29.1596 151.612L32.828 149.899L33.2456 150.795Z" fill="#739FC0"/>
<path fill-rule="evenodd" clip-rule="evenodd" d="M37.037 150.541C36.5672 150.761 35.9971 151.028 35.4566 151.28C34.8712 151.553 34.4027 151.202 34.135 150.645C33.9794 150.319 33.4666 149.212 33.4666 149.212L36.8159 147.647C36.8159 147.647 37.2176 148.484 37.5068 149.128C37.7969 149.771 37.5068 150.321 37.037 150.541Z" fill="#739FC0"/>
<path fill-rule="evenodd" clip-rule="evenodd" d="M33.7567 151.887L30.0883 153.601L30.7695 155.06L34.4383 153.346L33.7567 151.887Z" fill="#739FC0"/>
<path fill-rule="evenodd" clip-rule="evenodd" d="M38.6182 162.298L34.9502 164.01L34.4202 162.875L38.0886 161.161L38.6182 162.298Z" fill="#739FC0"/>
<path fill-rule="evenodd" clip-rule="evenodd" d="M47.9989 182.603C47.9989 183.783 47.0417 184.741 45.8604 184.741C44.679 184.741 43.7218 183.783 43.7218 182.603C43.7218 181.421 44.679 180.463 45.8604 180.463C47.0417 180.463 47.9989 181.421 47.9989 182.603Z" fill="#80A8C6"/>
<path fill-rule="evenodd" clip-rule="evenodd" d="M39.0019 152.044C37.7555 152.044 36.1025 153.707 36.1025 155.758C36.1025 157.808 37.7555 159.471 39.0019 159.471H41.3988V152.044H39.0019Z" fill="#BAD9E9"/>
<path fill-rule="evenodd" clip-rule="evenodd" d="M5.60945 185.667H-3.64844V180.542L5.60945 183.754V185.667Z" fill="#5398C3"/>
<path fill-rule="evenodd" clip-rule="evenodd" d="M23.3852 185.667H5.60956V183.754H23.3852C24.2334 183.754 24.484 183.515 24.7226 182.98C24.981 182.402 25.3076 181.678 25.6486 180.922C26.361 179.341 27.1701 177.548 27.4817 176.806C27.7371 176.197 28.1568 174.703 26.5311 174.001L23.0407 172.496L23.8111 170.744L27.2888 172.244C29.0511 173.005 30.3402 174.939 29.2463 177.546C28.9246 178.313 28.1467 180.039 27.3925 181.709C27.0537 182.463 26.7271 183.185 26.4705 183.76C25.8881 185.062 24.9076 185.667 23.3852 185.667Z" fill="#BAD9E9"/>
<path fill-rule="evenodd" clip-rule="evenodd" d="M-2.52779 169.441C-1.16097 170.787 -0.0319185 172.382 0.855415 174.218C0.993415 174.502 1.27513 175.091 2.17565 175.091H6.33851C7.01357 175.091 7.43504 174.774 7.65083 174.244C7.77125 173.946 8.97238 170.786 10.0087 168.056H-4.13721C-3.57202 168.48 -3.03452 168.942 -2.52779 169.441Z" fill="#286B9E"/>
<path fill-rule="evenodd" clip-rule="evenodd" d="M-16.1913 163.048V164.489C-11.3332 164.489 -7.28945 165.688 -4.13742 168.056H10.0085C10.8268 165.901 11.5423 164.014 11.5423 164.014L-16.1913 163.048Z" fill="#2A537C"/>
<path fill-rule="evenodd" clip-rule="evenodd" d="M2.09056 171.301H5.2549C5.79723 171.301 6.14135 170.955 6.14135 170.371V165.036H-2.85284C-2.85284 165.036 -2.94909 165.618 -2.37379 166.419C-2.3127 166.503 -2.22656 166.623 -2.1202 166.771C-1.49437 167.64 -0.183806 169.466 0.570361 170.514C0.90877 170.985 1.31706 171.301 2.09056 171.301Z" fill="#FFCB82"/>
<path fill-rule="evenodd" clip-rule="evenodd" d="M2.09056 171.301H5.2549C5.79723 171.301 6.14135 170.955 6.14135 170.371V165.036H-2.85284C-2.85284 165.036 -2.94909 165.618 -2.37379 166.419C-2.3127 166.503 -2.22656 166.623 -2.1202 166.771C-1.49437 167.64 -0.183806 169.466 0.570361 170.514C0.90877 170.985 1.31706 171.301 2.09056 171.301Z" fill="#5398C3"/>
<path fill-rule="evenodd" clip-rule="evenodd" d="M1.793 170.212H4.40842C4.85582 170.212 5.13973 169.927 5.13973 169.445V165.036H-2.29207C-2.29207 165.036 -2.3703 165.517 -1.89565 166.178C-1.8451 166.248 -1.77347 166.348 -1.68601 166.469C-1.16961 167.188 -0.0858204 168.697 0.536499 169.563C0.816455 169.952 1.15398 170.212 1.793 170.212Z" fill="#FFF3E0"/>
<path fill-rule="evenodd" clip-rule="evenodd" d="M8.20449 179.772H3.62851L3.40393 178.293H8.20449V179.772Z" fill="#4680AC"/>
<path fill-rule="evenodd" clip-rule="evenodd" d="M13.5671 179.033C13.5671 181.176 11.8298 182.914 9.68643 182.914C7.54172 182.914 5.80353 181.176 5.80353 179.033C5.80353 176.889 7.54172 175.15 9.68643 175.15C11.8298 175.15 13.5671 176.889 13.5671 179.033Z" fill="#BAD9E9"/>
<path fill-rule="evenodd" clip-rule="evenodd" d="M23.2179 169.336L17.5388 166.788L19.1741 163.142L24.1777 165.69L23.2179 169.336Z" fill="#BAD9E9"/>
<path fill-rule="evenodd" clip-rule="evenodd" d="M21.877 175.091L14.8003 171.917L17.174 166.625L24.2502 169.799L21.877 175.091Z" fill="#BAD9E9"/>
<path fill-rule="evenodd" clip-rule="evenodd" d="M21.877 175.091L14.8003 171.918L14.9862 171.504L22.0616 174.678L21.877 175.091Z" fill="#92C1DB"/>
<path fill-rule="evenodd" clip-rule="evenodd" d="M24.0657 170.212L16.989 167.038L17.174 166.625L24.2507 169.799L24.0657 170.212Z" fill="#92C1DB"/>
<path fill-rule="evenodd" clip-rule="evenodd" d="M1.97892 159.598H-6.51733C-8.03577 159.598 -8.88003 158.023 -10.1176 158.023H-21.3695C-22.1944 158.023 -22.8132 158.451 -22.9644 159.297C-23.0207 159.618 -23.12 160.189 -23.2277 160.807C-23.4065 161.827 -23.6078 162.972 -23.6768 163.311C-23.7977 163.911 -23.1244 164.226 -22.4186 164.48C-21.1207 164.946 -20.4602 165.036 -19.5606 165.036H8.46889V161.557V158.626C6.91616 159.386 6.02883 159.598 1.97892 159.598Z" fill="#286B9E"/>
<path fill-rule="evenodd" clip-rule="evenodd" d="M-6.79846 161.557H8.46859V158.626C6.91631 159.386 6.02897 159.598 1.97906 159.598H-6.51719C-8.03563 159.598 -8.87989 158.023 -10.1179 158.023H-21.3694C-22.1943 158.023 -22.8131 158.451 -22.9643 159.297C-23.0205 159.617 -23.1203 160.189 -23.228 160.807H-11.4681C-9.6679 160.807 -8.61224 161.557 -6.79846 161.557Z" fill="#4680AC"/>
<path fill-rule="evenodd" clip-rule="evenodd" d="M-6.79851 161.557C-8.61229 161.557 -9.66795 160.807 -11.4681 160.807H-23.228C-23.4065 161.827 -23.6077 162.972 -23.6767 163.311C-23.798 163.911 -23.1243 164.226 -22.4185 164.48C-21.1207 164.946 -20.4601 165.036 -19.5605 165.036H8.46854V161.557H-6.79851Z" fill="#286B9E"/>
<path fill-rule="evenodd" clip-rule="evenodd" d="M16.6854 177.659C16.6854 178.693 17.5244 179.531 18.5576 179.531C19.5908 179.531 20.4294 178.693 20.4294 177.659C20.4294 176.626 19.5908 175.788 18.5576 175.788C17.5244 175.788 16.6854 176.626 16.6854 177.659Z" fill="#92C1DB"/>
<path fill-rule="evenodd" clip-rule="evenodd" d="M8.87736 158.404C10.0877 157.833 11.7464 157.052 12.7229 156.593C14.291 155.855 16.0059 155.435 17.9937 155.435H25.9731C28.589 155.435 29.4917 156.179 29.9457 157.147C30.6168 158.571 31.5103 160.48 31.8377 161.211C32.3866 162.439 32.2886 163.774 31.9269 164.357C31.7604 164.626 31.407 165.195 31.077 165.731C30.6906 166.354 29.958 166.93 27.2956 166.93H12.8693C9.37311 166.93 7.37958 166.292 7.37958 164.718V160.779C7.37958 159.401 8.01508 158.811 8.87736 158.404Z" fill="#E3F0F5"/>
<path fill-rule="evenodd" clip-rule="evenodd" d="M7.37958 162.586V164.718C7.37958 166.292 9.37311 166.931 12.8693 166.931H27.2956C29.958 166.931 30.6906 166.354 31.077 165.73C31.407 165.196 31.7608 164.626 31.9269 164.357C32.1533 163.991 32.2759 163.33 32.2016 162.586H7.37958Z" fill="#5398C3"/>
<path fill-rule="evenodd" clip-rule="evenodd" d="M12.8694 164.679C11.3984 164.679 10.5322 164.551 10.0637 164.442C9.7046 164.36 9.63032 164.065 9.63032 163.831L9.62988 162.326C9.62988 161.892 10.1951 161.511 10.8389 161.511H14.8009C16.3414 161.511 17.3364 160.698 17.3364 159.442C17.3364 158.342 18.6632 157.685 19.9439 157.685H25.9732C26.6233 157.685 27.7607 157.786 28.0797 158.465C28.9781 160.376 29.5195 161.54 29.7832 162.129C30.0552 162.736 30.0069 163.183 29.8838 163.381L29.7458 163.603C29.5714 163.884 29.4378 164.097 29.251 164.403C29.2114 164.468 28.9543 164.679 27.2957 164.679H12.8694Z" fill="#BAD9E9"/>
<path fill-rule="evenodd" clip-rule="evenodd" d="M39.0018 155.758H40.9501V152.044H39.0018V155.758Z" fill="#E3F0F5"/>
<path fill-rule="evenodd" clip-rule="evenodd" d="M27.9213 142.045C27.9213 143.287 26.914 144.295 25.6707 144.295C24.4287 144.295 24.2089 143.287 24.2089 142.045C24.2089 140.802 24.4287 139.794 25.6707 139.794C26.914 139.794 27.9213 140.802 27.9213 142.045Z" fill="#80A8C6"/>
<path fill-rule="evenodd" clip-rule="evenodd" d="M-9.63904 205.151H136.768V199.599H-9.63904V205.151Z" fill="#F2F4F4"/>
<path fill-rule="evenodd" clip-rule="evenodd" d="M133.201 180.242L137.919 175.551L137.254 174.89L132.044 180.07H132.067V216.138H133.224V180.242H133.201Z" fill="#D1D3D3"/>
<path fill-rule="evenodd" clip-rule="evenodd" d="M133.554 180.07H133.532L137.997 175.63L137.918 175.551L133.201 180.242H133.224V216.138H133.554V180.07Z" fill="#F2F4F4"/>
<path fill-rule="evenodd" clip-rule="evenodd" d="M133.555 180.07V216.138H142.484V180.067H142.459L137.997 175.63L133.532 180.07H133.555Z" fill="#F2F4F4"/>
<path fill-rule="evenodd" clip-rule="evenodd" d="M115.553 181.782L120.273 177.259L119.605 176.619L114.396 181.61H114.419V216.139H115.576V181.782H115.553Z" fill="#D1D3D3"/>
<path fill-rule="evenodd" clip-rule="evenodd" d="M115.907 181.61H115.884L120.35 177.331L120.274 177.258L115.553 181.782H115.576V216.139H115.907V181.61Z" fill="#F2F4F4"/>
<path fill-rule="evenodd" clip-rule="evenodd" d="M115.907 181.61V216.139H124.836V181.606H124.811L120.35 177.331L115.884 181.61H115.907Z" fill="#F2F4F4"/>
<path fill-rule="evenodd" clip-rule="evenodd" d="M97.9052 183.003L102.628 178.607L101.957 177.983L96.7482 182.831H96.7712V216.138H97.9279V183.003H97.9052Z" fill="#D1D3D3"/>
<path fill-rule="evenodd" clip-rule="evenodd" d="M98.2588 182.831H98.2358L102.701 178.675L102.628 178.607L97.9052 183.003H97.9279V216.138H98.2588V182.831Z" fill="#F2F4F4"/>
<path fill-rule="evenodd" clip-rule="evenodd" d="M98.2589 182.831V216.138H107.188V182.827H107.163L102.702 178.675L98.2359 182.831H98.2589Z" fill="#F2F4F4"/>
<path fill-rule="evenodd" clip-rule="evenodd" d="M80.2575 185.136L84.9861 180.983L84.3098 180.389L79.1005 184.964H79.1231V216.138H80.2802V185.136H80.2575Z" fill="#D1D3D3"/>
<path fill-rule="evenodd" clip-rule="evenodd" d="M80.611 184.964H80.5883L85.0536 181.042L84.9859 180.982L80.2577 185.136H80.2804V216.138H80.611V184.964Z" fill="#F2F4F4"/>
<path fill-rule="evenodd" clip-rule="evenodd" d="M80.6109 184.964V216.138H89.5398V184.961H89.5151L85.0535 181.042L80.5882 184.964H80.6109Z" fill="#F2F4F4"/>
<path fill-rule="evenodd" clip-rule="evenodd" d="M62.6093 187.57L67.345 183.697L66.6615 183.138L61.4522 187.398H61.4749V216.138H62.6319V187.57H62.6093Z" fill="#D1D3D3"/>
<path fill-rule="evenodd" clip-rule="evenodd" d="M62.9628 187.398H62.9401L67.4058 183.746L67.3453 183.697L62.6096 187.57H62.6322V216.138H62.9628V187.398Z" fill="#F2F4F4"/>
<path fill-rule="evenodd" clip-rule="evenodd" d="M62.9627 187.398V216.138H71.8917V187.395H71.8673L67.4057 183.746L62.9401 187.398H62.9627Z" fill="#F2F4F4"/>
<path fill-rule="evenodd" clip-rule="evenodd" d="M44.9619 190.223L49.707 186.656L49.0142 186.135L43.8045 190.051H43.8275V216.138H44.9846V190.223H44.9619Z" fill="#D1D3D3"/>
<path fill-rule="evenodd" clip-rule="evenodd" d="M45.3151 190.051H45.2924L49.7578 186.695L49.7066 186.656L44.9619 190.223H44.9845V216.138H45.3151V190.051Z" fill="#F2F4F4"/>
<path fill-rule="evenodd" clip-rule="evenodd" d="M45.315 190.051V216.138H54.244V190.048H54.2192L49.7577 186.694L45.2924 190.051H45.315Z" fill="#F2F4F4"/>
<path fill-rule="evenodd" clip-rule="evenodd" d="M27.0055 190.137L31.7509 186.57L31.0578 186.049L25.8484 189.965H25.8711V216.052H27.0282V190.137H27.0055Z" fill="#D1D3D3"/>
<path fill-rule="evenodd" clip-rule="evenodd" d="M27.3588 189.965H27.3361L31.8015 186.609L31.7506 186.57L27.0056 190.137H27.0282V216.052H27.3588V189.965Z" fill="#F2F4F4"/>
<path fill-rule="evenodd" clip-rule="evenodd" d="M27.3589 189.965V216.053H36.2878V189.962H36.2631L31.8015 186.609L27.3362 189.965H27.3589Z" fill="#F2F4F4"/>
<path fill-rule="evenodd" clip-rule="evenodd" d="M7.76142 190.137L12.5068 186.57L11.8137 186.049L6.60437 189.965H6.62705V216.052H7.7841V190.137H7.76142Z" fill="#D1D3D3"/>
<path fill-rule="evenodd" clip-rule="evenodd" d="M8.11486 189.965H8.09218L12.5575 186.609L12.5066 186.57L7.7616 190.137H7.78428V216.052H8.11486V189.965Z" fill="#F2F4F4"/>
<path fill-rule="evenodd" clip-rule="evenodd" d="M8.11478 189.965V216.053H17.0437V189.962H17.019L12.5574 186.609L8.0921 189.965H8.11478Z" fill="#F2F4F4"/>
<path fill-rule="evenodd" clip-rule="evenodd" d="M249.113 207.504H340.883V206.182H249.113V207.504Z" fill="#D1D3D3"/>
<path fill-rule="evenodd" clip-rule="evenodd" d="M249.113 206.182H340.883V200.629H249.113V206.182Z" fill="#F2F4F4"/>
<path fill-rule="evenodd" clip-rule="evenodd" d="M254.567 180.225L249.849 175.534L250.515 174.873L255.724 180.053H255.701V216.121H254.544V180.225H254.567Z" fill="#D1D3D3"/>
<path fill-rule="evenodd" clip-rule="evenodd" d="M272.215 181.765L267.494 177.241L268.162 176.601L273.372 181.593H273.349V216.121H272.192V181.765H272.215Z" fill="#D1D3D3"/>
<path fill-rule="evenodd" clip-rule="evenodd" d="M289.863 182.985L285.14 178.59L285.81 177.966L291.02 182.814H290.997V216.121H289.84V182.985H289.863Z" fill="#D1D3D3"/>
<path fill-rule="evenodd" clip-rule="evenodd" d="M307.511 185.118L302.782 180.965L303.458 180.371L308.668 184.947H308.645V216.121H307.488V185.118H307.511Z" fill="#D1D3D3"/>
<path fill-rule="evenodd" clip-rule="evenodd" d="M325.159 187.553L320.423 183.68L321.106 183.12L326.316 187.381H326.293V216.121H325.136V187.553H325.159Z" fill="#D1D3D3"/>
<path fill-rule="evenodd" clip-rule="evenodd" d="M342.806 190.205L338.061 186.639L338.754 186.118L343.963 190.033H343.941V216.121H342.784V190.205H342.806Z" fill="#D1D3D3"/>
<path fill-rule="evenodd" clip-rule="evenodd" d="M254.213 180.053H254.236L249.77 175.612L249.849 175.534L254.567 180.225H254.544V216.121H254.213V180.053Z" fill="#F2F4F4"/>
<path fill-rule="evenodd" clip-rule="evenodd" d="M254.213 180.053V216.121H245.285V180.049H245.309L249.77 175.612L254.236 180.053H254.213Z" fill="#F2F4F4"/>
<path fill-rule="evenodd" clip-rule="evenodd" d="M271.861 181.593H271.884L267.418 177.314L267.494 177.241L272.215 181.764H272.192V216.121H271.861V181.593Z" fill="#F2F4F4"/>
<path fill-rule="evenodd" clip-rule="evenodd" d="M271.861 181.593V216.121H262.932V181.589H262.957L267.418 177.314L271.884 181.593H271.861Z" fill="#F2F4F4"/>
<path fill-rule="evenodd" clip-rule="evenodd" d="M289.509 182.814H289.532L285.067 178.658L285.14 178.59L289.863 182.985H289.84V216.121H289.509V182.814Z" fill="#F2F4F4"/>
<path fill-rule="evenodd" clip-rule="evenodd" d="M289.509 182.814V216.121H280.58V182.81H280.605L285.067 178.657L289.532 182.814H289.509Z" fill="#F2F4F4"/>
<path fill-rule="evenodd" clip-rule="evenodd" d="M307.157 184.947H307.18L302.714 181.025L302.782 180.965L307.511 185.118H307.488V216.121H307.157V184.947Z" fill="#F2F4F4"/>
<path fill-rule="evenodd" clip-rule="evenodd" d="M307.157 184.947V216.121H298.228V184.943H298.252L302.714 181.025L307.18 184.947H307.157Z" fill="#F2F4F4"/>
<path fill-rule="evenodd" clip-rule="evenodd" d="M324.805 187.381H324.828L320.362 183.729L320.423 183.68L325.159 187.553H325.136V216.121H324.805V187.381Z" fill="#F2F4F4"/>
<path fill-rule="evenodd" clip-rule="evenodd" d="M324.805 187.381V216.121H315.876V187.378H315.901L320.362 183.729L324.828 187.381H324.805Z" fill="#F2F4F4"/>
<path fill-rule="evenodd" clip-rule="evenodd" d="M342.453 190.033H342.476L338.01 186.677L338.061 186.639L342.806 190.205H342.783V216.121H342.453V190.033Z" fill="#F2F4F4"/>
<path fill-rule="evenodd" clip-rule="evenodd" d="M342.453 190.033V216.121H333.524V190.03H333.548L338.01 186.677L342.476 190.033H342.453Z" fill="#F2F4F4"/>
<path fill-rule="evenodd" clip-rule="evenodd" d="M-67.2975 221.278H345.077V215.261H-67.2975V221.278Z" fill="#F2F4F4"/>
</g>
<path d="M168.103 232.906H136.83V230.24H168.103C170.181 230.24 171.437 229.268 172.58 226.776L177.817 215.356C178.289 214.326 178.424 213.614 178.238 213.114C178.043 212.584 177.425 212.083 176.401 211.622L171.7 209.513L172.763 207.074L177.463 209.184C179.18 209.954 180.237 210.933 180.697 212.175C181.288 213.771 180.695 215.398 180.199 216.481L174.96 227.901C173.975 230.049 172.192 232.906 168.103 232.906Z" fill="#BAD9E9"/>
<path d="M210.585 241.343L209.944 241.453L206.951 223.256L207.591 223.147L210.585 241.343Z" fill="#BAD9E9"/>
<path d="M207.686 241.299L207.074 241.079L213.149 223.691L213.761 223.912L207.686 241.299Z" fill="#BAD9E9"/>
<path d="M219.455 238.823L218.953 239.243L207.4 225.002L207.902 224.584L219.455 238.823Z" fill="#BAD9E9"/>
<path d="M216.923 240.257L216.283 240.376L212.982 222.234L213.621 222.115L216.923 240.257Z" fill="#BAD9E9"/>
<path d="M225.895 232.138L225.667 232.755L208.65 226.288L208.878 225.671L225.895 232.138Z" fill="#BAD9E9"/>
<path d="M224.409 234.665L223.914 235.094L212.121 221.056L212.615 220.629L224.409 234.665Z" fill="#BAD9E9"/>
<path d="M228.18 223.078L228.287 223.728L210.366 226.768L210.259 226.117L228.18 223.078Z" fill="#BAD9E9"/>
<path d="M228.137 226.022L227.919 226.643L210.795 220.474L211.013 219.853L228.137 226.022Z" fill="#BAD9E9"/>
<path d="M225.698 214.071L226.111 214.581L212.087 226.311L211.675 225.802L225.698 214.071Z" fill="#BAD9E9"/>
<path d="M227.11 216.643L227.228 217.291L209.361 220.645L209.243 219.995L227.11 216.643Z" fill="#BAD9E9"/>
<path d="M219.113 207.532L219.722 207.763L213.354 225.043L212.746 224.811L219.113 207.532Z" fill="#BAD9E9"/>
<path d="M221.603 209.042L222.025 209.544L208.202 221.518L207.78 221.017L221.603 209.042Z" fill="#BAD9E9"/>
<path d="M210.191 205.212L210.831 205.103L213.825 223.3L213.184 223.409L210.191 205.212Z" fill="#BAD9E9"/>
<path d="M213.09 205.256L213.703 205.477L207.628 222.864L207.016 222.644L213.09 205.256Z" fill="#BAD9E9"/>
<path d="M201.321 207.732L201.822 207.313L213.376 221.553L212.874 221.971L201.321 207.732Z" fill="#BAD9E9"/>
<path d="M203.854 206.298L204.493 206.178L207.793 224.32L207.154 224.441L203.854 206.298Z" fill="#BAD9E9"/>
<path d="M194.88 214.418L195.108 213.801L212.126 220.266L211.897 220.884L194.88 214.418Z" fill="#BAD9E9"/>
<path d="M196.368 211.891L196.862 211.463L208.656 225.498L208.161 225.926L196.368 211.891Z" fill="#BAD9E9"/>
<path d="M192.595 223.479L192.488 222.827L210.41 219.788L210.517 220.438L192.595 223.479Z" fill="#BAD9E9"/>
<path d="M192.64 220.534L192.856 219.913L209.98 226.08L209.764 226.703L192.64 220.534Z" fill="#BAD9E9"/>
<path d="M195.078 232.484L194.666 231.975L208.689 220.244L209.102 220.754L195.078 232.484Z" fill="#BAD9E9"/>
<path d="M193.667 229.913L193.548 229.264L211.415 225.912L211.534 226.561L193.667 229.913Z" fill="#BAD9E9"/>
<path d="M201.663 239.024L201.054 238.793L207.422 221.513L208.031 221.745L201.663 239.024Z" fill="#BAD9E9"/>
<path d="M199.174 237.514L198.752 237.012L212.575 225.037L212.997 225.539L199.174 237.514Z" fill="#BAD9E9"/>
<path d="M96.1985 240.121L95.6674 240.212L93.1866 225.129L93.7177 225.039L96.1985 240.121Z" fill="#BAD9E9"/>
<path d="M93.7956 240.085L93.287 239.902L98.3232 225.489L98.8304 225.672L93.7956 240.085Z" fill="#BAD9E9"/>
<path d="M103.55 238.033L103.134 238.38L93.5586 226.577L93.9743 226.23L103.55 238.033Z" fill="#BAD9E9"/>
<path d="M101.452 239.22L100.922 239.32L98.1845 224.282L98.7141 224.183L101.452 239.22Z" fill="#BAD9E9"/>
<path d="M108.889 232.491L108.699 233.003L94.5946 227.643L94.7838 227.131L108.889 232.491Z" fill="#BAD9E9"/>
<path d="M107.655 234.586L107.245 234.94L97.4713 223.306L97.8807 222.952L107.655 234.586Z" fill="#BAD9E9"/>
<path d="M110.783 224.981L110.871 225.521L96.0172 228.041L95.9279 227.5L110.783 224.981Z" fill="#BAD9E9"/>
<path d="M110.747 227.421L110.567 227.937L96.3719 222.823L96.552 222.309L110.747 227.421Z" fill="#BAD9E9"/>
<path d="M108.724 217.516L109.068 217.938L97.4437 227.662L97.1011 227.24L108.724 217.516Z" fill="#BAD9E9"/>
<path d="M109.895 219.648L109.994 220.185L95.1839 222.964L95.0854 222.427L109.895 219.648Z" fill="#BAD9E9"/>
<path d="M103.267 212.096L103.772 212.287L98.4932 226.609L97.9882 226.418L103.267 212.096Z" fill="#BAD9E9"/>
<path d="M105.33 213.347L105.68 213.763L94.2227 223.688L93.8724 223.273L105.33 213.347Z" fill="#BAD9E9"/>
<path d="M95.8715 210.172L96.4025 210.083L98.884 225.166L98.353 225.256L95.8715 210.172Z" fill="#BAD9E9"/>
<path d="M98.2741 210.21L98.7819 210.392L93.7472 224.805L93.2393 224.622L98.2741 210.21Z" fill="#BAD9E9"/>
<path d="M88.5196 212.261L88.9353 211.914L98.5118 223.716L98.0947 224.064L88.5196 212.261Z" fill="#BAD9E9"/>
<path d="M90.6187 211.073L91.1477 210.973L93.8845 226.013L93.3556 226.111L90.6187 211.073Z" fill="#BAD9E9"/>
<path d="M83.181 217.803L83.3702 217.292L97.475 222.651L97.2865 223.164L83.181 217.803Z" fill="#BAD9E9"/>
<path d="M84.4146 215.709L84.8232 215.354L94.5987 226.987L94.1887 227.343L84.4146 215.709Z" fill="#BAD9E9"/>
<path d="M81.2872 225.313L81.1985 224.774L96.0531 222.255L96.1418 222.794L81.2872 225.313Z" fill="#BAD9E9"/>
<path d="M81.3237 222.873L81.503 222.358L95.6972 227.47L95.5171 227.986L81.3237 222.873Z" fill="#BAD9E9"/>
<path d="M83.3445 232.779L83.0027 232.357L94.6267 222.633L94.9685 223.056L83.3445 232.779Z" fill="#BAD9E9"/>
<path d="M82.1747 230.647L82.0755 230.109L96.8865 227.33L96.985 227.868L82.1747 230.647Z" fill="#BAD9E9"/>
<path d="M88.8026 238.199L88.2983 238.006L93.5764 223.685L94.0807 223.876L88.8026 238.199Z" fill="#BAD9E9"/>
<path d="M86.7399 236.947L86.3896 236.531L97.8469 226.607L98.1972 227.022L86.7399 236.947Z" fill="#BAD9E9"/>
<path d="M80.7241 202.329L76.4159 205.651L73.8831 204.466V198.204H82.1147L86.2843 199.301L80.7241 202.329Z" fill="#6293B8"/>
<path d="M72.8021 203.713L73.8832 204.466V198.203L72.8021 198.956V203.713Z" fill="#FEA62C"/>
<path d="M169.654 221.191C170.902 218.468 175.866 207.645 179.22 200.336L176.511 191.445L172.844 191.366L174.437 181.017L179.457 177.856L186.01 188.27L181.949 192.81V200.336C178.527 207.799 173.458 218.849 172.184 221.629L169.654 221.191Z" fill="#12406D"/>
<path d="M117.393 210.127L127.659 228.933L136.83 231.572C136.83 231.572 160.172 230.631 164.841 230.631C167.408 230.631 168.472 229.533 170.62 224.966C171.175 223.787 171.355 223.438 172.184 221.629C174.197 217.239 145.145 202.147 145.145 202.147L143.099 198.622L117.393 210.127Z" fill="#12406D"/>
<path d="M155.971 220.457L158.969 217.036L157.921 213.823L153.539 214.966L155.971 220.457Z" fill="#BAD9E9"/>
<path d="M168.103 232.906H136.83V230.24H168.103C170.181 230.24 171.437 229.268 172.58 226.776L177.817 215.356C178.289 214.326 178.424 213.614 178.238 213.114C178.043 212.584 180.237 210.933 180.697 212.175C181.288 213.771 180.695 215.398 180.199 216.481L174.96 227.901C173.975 230.049 172.192 232.906 168.103 232.906Z" fill="#BAD9E9"/>
<path d="M96.2869 201.8C103.096 201.8 109.248 204.428 113.593 208.829C115.472 210.733 117.556 211.096 119.666 211.096H122.149C122.011 210.847 125.208 210.132 125.063 209.888C119.972 201.336 107.149 196.344 96.2869 196.344C82.1856 196.344 70.4048 205.551 67.5484 218.773C67.426 219.34 67.3036 220.498 68.8173 220.498H71.0723C72.3088 220.498 72.9883 219.435 73.4364 218.039C76.5326 208.394 85.5429 201.8 96.2869 201.8Z" fill="#12406D"/>
<path d="M103.762 225.147C103.762 229.481 100.302 232.992 96.0351 232.992C91.7677 232.992 88.3078 229.481 88.3078 225.147C88.3078 220.815 91.7677 217.302 96.0351 217.302C100.302 217.302 103.762 220.815 103.762 225.147Z" fill="#4D84AE"/>
<path d="M182.72 176.909L186.543 174.65L190.249 175.875L186.01 181.237L182.72 176.909Z" fill="#12406D"/>
<path fill-rule="evenodd" clip-rule="evenodd" d="M191.518 223.278C191.518 212.695 199.966 204.116 210.389 204.116C220.811 204.116 229.26 212.695 229.26 223.278C229.26 233.86 220.811 242.439 210.389 242.439C199.966 242.439 191.518 233.86 191.518 223.278ZM193.618 223.278C193.618 232.682 201.127 240.306 210.389 240.306C219.651 240.306 227.158 232.682 227.158 223.278C227.158 213.873 219.651 206.251 210.389 206.251C201.127 206.251 193.618 213.873 193.618 223.278Z" fill="#739FC0"/>
<path fill-rule="evenodd" clip-rule="evenodd" d="M187.424 223.278C187.424 210.4 197.706 199.96 210.389 199.96C223.071 199.96 233.353 210.4 233.353 223.278C233.353 236.154 223.071 246.595 210.389 246.595C197.706 246.595 187.424 236.154 187.424 223.278ZM192.227 223.278C192.227 233.463 200.356 241.719 210.389 241.719C220.42 241.719 228.551 233.463 228.551 223.278C228.551 213.092 220.42 204.835 210.389 204.835C200.356 204.835 192.227 213.092 192.227 223.278Z" fill="#12406D"/>
<path d="M158.506 213.377H162.59V209.77H158.506V213.377Z" fill="#BAD9E9"/>
<path d="M192.226 223.278C192.226 216.634 195.685 210.812 200.874 207.566L197.96 203.667C191.622 207.818 187.424 215.05 187.424 223.278C187.424 230.743 190.88 237.39 196.256 241.658L199.684 238.177C195.164 234.823 192.226 229.399 192.226 223.278Z" fill="#12406D"/>
<path d="M189.981 223.278C189.981 211.832 199.117 202.557 210.389 202.557H213.354C214.119 202.557 215.066 202.25 215.889 201.65C216.651 201.096 217.442 200.531 217.974 199.96C218.714 199.167 218.056 198.367 217.453 198.193C215.208 197.542 212.839 197.194 210.389 197.194C205.624 197.194 201.162 198.511 197.338 200.806C189.774 205.344 184.699 213.709 184.699 223.278V227.041H186.96C189.299 227.041 189.981 225.668 189.981 223.278Z" fill="#E3F0F5"/>
<path d="M189.981 223.278C189.981 211.832 199.117 202.557 210.389 202.557H213.354C214.119 202.557 215.066 202.25 215.889 201.65C216.651 201.096 217.442 200.531 217.974 199.96C218.714 199.167 218.056 198.367 217.453 198.193C215.943 199.421 216.282 199.96 210.389 199.96C205.846 199.96 202.752 200.894 199.05 202.993C198.869 203.096 197.516 200.698 197.338 200.806C189.774 205.344 184.699 213.709 184.699 223.278V227.041H186.96C189.299 227.041 189.981 225.668 189.981 223.278Z" fill="#BAD9E9"/>
<path fill-rule="evenodd" clip-rule="evenodd" d="M78.6757 225.147C78.6757 215.412 86.4487 207.521 96.035 207.521C105.621 207.521 113.394 215.412 113.394 225.147C113.394 234.881 105.621 242.771 96.035 242.771C86.4487 242.771 78.6757 234.881 78.6757 225.147ZM82.5216 225.147C82.5216 232.725 88.572 238.87 96.0348 238.87C103.498 238.87 109.547 232.725 109.547 225.147C109.547 217.57 103.498 211.427 96.0348 211.427C88.572 211.427 82.5216 217.57 82.5216 225.147Z" fill="#739FC0"/>
<path fill-rule="evenodd" clip-rule="evenodd" d="M74.9118 225.147C74.9118 213.301 84.3694 203.699 96.0349 203.699C107.701 203.699 117.159 213.301 117.159 225.147C117.159 236.992 107.701 246.595 96.0349 246.595C84.3694 246.595 74.9118 236.992 74.9118 225.147ZM80.3004 225.147C80.3004 233.972 87.3447 241.124 96.0349 241.124C104.725 241.124 111.771 233.972 111.771 225.147C111.771 216.323 104.725 209.17 96.0349 209.17C87.3447 209.17 80.3004 216.323 80.3004 225.147Z" fill="#12406D"/>
<path d="M220.14 223.278C220.14 228.746 215.774 233.179 210.389 233.179C205.002 233.179 200.637 228.746 200.637 223.278C200.637 217.809 205.002 213.377 210.389 213.377C215.774 213.377 220.14 217.809 220.14 223.278Z" fill="#739FC0"/>
<path d="M206.007 214.433C202.822 216.061 200.637 219.409 200.637 223.278C200.637 227.049 202.713 230.327 205.768 232L213.368 224.282L206.007 214.433Z" fill="#4D84AE"/>
<path d="M212.438 222.803L209.102 224.966L175.711 171.902L179.047 169.739L212.438 222.803Z" fill="#BAD9E9"/>
<path d="M210.77 223.885L209.102 224.967L175.711 171.902L177.378 170.82L210.77 223.885Z" fill="#92C1DB"/>
<path d="M175.068 185.596C175.068 185.596 175.833 185.138 176.261 184.865C176.69 184.593 177.153 184.699 177.432 185.151C177.545 185.335 177.83 185.793 178.127 186.275C178.564 186.978 178.935 188.222 179.068 190.34C179.199 192.456 179.219 200.337 179.219 200.337C179.219 200.337 178.756 200.19 178.586 199.447C178.416 198.702 177.533 195.94 176.032 193.703C174.71 191.736 172.844 191.366 172.844 191.366L175.068 185.596Z" fill="#2A537C"/>
<path d="M196.95 166.084C197.132 168.405 196.984 170.48 196.503 172.307C196.023 174.134 195.422 175.653 194.7 176.862L194.416 168.011L196.95 166.084Z" fill="#92C1DB"/>
<path d="M194.989 165.807C189.137 165.807 183.194 168.326 182.744 171.357C182.295 174.368 188.441 176.909 193.785 176.909C194.114 176.909 194.417 176.892 194.7 176.862C194.866 171.044 195.387 168.98 196.95 166.084C196.462 165.905 195.825 165.807 194.989 165.807Z" fill="#BAD9E9"/>
<path d="M138.128 198.548C138.128 198.548 144.52 188.011 151.748 182.554C158.976 177.096 164.443 175.874 168.89 175.874C173.339 175.874 175.712 180.013 175.712 183.683C175.712 187.352 175.046 189.719 173.844 191.379C172.945 192.62 171.105 192.797 168.775 193.115C161.686 194.079 155.979 195.869 149.431 198.643C145.068 200.49 140.629 202.5 140.629 202.5L138.128 198.548Z" fill="#E3F0F5"/>
<path d="M143.757 194.48C145.573 192.11 148.451 189.268 151.508 186.96C157.673 182.305 163.486 180.325 168.605 180.325C172.525 180.325 173.448 182.264 173.86 184.361C174.238 186.284 174.272 188.849 173.231 190.287C172.617 191.132 171.105 191.336 169.191 191.592L168.784 191.647C162.116 192.554 156.443 194.173 149.208 197.239C148.23 197.652 147.248 198.075 146.309 198.483C144.089 199.447 142.042 196.717 143.757 194.48Z" fill="#BAD9E9"/>
<path d="M165.124 220.457L162.127 217.036L163.175 213.823L167.557 214.966L165.124 220.457Z" fill="#BAD9E9"/>
<path d="M121.422 211.096C121.422 211.096 127.416 222.075 128.133 223.39C128.851 224.703 129.848 225.086 131.226 225.086H134.453C135.701 225.086 136.955 224.25 137.216 222.963C137.704 220.56 138.515 216.578 139.147 213.507C139.653 211.058 141.028 208.409 141.633 206.734C141.986 205.758 142.014 204.887 141.664 204.283L140.63 202.501L121.422 211.096Z" fill="#6DA9CB"/>
<path d="M131.226 223.58C130.12 223.58 129.778 223.296 129.43 222.659L140.021 204.417L140.386 205.047C140.431 205.124 140.5 205.502 140.242 206.215C140.068 206.695 139.809 207.301 139.535 207.943C138.885 209.465 138.075 211.361 137.695 213.2C137.045 216.354 136.207 220.48 135.764 222.659C135.649 223.228 134.993 223.58 134.453 223.58H131.226Z" fill="#BAD9E9"/>
<path d="M160.505 215.766C163.056 215.766 165.124 217.866 165.124 220.456C165.124 222.139 164.304 223.795 162.943 224.442C162.182 224.803 152.924 229.172 152.088 229.564C150.954 230.098 149.731 230.162 148.876 230.162C144.68 230.162 141.277 227.432 141.277 222.854C141.277 218.593 142.852 215.766 146.189 215.766H160.505Z" fill="#5398C3"/>
<path d="M148.876 227.338C146.653 227.338 144.057 226.164 144.057 222.854C144.057 220.723 144.521 219.697 144.799 219.274C145.067 218.862 145.406 218.589 146.19 218.589H160.505C161.519 218.589 162.344 219.427 162.344 220.456C162.344 221.198 162.002 221.773 161.765 221.884C161.061 222.22 151.839 226.572 150.922 227.003C150.281 227.304 149.448 227.338 148.876 227.338Z" fill="#12406D"/>
<path d="M148.876 226.586C148.195 226.586 144.799 226.406 144.799 222.854C144.799 220.849 145.23 219.973 145.415 219.691C145.544 219.495 145.643 219.34 146.19 219.34H160.505C161.111 219.34 161.603 219.842 161.603 220.457C161.603 220.851 161.462 221.137 161.39 221.232C160.344 221.727 151.521 225.892 150.61 226.32C150.044 226.586 149.165 226.586 148.876 226.586Z" fill="#92C1DB"/>
<path d="M162.59 220.498C162.59 221.718 161.616 222.708 160.414 222.708C159.211 222.708 158.238 221.718 158.238 220.498C158.238 219.277 159.211 218.287 160.414 218.287C161.616 218.287 162.59 219.277 162.59 220.498Z" fill="#92C1DB"/>
<path d="M170.194 212.942L163.175 209.77L166.751 201.611L173.771 204.782L170.194 212.942Z" fill="#92C1DB"/>
<path d="M170.194 212.942L163.175 209.77V213.823L167.557 214.965L170.194 212.942Z" fill="#5398C3"/>
<path d="M174.034 202.441L168.473 199.959L166.751 201.611L173.771 204.782L174.034 202.441Z" fill="#5398C3"/>
<path d="M150.903 212.942L157.922 209.77L154.345 201.611L147.326 204.782L150.903 212.942Z" fill="#92C1DB"/>
<path d="M150.903 212.942L157.922 209.77V213.823L153.539 214.965L150.903 212.942Z" fill="#5398C3"/>
<path d="M147.062 202.441L152.624 199.959L154.345 201.611L147.326 204.782L147.062 202.441Z" fill="#5398C3"/>
<path d="M165.466 208.802C165.08 209.76 163.932 210.543 162.912 210.543H158.184C157.164 210.543 156.014 209.76 155.63 208.802L152.397 200.761C152.011 199.802 152.451 198.658 153.374 198.217C153.374 198.217 155.634 197.136 160.548 197.136C165.463 197.136 167.723 198.217 167.723 198.217C168.645 198.658 169.084 199.802 168.698 200.761L165.466 208.802Z" fill="#6DA9CB"/>
<path d="M158.183 209.04C157.766 209.04 157.16 208.624 157.002 208.234L153.77 200.192C153.683 199.977 153.798 199.679 154.005 199.58C154.014 199.575 156.11 198.643 160.548 198.643C164.985 198.643 167.082 199.575 167.103 199.585C167.298 199.679 167.413 199.977 167.326 200.192L164.093 208.234C163.936 208.624 163.329 209.04 162.913 209.04H158.183Z" fill="#5398C3"/>
<path d="M90.2957 234.9H125.939V227.338H90.2957V234.9Z" fill="#BAD9E9"/>
<path d="M90.2957 234.929H125.939V230.866H90.2957V234.929Z" fill="#92C1DB"/>
<path d="M137.016 232.906L125.939 234.9V227.338L137.016 230.24V232.906Z" fill="#5398C3"/>
<path d="M88.5238 234.237L90.2963 234.9V227.339L88.5238 228.003V234.237Z" fill="#447EAB"/>
<path d="M72.8022 210.698C72.8022 209.482 70.7385 208.497 69.0771 208.497V212.901C70.7385 212.901 72.8022 211.915 72.8022 210.698Z" fill="#6DA9CB"/>
<path d="M69.0772 212.889V208.497C67.8632 208.497 67.7527 208.779 67.7527 210.693C67.7527 212.606 67.8632 212.889 69.0772 212.889Z" fill="#FEA62C"/>
<path d="M69.0773 208.497V210.698H72.8024C72.8024 209.482 70.7387 208.497 69.0773 208.497Z" fill="#E3F0F5"/>
<path d="M99.5119 223.904L96.7575 221.56L110.87 204.466L113.624 206.81L99.5119 223.904Z" fill="#646463"/>
<path d="M96.7129 226.244L94.9769 224.767L106.526 210.778L108.262 212.255L96.7129 226.244Z" fill="#3E3E41"/>
<path d="M96.7127 226.244L95.8447 225.506L107.395 211.517L108.262 212.255L96.7127 226.244Z" fill="#1F1F23"/>
<path d="M109.19 213.045L105.599 209.987L111.478 202.867L115.07 205.924L109.19 213.045Z" fill="#80A8C6"/>
<path d="M115.815 203.134L114.053 201.633L112.393 203.646L114.155 205.144L115.815 203.134Z" fill="#646463"/>
<path d="M177.207 171.551C176.85 171.551 176.501 171.366 176.305 171.033L175.301 169.335C174.77 168.437 173.98 166.975 173.255 164.657C172.834 163.311 171.858 160.091 171.112 157.626C170.963 157.135 170.748 156.91 170.598 156.864C170.419 156.808 170.129 156.929 169.821 157.185C168.541 158.245 161.503 163.951 161.204 164.193C160.751 164.561 160.089 164.486 159.727 164.026C159.364 163.565 159.438 162.894 159.892 162.527C159.966 162.467 167.222 156.585 168.491 155.531C169.368 154.804 170.334 154.552 171.208 154.821C172.099 155.096 172.778 155.869 173.12 157C173.864 159.459 174.839 162.672 175.258 164.011C175.908 166.092 176.585 167.362 177.103 168.236L178.106 169.935C178.405 170.441 178.244 171.095 177.747 171.399C177.577 171.502 177.391 171.551 177.207 171.551Z" fill="#BAD9E9"/>
<path d="M167.085 159.744L161.396 164.408L159.776 162.319L165.465 157.656L167.085 159.744Z" fill="#286B9E"/>
<path d="M161.19 162.882C161.637 163.458 161.73 164.142 161.397 164.408C161.062 164.675 160.43 164.423 159.983 163.848C159.535 163.27 159.443 162.586 159.776 162.319C160.109 162.054 160.742 162.304 161.19 162.882Z" fill="#2E577F"/>
<path d="M166.878 158.217C167.325 158.794 167.418 159.478 167.085 159.744C166.751 160.012 166.118 159.759 165.671 159.184C165.224 158.606 165.131 157.923 165.465 157.656C165.798 157.39 166.431 157.641 166.878 158.217Z" fill="#286B9E"/>
<path d="M165.908 147.179C166.033 148.205 165.307 149.149 164.297 149.274L163.404 149.384C162.393 149.509 161.428 148.775 161.26 147.755L160.695 144.316C160.529 143.296 161.226 142.46 162.244 142.46H163.48C164.499 142.46 165.435 143.301 165.561 144.328L165.908 147.179Z" fill="#BAD9E9"/>
<path d="M168.052 157.051C167.811 157.051 167.611 156.868 167.585 156.624C167.578 156.569 166.839 149.672 166.629 147.958C166.469 146.661 166.249 146.46 164.945 146.416C164.818 146.413 164.702 146.358 164.616 146.265C164.531 146.173 164.486 146.051 164.49 145.923C164.498 145.664 164.704 145.46 164.96 145.46C166.601 145.515 167.32 145.856 167.563 147.84C167.74 149.283 168.282 154.295 168.506 156.381L168.521 156.521C168.549 156.784 168.362 157.02 168.104 157.049C168.087 157.05 168.069 157.051 168.052 157.051Z" fill="#80A8C6"/>
<path d="M213.368 224.282L210.033 226.445L207.352 222.186L210.688 220.022L213.368 224.282Z" fill="#12406D"/>
<path d="M211.8 223.278C211.8 224.069 211.168 224.712 210.388 224.712C209.608 224.712 208.976 224.069 208.976 223.278C208.976 222.486 209.608 221.844 210.388 221.844C211.168 221.844 211.8 222.486 211.8 223.278Z" fill="#80A8C6"/>
<path d="M180.659 171.342L176.465 174.064L175.081 171.863L179.276 169.141L180.659 171.342Z" fill="#6DA9CB"/>
<path d="M183.903 176.494L179.708 179.217L178.324 177.017L182.519 174.296L183.903 176.494Z" fill="#6DA9CB"/>
<path d="M190.458 186.912L186.263 189.635L184.878 187.434L189.073 184.713L190.458 186.912Z" fill="#6DA9CB"/>
<path d="M184.161 181.882C184.161 183.099 186.226 184.086 187.887 184.086V179.68C186.226 179.68 184.161 180.667 184.161 181.882Z" fill="#6DA9CB"/>
<path d="M187.887 179.692V184.085C189.101 184.085 189.21 183.803 189.21 181.888C189.21 179.975 189.101 179.692 187.887 179.692Z" fill="#FEA62C"/>
<path d="M187.887 179.68C186.226 179.68 184.161 180.667 184.161 181.882H187.887V179.68Z" fill="#E3F0F5"/>
<path d="M194.989 165.807C189.137 165.807 183.194 168.326 182.744 171.357C185.04 169.905 190.504 169.874 194.115 170.315C194.447 168.746 194.975 167.299 195.783 165.842C195.541 165.819 195.277 165.807 194.989 165.807Z" fill="#E3F0F5"/>
<path d="M97.5535 225.147C97.5535 225.999 96.8733 226.689 96.0349 226.689C95.1958 226.689 94.517 225.999 94.517 225.147C94.517 224.296 95.1958 223.606 96.0349 223.606C96.8733 223.606 97.5535 224.296 97.5535 225.147Z" fill="#1F1F23"/>
<path d="M140.629 202.501C140.629 202.501 126.631 208.765 124.853 209.561C123.076 210.355 120.838 210.162 119.692 208.761C117.559 206.15 113.48 201.919 107.611 199.081C107.17 198.887 106.97 198.807 106.412 198.58C107.761 195.651 110.082 193.562 110.082 193.562C110.082 193.562 116.816 199.817 119.225 201.08C121.635 202.343 131.456 202.594 133.062 201.841C134.668 201.089 138.127 198.548 138.127 198.548L140.629 202.501Z" fill="#286B9E"/>
<path d="M108.148 197.882C107.853 198.542 107.072 198.855 106.412 198.58C106.412 198.58 104.203 197.655 99.6044 197.655H92.0459C91.3327 197.655 90.5955 197.082 90.4091 196.383L89.7283 193.829C89.5412 193.13 89.9716 192.558 90.6863 192.558H103.472C104.185 192.558 105.33 192.391 106.014 192.185C106.014 192.185 106.633 192.005 107.093 191.861C107.8 191.639 108.262 191.867 108.631 192.218C109.139 192.701 110.082 193.562 110.082 193.562C110.082 193.562 109.84 194.102 109.545 194.761L108.148 197.882Z" fill="#4680AC"/>
<ellipse opacity="0.1" rx="24.6708" ry="3.24129" transform="matrix(-1 0 0 1 106.01 267.767)" fill="#3D89BA"/>
<ellipse opacity="0.1" cx="265" cy="267.767" rx="24.6708" ry="3.24129" fill="#3D89BA"/>
<path fill-rule="evenodd" clip-rule="evenodd" d="M98.4151 165.318L97.6683 168.728L98.0983 183.029L96.9734 191.928L96.8483 194.631L98.6638 194.589L99.6599 182.947L98.6638 168.894L98.4151 165.318Z" fill="black"/>
<path fill-rule="evenodd" clip-rule="evenodd" d="M96.8207 172.905C96.8207 172.905 96.7755 173.898 96.7045 175.458C96.8636 175.312 96.9568 175.227 96.9576 175.227C96.9605 175.227 96.8177 172.904 96.8207 172.905Z" fill="#2C5288"/>
<mask id="mask9" mask-type="alpha" maskUnits="userSpaceOnUse" x="87" y="149" width="41" height="115">
<path fill-rule="evenodd" clip-rule="evenodd" d="M87.8509 149.852H127.182V263.55H87.8509V149.852Z" fill="white"/>
</mask>
<g mask="url(#mask9)">
<path fill-rule="evenodd" clip-rule="evenodd" d="M127.182 170.992L124.584 158.084L124.577 158.083C124.291 157.313 123.229 155.109 120.27 154.342L108.699 149.993C108.696 149.967 108.694 149.943 108.691 149.918C108.689 149.904 108.694 149.892 108.694 149.879L108.62 149.852L108.471 149.907L108.324 149.852L108.25 149.879C108.25 149.892 108.255 149.904 108.252 149.918C108.249 149.943 108.247 149.967 108.244 149.993L95.921 154.369C92.9621 155.136 91.9009 157.34 91.6137 158.11L91.607 158.111L87.9392 178.278C87.6661 179.779 88.0331 181.327 88.9509 182.544C88.9509 182.544 95.3519 176.69 96.704 175.458C96.7758 173.897 96.821 172.905 96.821 172.905C96.818 172.904 96.9609 175.227 96.9579 175.227C96.9572 175.227 96.8639 175.312 96.704 175.458C96.431 181.475 95.7664 196.084 95.7656 196.084L95.528 206.129L96.673 263.55L101.65 263.051L107.973 206.791L111.98 263.55L116.957 263.051L121.013 206.152C121.043 205.737 121.278 186.016 121.268 185.601C121.268 185.601 120.28 180.261 120.364 173.191C120.389 171.056 127.126 170.992 127.182 170.992Z" fill="#205C8C"/>
</g>
<path fill-rule="evenodd" clip-rule="evenodd" d="M97.0349 197.984C96.9816 197.982 96.9335 197.982 96.8802 197.98C96.8913 197.982 96.952 197.982 97.0349 197.984Z" fill="black"/>
<path fill-rule="evenodd" clip-rule="evenodd" d="M105.214 265.227L101.561 262.897H96.6576C96.6576 262.897 95.4565 265.227 95.8739 267.861H108.453C108.453 267.861 108.244 265.531 105.214 265.227Z" fill="#205C8C"/>
<path fill-rule="evenodd" clip-rule="evenodd" d="M110.674 144.522L103.595 146.014L105.282 154.084C105.294 154.145 105.318 154.2 105.333 154.261C105.341 154.307 105.338 154.354 105.348 154.401C105.753 156.339 107.651 157.579 109.587 157.172C111.338 156.802 112.508 155.21 112.417 153.475C112.432 153.184 112.423 152.891 112.361 152.592L110.674 144.522Z" fill="#C39276"/>
<path fill-rule="evenodd" clip-rule="evenodd" d="M122.701 265.227L117.206 262.897H111.936C111.936 262.897 110.774 265.227 111.178 267.861H125.834C125.834 267.861 125.632 265.531 122.701 265.227Z" fill="#205C8C"/>
<path fill-rule="evenodd" clip-rule="evenodd" d="M112.847 136.067L99.9138 137.632L100.704 143.709C100.93 145.604 103.11 146.077 104.87 147.33C106.21 148.284 106.971 150.31 108.41 150.136C111.738 149.732 114.115 146.702 113.717 143.365L112.847 136.067Z" fill="#C39276"/>
<path fill-rule="evenodd" clip-rule="evenodd" d="M104.547 132.292C104.547 132.292 98.7475 132.21 99.391 137.609L99.9547 142.333C99.9547 142.333 100.561 146.143 102.677 147.952C103.024 148.248 104.442 149.05 104.729 148.839L103.033 144.776C103.033 144.776 101.237 145.177 100.838 141.835C100.693 140.613 101.174 140.523 101.555 140.476C102.067 140.415 102.544 141.14 102.544 141.14L103.506 141.023L103.284 139.16L103.279 139.147L103.316 139.155C103.316 139.155 103.024 137.251 104.996 137.012L112.847 136.062C112.847 136.062 113.218 135.997 113.521 135.353C114.42 133.441 112.755 131.298 110.665 131.551L104.547 132.292Z" fill="#12406D"/>
<path fill-rule="evenodd" clip-rule="evenodd" d="M109.046 143.882C107.923 144.019 106.688 145.097 106.821 146.226L108.752 145.993C109.875 145.858 110.677 144.831 110.542 143.702L109.046 143.882Z" fill="#12406D"/>
<path fill-rule="evenodd" clip-rule="evenodd" d="M111.805 143.549L110.309 143.73C110.444 144.859 111.464 145.665 112.587 145.529L114.083 145.348C113.948 144.218 112.928 143.414 111.805 143.549Z" fill="#12406D"/>
<path fill-rule="evenodd" clip-rule="evenodd" d="M112.126 145.396C111.733 145.855 111.36 146.07 110.802 146.137C109.542 146.29 108.884 145.788 108.884 145.788L106.963 146.021C105.736 145.402 103.861 143.869 103.42 140.169L101.895 139.922L103.283 146.467C103.398 146.774 104.977 150.869 108.887 150.396C108.887 150.396 114.714 150.638 113.731 145.202L112.126 145.396Z" fill="#12406D"/>
<path opacity="0.01" fill-rule="evenodd" clip-rule="evenodd" d="M113.793 142.055L109.333 141.262L104.128 142.49L104.521 148.586C104.521 148.586 106.183 150.825 109.903 150.417C111.031 150.293 113.161 149.452 113.85 147.656C114.359 146.33 113.793 142.055 113.793 142.055Z" fill="#EDFF8A"/>
<path opacity="0.01" fill-rule="evenodd" clip-rule="evenodd" d="M113.794 142.055L109.334 141.262L109.903 150.417C109.903 150.417 113.069 149.872 113.85 147.656C114.327 146.304 113.794 142.055 113.794 142.055Z" fill="#DDEE80"/>
<path opacity="0.01" fill-rule="evenodd" clip-rule="evenodd" d="M104.129 142.49L102.341 140.124L102.317 140.585L104.3 144.269L104.129 142.49Z" fill="white"/>
<path fill-rule="evenodd" clip-rule="evenodd" d="M119.467 173.514L120.383 173.181L120.133 166.344L119.467 173.514Z" fill="black"/>
<path fill-rule="evenodd" clip-rule="evenodd" d="M109.028 196.987C109.154 196.993 109.279 196.998 109.405 197.004C109.937 180.171 110.06 157.352 110.058 157.116L109.109 157.125C109.112 157.36 109.435 180.168 109.028 196.987Z" fill="#ED6C0D"/>
<path fill-rule="evenodd" clip-rule="evenodd" d="M111.815 150C111.815 150 111.919 154.179 109.151 156.948L111.598 159.593C111.598 159.593 113.329 157.01 113.773 156.132C114.835 154.031 114.069 152.251 114.069 152.251L111.815 150Z" fill="#ED6C0D"/>
<path fill-rule="evenodd" clip-rule="evenodd" d="M102.109 152.003C102.109 152.003 102.331 153.635 103.937 156.034C105.477 158.333 107.149 159.89 107.149 159.89L109.324 157.121C106.556 154.352 104.407 149.902 104.407 149.902L102.109 152.003Z" fill="#ED6C0D"/>
<path fill-rule="evenodd" clip-rule="evenodd" d="M109.802 186.392H124.234L130.955 166.614H116.523L109.802 186.392Z" fill="#333333"/>
<path fill-rule="evenodd" clip-rule="evenodd" d="M129.398 173.429H125.745C125.333 173.429 124.999 173.765 124.999 174.18C124.999 174.594 125.333 174.931 125.745 174.931H129.398C129.812 174.931 130.147 174.594 130.147 174.18C130.147 173.765 129.812 173.429 129.398 173.429Z" fill="#C39276"/>
<path fill-rule="evenodd" clip-rule="evenodd" d="M128.791 174.895H125.138C124.725 174.895 124.391 175.231 124.391 175.646C124.391 176.06 124.725 176.397 125.138 176.397H128.791C129.204 176.397 129.539 176.06 129.539 175.646C129.539 175.231 129.204 174.895 128.791 174.895Z" fill="#C39276"/>
<path fill-rule="evenodd" clip-rule="evenodd" d="M128.326 176.362H124.673C124.26 176.362 123.926 176.698 123.926 177.113C123.926 177.527 124.26 177.864 124.673 177.864H128.326C128.74 177.864 129.074 177.527 129.074 177.113C129.074 176.698 128.74 176.362 128.326 176.362Z" fill="#C39276"/>
<path fill-rule="evenodd" clip-rule="evenodd" d="M127.79 177.649H125.656C125.243 177.649 124.908 177.986 124.908 178.4C124.908 178.815 125.243 179.151 125.656 179.151H127.79C128.203 179.151 128.538 178.815 128.538 178.4C128.538 177.986 128.203 177.649 127.79 177.649Z" fill="#C39276"/>
<path fill-rule="evenodd" clip-rule="evenodd" d="M128.55 173.668L126.211 180.525L129.539 178.745L130.395 176.207L130.146 174.239L128.55 173.668Z" fill="#C39276"/>
<path fill-rule="evenodd" clip-rule="evenodd" d="M110.058 167.671L112.872 175.301L113.657 175.008L110.844 167.379L110.058 167.671Z" fill="#ECF4F8"/>
<path fill-rule="evenodd" clip-rule="evenodd" d="M106.49 176.503L104.709 180.783L107.929 179.665C108.337 180.525 110.573 180.233 110.573 180.233L111.946 180.082L113.835 174.526L110.573 174.18L106.49 176.503Z" fill="#C39276"/>
<path fill-rule="evenodd" clip-rule="evenodd" d="M96.4028 175.201L88.9509 182.544L90.4296 183.243C91.5745 183.785 92.8667 183.927 94.1012 183.648L107.088 180.715L105.904 175.646L96.4028 175.201Z" fill="#205C8C"/>
<path fill-rule="evenodd" clip-rule="evenodd" d="M104.52 175.238L105.5 180.988L107.497 180.644L106.517 174.895L104.52 175.238Z" fill="#ED6C0D"/>
<path fill-rule="evenodd" clip-rule="evenodd" d="M248.194 177.409L243.545 191.041L239.837 196.032L239.007 200.087L239.6 202.37C239.798 202.544 240.066 202.613 240.323 202.556C240.581 202.5 240.796 202.325 240.903 202.084C241.426 201.162 243.691 196.995 243.691 196.995C243.691 196.995 244.43 196.995 244.172 197.896C243.914 198.796 243.747 200.185 244.723 200.569L246.166 196.514L246.779 192.947L253.373 182.595L256.915 163.469L251.791 157.256L248.194 177.409Z" fill="#FFE0B3"/>
<path fill-rule="evenodd" clip-rule="evenodd" d="M287.07 177.73L283.292 162.373L275.735 159.581L281.444 178.428L283.598 193.784L282.824 197.721L282.727 202.021C283.779 202.021 284.121 200.625 284.191 199.718C284.26 198.81 284.964 199.054 284.964 199.054C284.964 199.054 285.571 203.752 285.731 204.792C285.747 205.055 285.885 205.296 286.104 205.441C286.324 205.587 286.599 205.62 286.847 205.532L288.241 203.613L288.938 199.529L287.202 193.359L287.07 177.73Z" fill="#FFE0B3"/>
<path opacity="0.1" fill-rule="evenodd" clip-rule="evenodd" d="M287.07 177.73L283.291 162.373L277.785 166.561C277.959 167.015 282.302 166.798 282.302 166.798C283.243 170.435 284.309 174.588 284.783 176.187C286.177 180.829 285.201 191.174 285.675 192.737C286.2 194.401 286.587 196.106 286.833 197.833C287.181 200.381 287.488 203.117 286.728 205.511H286.833L288.227 203.592L288.924 199.508L287.188 193.338L287.07 177.73Z" fill="black"/>
<path opacity="0.1" fill-rule="evenodd" clip-rule="evenodd" d="M254.733 167.078L255.458 167.364L256.106 162.896L255.5 164.195L254.733 167.078Z" fill="black"/>
<path fill-rule="evenodd" clip-rule="evenodd" d="M284.853 165.109L282.455 156.663C282.441 156.603 282.423 156.545 282.399 156.489V156.398C281.689 154.566 280.126 153.202 278.217 152.747L266.904 148.496C266.904 148.496 266.904 148.447 266.904 148.419C266.904 148.391 266.904 148.419 266.904 148.384H266.827L266.687 148.44L266.541 148.384H266.471V148.419C266.471 148.419 266.471 148.468 266.471 148.496L255.158 152.747C253.249 153.202 251.686 154.566 250.976 156.398V156.489L250.92 156.663L249.407 165.612L248.076 176.997L243.196 190.922L247.016 193.714L254.336 182.197L255.43 173.939L255.186 180.78L254.768 197.791C262.435 197.7 270.305 197.791 278.015 197.791L277.771 180.773L277.29 167.671L281.472 178.407L283.089 193.47H287.69L287.097 177.73L284.853 165.109Z" fill="#92C1DB"/>
<path fill-rule="evenodd" clip-rule="evenodd" d="M266.834 148.419C266.834 148.419 266.834 148.419 266.834 148.384H266.757L266.618 148.44L266.472 148.384H266.402V148.419C266.402 148.419 266.402 148.468 266.402 148.496L260.128 150.862C263.272 155.33 263.809 162.073 264.311 167.615C264.959 168.348 264.812 169.172 264.847 170.149C265.133 177.827 264.847 189.98 265.098 197.819H265.795C265.238 190.985 265.97 178.553 266.025 171.992C266.028 171.292 266.07 170.593 266.151 169.898C265.715 168.927 265.981 167.784 266.799 167.106C267.067 166.36 267.384 165.632 267.747 164.928C270.166 160.153 272.09 156.133 272.996 150.786L266.897 148.496C266.897 148.496 266.841 148.447 266.834 148.419Z" fill="white"/>
<path fill-rule="evenodd" clip-rule="evenodd" d="M263.132 151.477C263.216 153.372 264.775 154.865 266.67 154.865C268.565 154.865 270.124 153.372 270.208 151.477V143.554H263.132V151.477Z" fill="#FFE0B3"/>
<path opacity="0.1" fill-rule="evenodd" clip-rule="evenodd" d="M263.132 147.686V148.384C264.909 149.268 267.058 148.835 268.353 147.33C268.353 147.33 265.468 149.034 263.132 147.686Z" fill="black"/>
<path fill-rule="evenodd" clip-rule="evenodd" d="M260.016 142.465C260.015 144.043 260.64 145.557 261.754 146.673C262.868 147.788 264.38 148.414 265.955 148.412C269.232 148.412 272.689 144.559 272.689 141.272L272.752 135.289H260.016V142.465Z" fill="#FFE0B3"/>
<path fill-rule="evenodd" clip-rule="evenodd" d="M267.635 130.648H258.574C258.574 135.206 260.044 135.282 260.044 135.282H267.775C268.282 135.256 268.776 135.446 269.135 135.805C269.493 136.165 269.683 136.66 269.657 137.167V139.01H270.605C270.605 139.01 270.981 138.256 271.49 138.256C271.86 138.256 272.341 138.256 272.341 139.485C272.341 142.772 270.73 142.556 270.73 142.556L270.215 146.451C273.059 144.964 273.254 139.869 273.254 139.869V135.22C273.254 129.894 267.635 130.648 267.635 130.648Z" fill="#12406D"/>
<path opacity="0.01" fill-rule="evenodd" clip-rule="evenodd" d="M260.017 140.42L263.251 139.669L268.89 141.071L270.731 142.556L270.208 146.451C270.208 146.451 267.618 148.902 264.819 148.384C263.639 148.166 261.412 146.994 260.444 144.927C259.882 143.727 260.017 140.42 260.017 140.42Z" fill="#FF8067"/>
<path opacity="0.01" fill-rule="evenodd" clip-rule="evenodd" d="M260.016 140.42L262.767 139.669L262.468 147.281C262.468 147.281 261.28 146.451 260.444 144.927C259.837 143.822 260.016 140.42 260.016 140.42Z" fill="#FF6359"/>
<path opacity="0.01" fill-rule="evenodd" clip-rule="evenodd" d="M268.205 140.879L270.538 138.46L271.037 138.203L271.205 138.315L270.976 138.531L269.274 141.345L268.205 140.879Z" fill="white"/>
<path opacity="0.01" fill-rule="evenodd" clip-rule="evenodd" d="M270.215 146.451L271.881 141.804L271.377 142.379L270.099 145.081L270.215 146.451Z" fill="white"/>
<path opacity="0.1" fill-rule="evenodd" clip-rule="evenodd" d="M262.84 137.565L262.205 141.907C262.205 141.907 263.216 143.303 264.296 141.739H262.714L262.84 137.565Z" fill="black"/>
<rect x="265.565" y="168.467" width="0.543709" height="29.3731" fill="#BAD9E9"/>
<path fill-rule="evenodd" clip-rule="evenodd" d="M282.713 191.692C282.71 191.604 282.778 191.529 282.867 191.526L287.791 191.33C287.88 191.327 287.954 191.396 287.958 191.484L288.034 193.41C288.038 193.498 287.969 193.573 287.88 193.576L282.956 193.772C282.867 193.775 282.793 193.706 282.789 193.618L282.713 191.692Z" fill="#BAD9E9"/>
<path fill-rule="evenodd" clip-rule="evenodd" d="M242.509 191.7C242.428 191.663 242.394 191.568 242.431 191.487L243.289 189.639C243.326 189.558 243.422 189.523 243.502 189.561L248.198 191.747C248.279 191.784 248.314 191.88 248.276 191.96L247.418 193.808C247.381 193.889 247.285 193.924 247.205 193.886L242.509 191.7Z" fill="#BAD9E9"/>
<path fill-rule="evenodd" clip-rule="evenodd" d="M270.208 148.81C270.189 150.645 269.832 152.46 269.155 154.164L265.565 168.467H266.116L274.571 157.256L272.389 154.541L274.571 151.393L270.208 148.81Z" fill="#BAD9E9"/>
<rect x="264.561" y="168.467" width="0.543709" height="29.3242" fill="#BAD9E9"/>
<path fill-rule="evenodd" clip-rule="evenodd" d="M263.132 148.81L258.546 151.393L260.728 154.541L258.546 157.256L264.561 168.467H265.112L263.774 154.639C263.297 152.734 263.081 150.773 263.132 148.81Z" fill="#BAD9E9"/>
<rect x="266.116" y="195.592" width="11.864" height="2.19879" fill="#52504F"/>
<rect x="254.733" y="195.592" width="9.83556" height="2.19879" fill="#52504F"/>
<path fill-rule="evenodd" clip-rule="evenodd" d="M254.852 195.655L254.545 206.049L258.253 263.099L263.133 263.587L265.607 205.511L266.743 205.462L273.324 263.099L278.203 263.587L278.266 204.918L277.834 195.571C277.771 195.606 254.97 195.746 254.852 195.655Z" fill="#286B9E"/>
<path opacity="0.1" fill-rule="evenodd" clip-rule="evenodd" d="M262.198 262.966H263.181L265.607 205.532L265.286 205.525L262.198 262.966Z" fill="black"/>
<path fill-rule="evenodd" clip-rule="evenodd" d="M273.589 262.966L270.103 265.262C267.217 265.563 267.015 267.866 267.015 267.866H279.026C279.231 266.199 278.971 264.507 278.273 262.98L273.589 262.966Z" fill="#12406D"/>
<path fill-rule="evenodd" clip-rule="evenodd" d="M257.981 262.966L252.565 265.262C249.672 265.563 249.47 267.866 249.47 267.866H263.927C264.133 266.2 263.875 264.509 263.181 262.98L257.981 262.966Z" fill="#12406D"/>
<path opacity="0.1" fill-rule="evenodd" clip-rule="evenodd" d="M262.198 262.966C262.316 263.356 262.384 263.759 262.4 264.167C262.512 265.517 262.066 266.854 261.167 267.866H263.955C264.161 266.2 263.903 264.509 263.209 262.98L262.198 262.966Z" fill="black"/>
<path fill-rule="evenodd" clip-rule="evenodd" d="M254.823 193.994V195.222C254.823 195.331 254.867 195.435 254.944 195.511C255.022 195.587 255.126 195.629 255.235 195.627H264.847V193.589H255.235C255.126 193.587 255.022 193.629 254.944 193.705C254.867 193.781 254.823 193.885 254.823 193.994Z" fill="#BAD9E9"/>
<path fill-rule="evenodd" clip-rule="evenodd" d="M278.168 193.582H266.395V195.62H278.168C278.275 195.62 278.378 195.577 278.454 195.501C278.53 195.426 278.572 195.323 278.572 195.215V193.994C278.574 193.885 278.532 193.78 278.456 193.703C278.38 193.625 278.276 193.582 278.168 193.582Z" fill="#BAD9E9"/>
<path fill-rule="evenodd" clip-rule="evenodd" d="M230.573 86.1528C218.335 86.1528 208.377 96.1108 208.377 108.349C208.377 120.588 218.335 130.546 230.573 130.546C242.812 130.546 252.77 120.588 252.77 108.349C252.77 96.1108 242.812 86.1528 230.573 86.1528ZM230.573 127.771C219.866 127.771 211.152 119.059 211.152 108.349C211.152 97.6395 219.866 88.9274 230.573 88.9274C241.281 88.9274 249.995 97.6395 249.995 108.349C249.995 119.059 241.281 127.771 230.573 127.771ZM235.981 102.8H237.51C238.276 102.8 238.897 103.422 238.897 104.188C238.897 104.953 238.276 105.575 237.51 105.575H235.981C235.337 108.738 232.538 111.124 229.186 111.124H226.986L235.718 119.855C236.259 120.397 236.259 121.276 235.718 121.817C235.446 122.086 235.09 122.222 234.735 122.222C234.38 122.222 234.025 122.086 233.753 121.814L222.658 110.719C222.527 110.591 222.425 110.439 222.355 110.267C222.214 109.928 222.214 109.545 222.355 109.207C222.497 108.865 222.769 108.596 223.107 108.455C223.276 108.385 223.457 108.349 223.637 108.349H229.186C230.992 108.349 232.518 107.187 233.093 105.575H223.637C222.871 105.575 222.25 104.953 222.25 104.188C222.25 103.422 222.871 102.8 223.637 102.8H233.093C232.518 101.188 230.992 100.026 229.186 100.026H223.637C222.871 100.026 222.25 99.4042 222.25 98.6384C222.25 97.8726 222.871 97.2511 223.637 97.2511H229.186H237.51C238.276 97.2511 238.897 97.8726 238.897 98.6384C238.897 99.4042 238.276 100.026 237.51 100.026H234.699C235.312 100.836 235.773 101.768 235.981 102.8Z" fill="#0059A3"/>
<defs>
<linearGradient id="paint0_linear" x1="-0.756226" y1="329.201" x2="337.315" y2="329.201" gradientUnits="userSpaceOnUse">
<stop stop-color="#4395C0"/>
<stop offset="1" stop-color="#205C8C"/>
</linearGradient>
<linearGradient id="paint1_linear" x1="209.738" y1="162.598" x2="179.274" y2="185.47" gradientUnits="userSpaceOnUse">
<stop stop-color="#6DA8CA"/>
<stop offset="1" stop-color="#5297C3"/>
</linearGradient>
<linearGradient id="paint2_linear" x1="186.577" y1="134.699" x2="187.102" y2="187.485" gradientUnits="userSpaceOnUse">
<stop stop-color="#BAD8E8"/>
<stop offset="1" stop-color="#1F5B8C"/>
</linearGradient>
<linearGradient id="paint3_linear" x1="220.927" y1="176.05" x2="218.99" y2="190.199" gradientUnits="userSpaceOnUse">
<stop stop-color="#BAD8E8"/>
<stop offset="1" stop-color="#1F5B8C"/>
</linearGradient>
<linearGradient id="paint4_linear" x1="-22.277" y1="157.692" x2="14.2795" y2="185.138" gradientUnits="userSpaceOnUse">
<stop stop-color="#6DA8CA"/>
<stop offset="1" stop-color="#5297C3"/>
</linearGradient>
<linearGradient id="paint5_linear" x1="5.51661" y1="124.214" x2="4.88592" y2="187.556" gradientUnits="userSpaceOnUse">
<stop stop-color="#BAD8E8"/>
<stop offset="1" stop-color="#1F5B8C"/>
</linearGradient>
<linearGradient id="paint6_linear" x1="-35.7037" y1="173.834" x2="-33.3791" y2="190.813" gradientUnits="userSpaceOnUse">
<stop stop-color="#BAD8E8"/>
<stop offset="1" stop-color="#1F5B8C"/>
</linearGradient>
<linearGradient id="paint7_linear" x1="325.726" y1="201.603" x2="54.4978" y2="201.603" gradientUnits="userSpaceOnUse">
<stop stop-color="#C4CFDB"/>
<stop offset="0.468384" stop-color="#8BA1B7"/>
<stop offset="1" stop-color="#63819F"/>
</linearGradient>
</defs>
</svg>
