<svg xmlns="http://www.w3.org/2000/svg" xmlns:xlink="http://www.w3.org/1999/xlink" width="609" height="389" viewBox="0 0 609 389">
    <defs>
        <path id="oki2ojo3ia" d="M0 0H582V384H0z"/>
        <path id="z885xhqzpe" d="M0 0.083L19.334 0.083 19.334 9.851 0 9.851z"/>
        <path id="ko2o9yp07g" d="M0.083 0.061L19.73 0.061 19.73 30.949 0.083 30.949z"/>
        <path id="mgu4pcvygi" d="M0.052 0.313L113.646 0.313 113.646 82.857 0.052 82.857z"/>
        <path id="jhe0a4ym8k" d="M0 0.183L9.836 0.183 9.836 10.018 0 10.018z"/>
        <linearGradient id="ua0oe25zzb" x1="0%" x2="100%" y1="50%" y2="50%">
            <stop offset="0%" stop-color="#4395C0"/>
            <stop offset="100%" stop-color="#205C8C"/>
        </linearGradient>
        <linearGradient id="ajci0inp4d" x1="0%" x2="100%" y1="50%" y2="50%">
            <stop offset="0%" stop-color="#4395C0"/>
            <stop offset="100%" stop-color="#205C8C"/>
        </linearGradient>
    </defs>
    <g fill="none" fill-rule="evenodd">
        <g>
            <g>
                <g>
                    <g>
                        <g transform="translate(-861 -3309) translate(0 680) translate(0 2672) translate(861 -43)">
                            <mask id="2mo8o51luc" fill="#fff">
                                <use xlink:href="#oki2ojo3ia"/>
                            </mask>
                            <path fill="url(#ua0oe25zzb)" fill-rule="nonzero" d="M1 43.582c8.038 44.92 26.302 72.636 54.792 83.146 42.735 15.765 86.074 2.886 102.896 41.819 16.823 38.933-11.495 136.244-5.748 159.688 5.748 23.445 25.629 51.481 86.632 49.306 61.004-2.175 137.7-16.827 193.604-4.995 55.906 11.833 111.744 74.924 149.045 48.706V43L1 43.582z" mask="url(#2mo8o51luc)" opacity=".05" transform="matrix(1 0 0 -1 0 470.57)"/>
                            <path fill="url(#ajci0inp4d)" fill-rule="nonzero" d="M56.38 82.02c-4.311 41.048 7.778 66.828 36.268 77.338 42.736 15.765 67.748 9.261 84.57 48.194 16.823 38.933-29.617 136.035-23.87 159.479 5.748 23.444 25.629 38.216 86.632 36.041 61.004-2.175 137.7-22.659 193.605-10.826 55.905 11.833 110.86 52.85 148.16 26.634 0-.884.294-113.17.884-336.86H56.38z" mask="url(#2mo8o51luc)" opacity=".05" transform="matrix(1 0 0 -1 0 509.494)"/>
                            <g mask="url(#2mo8o51luc)">
                                <g fill-rule="nonzero" transform="translate(102.415 37.058)">
                                    <circle cx="395.887" cy="85.273" r="60.141" fill="#FCB551" transform="rotate(-45 395.887 85.273)"/>
                                    <path fill="#FFF" d="M.585 85.436c12.423 4.186 86.768 0 103.113.27-1.512-.65-5.227-1.446-10.493-2.213 3.686-3.655-2.038-12.396-6.93-10.828.207-1.928-1.58-4.18-4.021-3.674-.856-3.423-3.957-5.962-7.648-5.962-.644 0-1.27.078-1.865.222-1.58-3.798-5.325-6.465-9.696-6.465-.974 0-1.915.133-2.805.38-2.544-5.446-8.067-9.224-14.479-9.224-8.82 0-15.971 7.147-15.971 15.963 0 .836.064 1.658.187 2.459-.618-.13-1.248-.196-1.88-.196-4.956 0-8.977 4.018-8.977 8.972 0 .6.059 1.186.172 1.751-1.39.446-2.333 1.739-2.333 3.198 0 .816.292 1.569.778 2.15-6.068.757-11.866 1.805-17.152 3.197"/>
                                    <path fill="#BBDAE9" d="M151.16 298.42l2.337-4.95c-6.58 5.894-10.094 7.178-14.179 10.021-1.186.826-2.313 2.046-3.37 2.912 1.16.29 2.554.738 3.326.969-.866.01-4.68-.014-5.404.103l-.058.01c-1.33.261-2.974.158-5.06 1.52-2.057 1.344-2.993 7.684-6.25 13.12l.836 1.702-2.077.152c-1.215 1.624-2.702 3.09-4.567 4.206-3.617 2.17-7.589 3.07-9.238 5.16-.418.532-1.053 1.727-1.624 3.252 2.21-.807 4.946-.733 4.946-.733s-2.869.846-5.704 3.158c-1.063 4.216-.994 9.366 3.977 10.882 7.121-13.74 16.103-29.334 42.11-51.485zm-39.993 52.394c9.272 3.576 17.718-5.062 18.677-6.15 0 0-1.53-2.567-1.993-3.511 0 0 1.363 1.907 2.363 2.744 2.854-1.904 7.062-6.695 8.017-8.412-1.673-.703-7.28-7.925-8.313-8.727 0 0 7.59 3.7 10.026 4.536 4.449-3.35 7.83-10.384 9.1-12.258-1.448-1.097-8.249-3.035-8.249-3.035 1.378-.015 6.23 1.52 8.672 2.45.373-.49.756-.972 1.147-1.447-2.161-.693-5.562-1.367-6.162-1.309 1.398-.157 4.94.207 6.87.428 1.556-1.938 3.391-4.3 4.356-6.42-1.029.055-8.224-.89-9.282-1.583 0 0 7.623 1.225 8.938.758 1.574-1.687 2.416-6.627 2.416-6.627-.26-.01-6.496-.039-8.873.247 0 0 5.59-.861 8.636-1.088 0 0 .114-.905-.408-2.051-1.048-.462-5.089-.969-5.935-.945-26.966 26.156-33.94 39.59-40.003 52.4z"/>
                                    <path fill="#93C1DB" d="M111.676 305.505c-2.342-1.653-4.897-3.109-6.753-3.995l.045.02 2.431 10.744 4.277-6.77v.001zm5.173 4.713c-.994-1.407-2.712-2.922-4.622-4.315l-4.616 7.31 1.94 8.565 7.298-11.56zm2.844 8.387c-.767-3.429-1.698-6.33-2.372-7.62-.035-.066-.071-.131-.108-.197l.034.06-7.49 11.86 1.94 8.564 7.997-12.667h-.001zm1.61 10.35c-.177-2.154-.517-4.442-.94-6.936-.143-.836-.3-1.668-.468-2.47l-7.992 12.657 1.94 8.565 7.46-11.816zm.079 1.082c-.005-.099-.01-.202-.02-.3.005.103.015.202.02.3zm-5.818 18.344c4.951-6.44 6.192-11.801 5.823-18.29l-7.333 11.61 1.51 6.68zm-13.785-13.863c2.456 6.017 5.886 10.32 13.126 14.005l-1.511-6.68-11.615-7.325zm-3.194-10.157c.196.801.408 1.613.64 2.43.693 2.434 1.373 4.643 2.135 6.665l11.822 7.457-1.94-8.564-12.657-7.989zm-1.354-8.993c-.004.054-.004.103-.01.153-.054 1.451.355 4.476 1.137 7.9l12.673 7.998-1.94-8.564-11.86-7.487zm2.407-6.621c-1.122 2.081-2.023 4.18-2.313 5.883l11.566 7.296-1.94-8.565-7.313-4.614zm4.7-7.103c-1.295 1.593-2.973 4.009-4.375 6.508l6.777 4.275-2.431-10.744.029-.04z"/>
                                    <path fill="#679FC6" d="M99.763 338.427c-.27 1.058-.797 1.84-1.176 1.742-.38-.1-.468-1.033-.197-2.091.27-1.058.798-1.84 1.176-1.741.38.098.468 1.032.197 2.09zm2.254 2.961c-.138.256-.349.414-.472.345-.124-.064-.114-.33.024-.586.138-.256.35-.413.473-.344s.113.33-.025.585zm-2.692 9.328c-.187.383-.468.629-.625.555-.158-.078-.133-.453.06-.836.186-.384.467-.63.624-.556.157.079.133.452-.059.836zm-3.642-16.411c-.458-.074-1.383 1.353-1.634 2.479-.25 1.127-.226 1.953.616 2.199 1.382.413 1.688-4.545 1.018-4.678zm-4.518-.158c.217.04.561.841.522 1.643-.035.803-.3 1.107-.556 1.206-.256.098-.773-.06-.945-.59-.168-.537.27-2.568.979-2.259zm-11.413 1.319c.625-.167 1.082-.595 1.024-.955-.06-.359-.62-.516-1.246-.349-.625.167-1.082.595-1.023.954.064.36.62.517 1.245.35zm3.568 4.146c-.172-.354.483-1.249 1.019-1.677.536-.428 1.24-.389 1.481-.241.242.148.482.66.02 1.245-.458.59-2.2 1.45-2.52.673zm3.238 4.32c-.206-.296.335-1.643 1.324-2.544.99-.895 1.659-.94 2.078-.757.413.182.836.984.408 1.805-.434.826-3.347 2.691-3.81 1.496zm7.771 6.084c-.206-.284.507-1.51 1.059-2.174.551-.663 1.506-1.27 1.836-.895.33.369-.202 1.289-.66 1.83-.467.541-2.018 1.52-2.235 1.24zm-3.882-2.543c-.276-.373.565-1.85 1.447-2.592.886-.743 1.629-1.102 2.239-.467.999 1.033-3.258 3.59-3.687 3.06zm-20.09-24.114c1.196-1.082 2.51-1.987 3.213-1.712 1.497.586 2.82 6.415 4.312 6.066.527-.226-1.905-5.701-2.53-6.444-.423-.507-.984-.521-1.373-.433-.04.011-.083-.01-.099-.05-.017-.037-.007-.081.025-.107.886-.684 2.913-1.63 3.632-1.29.325.153 2.426 2.126 3.288 4.654 1.344 3.95 1.752 8.983 3.775 8.471 1.565-.324-2.156-9.848-6.31-14.398-.062-.066-.085-.16-.059-.246.021-.086.084-.156.168-.187 1.313-.463 4.198-.477 5-.88.817.713 2.284 2.464 3.105 4.717 1.305 3.576 2.161 8.126 2.767 10.153.747 2.524 1.79.212 1.451-1.574-.325-1.727-1.757-10.62-3.927-13.847-.058-.082-.07-.187-.035-.28.033-.095.11-.167.207-.193 1.816-.511 5.571-.005 6.925 2.588.546 1.048 1.319 3.202 1.442 5.544.201 3.945-.453 8.352.142 8.367.207.015.857-1.397.857-2.809-.005-2.465-.803-5.647-.871-6.414-.064-.704-.33-3.847-.96-5.052-.02-.034-.01-.074.015-.104.026-.028.07-.034.103-.014 3.116 1.574 4.685 1.072 6.506 3.767 1.6 2.411-1.319 11.807-.674 12.288.645.483 2.018-.988 2.175-3.66.158-2.665-.624-7.319-.826-7.968 1.284.551 5.807.782 6.476 4.457.798 5.233-5.152 10.025-4.11 10.797.321.236 1.074-1.013 1.197-1.21 1.535-2.499 4.149-7.934 4.626-8.776-.615 2.052 4.238 4.152 2.51 8.151-.787 1.825-7.092 4.546-6.422 6.46.074.594 1.742.895 4.818-3.794.231.827 2.175 1.29 2.357 2.366.177 1.078-.635 2.175-.738 3.095-.202 1.825.01 2.878-.97 4.019-1.023 1.186-2.333 1.333-3.646 1.018-.783-.187-3.086-1.638-4.583-2.248-3.05-2.076-17.466-9.622-32.94-23.288h-.02zm6.766 11.01c-.122-1.265-3.09-.33-6.127-.847-3.011-.506-5.999-1.667-5.478-2.75.256-.462 5.916-.147 6.615-1.224.345-.679-4.237-2.273-4.32-3.306 0-.211 1.136-1.589 2.445-2.79l-.005.006c10.04 10.58 27.832 21.516 32.408 24.537 1.95 2.18 7.428 4.422 7.595 7.905.242 5.072-4.542 6.744-5.896 8.166 1.629-2.11 1.235-10.778-1.078-10.827-.276-.03-.561.86-.492 2.124.108 2.027.699 4.753.836 6.548.09 1.152-.432 2.19-1.417 2.795-1.5.929-4.252 1.726-8.155-.217-.047-.023-.076-.071-.074-.123 0-.054.035-.098.084-.118 2.78-1.097 4.641-3.98 5.094-4.875.482-.87.236-5.318-.92-5.559-.458-.098-1.374 1.004-2.078 2.69-1.078 2.588-2.052 6.303-3.243 7.237-1.968 1.545-6.895-.344-9.065-1.889 2.8-3.256 5.6-4.707 6.378-5.652.777-.944 3.499-4.407 3.09-4.791-.408-.384-4.104 3.335-4.847 4.068-.744.737-4.287 5.028-7.137 5.283-1.117.074-6.196-3.005-6.93-5.553 2.693.078 4.558-2.691 7.29-1.358 1.274-.551 7.299-4.457 7.043-5.318-.064-.384-7.52 3.749-9.73 4.211-.837.133-1.408-.07-1.86.059-.453.123-3.18 1.476-4.376.472-1.196-.998-3.209-4.275-3.297-5.288 2.579.423 14.785-1.697 15.664-3.444.498-1.047-1.914-.496-3.026.015-1.112.512-9.789 3.926-13.967 2.307-1.2-.727-3.406-5.676-3.662-6.606 3.588 2.253 18.726.89 17.191-1.785-.27-.463-10.93 3.782-16.615.88-.714-.477-1.176-4.344-1.117-5.2 3.184.384 12.86 2.878 13.205.32l-.025-.103z"/>
                                    <g>
                                        <path fill="#BBDAE9" d="M79.74 109.654c-1.925-1.762-4.688-4.8-7.703-8.687-2.735-3.528-5.264-7.212-7.574-11.033-2.046-3.388-3.99-7.009-5.642-10.727-1.466-3.305-2.699-6.693-3.583-10.068-1.26-4.833-2.06-9.659-2.622-14.355-.562-4.71-.884-9.264-1.195-13.573-.4-5.623-.768-10.824-1.594-15.301-.82-4.444-2.086-8.18-4.28-10.916l-.207-.258 1.143-.927.213.26c2.349 2.928 3.698 6.84 4.558 11.46.852 4.58 1.227 9.865 1.633 15.572.607 8.578 1.285 18.14 3.764 27.662.859 3.291 2.067 6.608 3.506 9.853 1.62 3.654 3.531 7.218 5.546 10.555 2.28 3.764 4.771 7.396 7.464 10.875 2.956 3.822 5.661 6.796 7.546 8.52l.246.226-.994 1.095-.226-.233zm1.536.959c2.246-1.354.593-7.47-.278-13.734-.762-5.52-.317-11.032-2.731-11.403-.716-.09-2.686 2.52-3.958 1.763-1.272-.758-1.898-3.945-.78-7.819 1.115-3.874 4.983-7.606 2.381-10.462-2.601-2.857-5.984 1.898-7.36.971-2.034-1.36-1.447-4.903-.193-8.492 1.045-3 5.636-8.687 3.711-12.523-1.923-3.835-10.413 7.813-13.331 3.544-.872-1.146.51-4.47 3.06-6.757 3.24-2.909 7.857-5.908 8.98-7.975 1.124-2.072 2.144-6.27-1.833-7.955-3.454-1.464-7.044 8.726-10.046 5.339-3.002-3.389 4.274-9.335 2.195-17.259C57.723 5.038 48.226-.209 41.783.911c-9.685 1.678-6.141 13.099-2.661 18.787 3.661 5.985 8.878 10.481 5.792 13.461-3.087 2.974-7.877-8.285-10.75-7.016-2.873 1.27-4.107 6.556 1.704 11.512 2.414 2.06 9.194 7.165 5.268 10.184-2.589 1.794-4.52-3.297-7.599-5.196-3.079-1.892-5.12.091-5.784 1.218-.659 1.121-1.085 3.744 5.584 8.473 6.663 4.73 17.02 13.32 12.81 17.576-1.886 1.904-8.4-4.613-10.291-2.228-2.183 2.76 2.459 6.977 5.958 8.674 3.003 1.457 10.343 2.598 10.22 5.35-.503 2.248-4.028.636-4.97 1.49-.982.895-.259 3.583 2.304 5.242 5.146 3.323 14.23 3.323 14.41 8.674-.277 1.717-2.42.558-2.827 2.19-.406 1.633 17.128 12.885 20.324 11.311h.001z" transform="translate(219.18 227.178)"/>
                                        <path fill="#679FC6" d="M77.393 122.13c5.375-3.185 1.92-13.06 1.907-17.146-.014-2.326 1.25-3.916 1.06-5.557-.215-1.87-3.312-4.521-5.213-3.518-2.258 1.192-1.654 5.348-4.738 5.948-3.112.528-5.123-5.434-6.08-9.91-.956-4.475 1.016-10.716-.754-15.414-1.77-4.696-4.257-6.365-6.086-5.934-2.598.618-3.82 4.118-3.672 7.276.157 3.317 2.643 9.35-3.032 10.665-1.81.417-4.68-1.921-5.89-6.02-1.211-4.097 1.795-8.501.078-14.169-2.663-8.789-10.135-7.082-11.684.645-.358 1.772-.033 4.065-.078 6.28-.098 4.574-3.95 6.567-5.61 6.339-2.539-.352-3.906-.73-5.266-4.775-1.36-4.046-2.291-9.726-3.86-13.669-1.568-3.941-6.919-9.713-12.458-8.143-3.156.892-9.983 8.854-1.562 24.033 5.767 9.903 14.704 4.984 16.787 8.626 2.082 3.642-4.64 6.782-2.793 9.812 1.842 3.029 5.923 3.687 9.913 2.091 3.99-1.59 11.592-8.104 14.495-4.534.768.924.475 1.94-.202 2.775-1.145 1.407-3.221 2.26-2.993 3.986.234 1.805 2.876 5.415 6.449 4.425 3.932-1.089 5.63-5.167 10.486-4.28 1.673.305 3.254 1.51 3.385 3.171.032 2.314-2.546 2.053-3.327 3.37-.527.892.177 3.882 1.654 4.807 1.478.925 5.617.079 7.413 1.531 1.745 1.414 6.698 8.795 10.434 7.837-1.81-3.882-3.769-7.349-5.858-10.417-2.096-3.081-4.328-5.778-6.665-8.118-2.337-2.332-4.784-4.32-7.336-5.98-2.491-1.629-5.143-2.997-7.914-4.084-1.972-.776-3.977-1.447-5.974-2.059-2.006-.62-3.984-1.166-5.93-1.714C24.236 86.893 13.236 83.824 8.38 68.8l-.104-.32 1.282-.417.105.32c2.316 7.166 6.124 11.485 10.83 14.424 4.725 2.95 10.388 4.527 16.344 6.195 3.924 1.094 7.98 2.228 12.027 3.818 2.858 1.118 5.593 2.529 8.163 4.208 2.622 1.714 5.148 3.76 7.55 6.164 2.395 2.397 4.679 5.153 6.821 8.306 2.141 3.133 4.147 6.67 5.995 10.632" transform="translate(219.18 227.178)"/>
                                    </g>
                                    <path fill="#FFF" d="M378.088 104.316c-4.4.34-7.17-1.298-10.596-1.323-2.614-.015-16.901 5.588-26.778 4.904-9.878-.684-11.743-4.083-12.796-4.22-1.442-.06-4.13 2.376-12.546 1.657-4.533-.383-8.381-2.498-8.268-4.825.497-6.395 12.427-3.665 15.72-3.91.467-3.075 2.391-5.776 13.421-5.279-1.181-1.24-.62-8.943 11.989-9.19 14.287.808 19.593 10.867 21.246 12.171.926.728 7.048-.817 11.713.177 8.254 1.76 6.24 9.12-3.105 9.838"/>
                                </g>
                            </g>
                        </g>
                        <g fill-rule="nonzero">
                            <path fill="#BAD9E9" d="M166.27 141.642h-49.174v-4.175h49.174c3.269 0 5.243-1.522 7.04-5.425l8.236-17.885c.742-1.613.954-2.728.662-3.51-.307-.83-1.28-1.614-2.889-2.336l-7.392-3.303 1.67-3.82 7.392 3.305c2.7 1.205 4.363 2.738 5.085 4.684.93 2.5-.002 5.047-.783 6.743l-8.238 17.884c-1.548 3.365-4.352 7.838-10.783 7.838M233.071 154.855L232.064 155.027 227.358 126.529 228.364 126.359z" transform="translate(-861 -3309) translate(0 680) translate(0 2672) translate(861 -43) matrix(-1 0 0 1 609 222)"/>
                            <path fill="#BAD9E9" d="M228.513 154.787L227.551 154.441 237.104 127.211 238.065 127.556z" transform="translate(-861 -3309) translate(0 680) translate(0 2672) translate(861 -43) matrix(-1 0 0 1 609 222)"/>
                            <path fill="#BAD9E9" d="M247.019 150.908L246.23 151.566 228.064 129.265 228.852 128.609z" transform="translate(-861 -3309) translate(0 680) translate(0 2672) translate(861 -43) matrix(-1 0 0 1 609 222)"/>
                            <path fill="#BAD9E9" d="M243.037 153.154L242.032 153.34 236.84 124.929 237.846 124.742z" transform="translate(-861 -3309) translate(0 680) translate(0 2672) translate(861 -43) matrix(-1 0 0 1 609 222)"/>
                            <path fill="#BAD9E9" d="M257.146 140.439L256.787 141.405 230.029 131.279 230.388 130.311z" transform="translate(-861 -3309) translate(0 680) translate(0 2672) translate(861 -43) matrix(-1 0 0 1 609 222)"/>
                            <path fill="#BAD9E9" d="M254.808 144.396L254.031 145.068 235.487 123.085 236.264 122.416z" transform="translate(-861 -3309) translate(0 680) translate(0 2672) translate(861 -43) matrix(-1 0 0 1 609 222)"/>
                            <path fill="#BAD9E9" d="M260.739 126.25L260.907 127.269 232.728 132.03 232.559 131.01z" transform="translate(-861 -3309) translate(0 680) translate(0 2672) translate(861 -43) matrix(-1 0 0 1 609 222)"/>
                            <path fill="#BAD9E9" d="M260.671 130.861L260.328 131.834 233.402 122.174 233.744 121.201z" transform="translate(-861 -3309) translate(0 680) translate(0 2672) translate(861 -43) matrix(-1 0 0 1 609 222)"/>
                            <path fill="#BAD9E9" d="M256.836 112.145L257.486 112.945 235.433 131.314 234.785 130.517z" transform="translate(-861 -3309) translate(0 680) translate(0 2672) translate(861 -43) matrix(-1 0 0 1 609 222)"/>
                            <path fill="#BAD9E9" d="M259.056 116.173L259.242 117.188 231.147 122.44 230.961 121.423z" transform="translate(-861 -3309) translate(0 680) translate(0 2672) translate(861 -43) matrix(-1 0 0 1 609 222)"/>
                            <path fill="#BAD9E9" d="M246.482 101.905L247.439 102.268 237.426 129.328 236.469 128.964z" transform="translate(-861 -3309) translate(0 680) translate(0 2672) translate(861 -43) matrix(-1 0 0 1 609 222)"/>
                            <path fill="#BAD9E9" d="M250.396 104.27L251.06 105.056 229.324 123.808 228.661 123.023z" transform="translate(-861 -3309) translate(0 680) translate(0 2672) translate(861 -43) matrix(-1 0 0 1 609 222)"/>
                            <path fill="#BAD9E9" d="M232.451 98.271L233.459 98.101 238.166 126.599 237.159 126.769z" transform="translate(-861 -3309) translate(0 680) translate(0 2672) translate(861 -43) matrix(-1 0 0 1 609 222)"/>
                            <path fill="#BAD9E9" d="M237.011 98.341L237.974 98.687 228.421 125.916 227.459 125.571z" transform="translate(-861 -3309) translate(0 680) translate(0 2672) translate(861 -43) matrix(-1 0 0 1 609 222)"/>
                            <path fill="#BAD9E9" d="M218.504 102.219L219.293 101.562 237.46 123.862 236.672 124.518z" transform="translate(-861 -3309) translate(0 680) translate(0 2672) translate(861 -43) matrix(-1 0 0 1 609 222)"/>
                            <path fill="#BAD9E9" d="M222.487 99.973L223.492 99.785 228.682 128.196 227.677 128.385z" transform="translate(-861 -3309) translate(0 680) translate(0 2672) translate(861 -43) matrix(-1 0 0 1 609 222)"/>
                            <path fill="#BAD9E9" d="M208.377 112.689L208.735 111.723 235.494 121.847 235.135 122.816z" transform="translate(-861 -3309) translate(0 680) translate(0 2672) translate(861 -43) matrix(-1 0 0 1 609 222)"/>
                            <path fill="#BAD9E9" d="M210.716 108.732L211.493 108.061 230.038 130.041 229.26 130.711z" transform="translate(-861 -3309) translate(0 680) translate(0 2672) translate(861 -43) matrix(-1 0 0 1 609 222)"/>
                            <path fill="#BAD9E9" d="M204.784 126.879L204.615 125.858 232.796 121.098 232.964 122.117z" transform="translate(-861 -3309) translate(0 680) translate(0 2672) translate(861 -43) matrix(-1 0 0 1 609 222)"/>
                            <path fill="#BAD9E9" d="M204.854 122.267L205.194 121.294 232.121 130.953 231.78 131.928z" transform="translate(-861 -3309) translate(0 680) translate(0 2672) translate(861 -43) matrix(-1 0 0 1 609 222)"/>
                            <path fill="#BAD9E9" d="M208.687 140.982L208.039 140.184 230.09 121.812 230.739 122.611z" transform="translate(-861 -3309) translate(0 680) translate(0 2672) translate(861 -43) matrix(-1 0 0 1 609 222)"/>
                            <path fill="#BAD9E9" d="M206.468 136.955L206.282 135.938 234.377 130.689 234.564 131.706z" transform="translate(-861 -3309) translate(0 680) translate(0 2672) translate(861 -43) matrix(-1 0 0 1 609 222)"/>
                            <path fill="#BAD9E9" d="M219.042 151.224L218.085 150.861 228.098 123.8 229.056 124.164z" transform="translate(-861 -3309) translate(0 680) translate(0 2672) translate(861 -43) matrix(-1 0 0 1 609 222)"/>
                            <path fill="#BAD9E9" d="M215.128 148.858L214.464 148.072 236.201 129.319 236.864 130.106zM53.204 152.942L52.369 153.084 48.468 129.463 49.304 129.322z" transform="translate(-861 -3309) translate(0 680) translate(0 2672) translate(861 -43) matrix(-1 0 0 1 609 222)"/>
                            <path fill="#BAD9E9" d="M49.426 152.885L48.627 152.599 56.546 130.027 57.343 130.313z" transform="translate(-861 -3309) translate(0 680) translate(0 2672) translate(861 -43) matrix(-1 0 0 1 609 222)"/>
                            <path fill="#BAD9E9" d="M64.765 149.67L64.111 150.215 49.054 131.73 49.707 131.188z" transform="translate(-861 -3309) translate(0 680) translate(0 2672) translate(861 -43) matrix(-1 0 0 1 609 222)"/>
                            <path fill="#BAD9E9" d="M61.465 151.531L60.632 151.687 56.328 128.137 57.16 127.981z" transform="translate(-861 -3309) translate(0 680) translate(0 2672) translate(861 -43) matrix(-1 0 0 1 609 222)"/>
                            <path fill="#BAD9E9" d="M73.159 140.992L72.862 141.795 50.683 133.401 50.98 132.597z" transform="translate(-861 -3309) translate(0 680) translate(0 2672) translate(861 -43) matrix(-1 0 0 1 609 222)"/>
                            <path fill="#BAD9E9" d="M71.22 144.273L70.576 144.827 55.206 126.609 55.85 126.054z" transform="translate(-861 -3309) translate(0 680) translate(0 2672) translate(861 -43) matrix(-1 0 0 1 609 222)"/>
                            <path fill="#BAD9E9" d="M76.137 129.231L76.276 130.077 52.919 134.023 52.779 133.176z" transform="translate(-861 -3309) translate(0 680) translate(0 2672) translate(861 -43) matrix(-1 0 0 1 609 222)"/>
                            <path fill="#BAD9E9" d="M76.081 133.053L75.798 133.861 53.477 125.852 53.76 125.047z" transform="translate(-861 -3309) translate(0 680) translate(0 2672) translate(861 -43) matrix(-1 0 0 1 609 222)"/>
                            <path fill="#BAD9E9" d="M72.901 117.541L73.441 118.202 55.163 133.43 54.624 132.769z" transform="translate(-861 -3309) translate(0 680) translate(0 2672) translate(861 -43) matrix(-1 0 0 1 609 222)"/>
                            <path fill="#BAD9E9" d="M74.742 120.879L74.896 121.72 51.609 126.073 51.454 125.231z" transform="translate(-861 -3309) translate(0 680) translate(0 2672) translate(861 -43) matrix(-1 0 0 1 609 222)"/>
                            <path fill="#BAD9E9" d="M64.32 109.053L65.114 109.352 56.813 131.781 56.019 131.482z" transform="translate(-861 -3309) translate(0 680) translate(0 2672) translate(861 -43) matrix(-1 0 0 1 609 222)"/>
                            <path fill="#BAD9E9" d="M67.564 111.012L68.114 111.663 50.098 127.207 49.547 126.556z" transform="translate(-861 -3309) translate(0 680) translate(0 2672) translate(861 -43) matrix(-1 0 0 1 609 222)"/>
                            <path fill="#BAD9E9" d="M52.69 106.039L53.525 105.9 57.427 129.52 56.592 129.661z" transform="translate(-861 -3309) translate(0 680) translate(0 2672) translate(861 -43) matrix(-1 0 0 1 609 222)"/>
                            <path fill="#BAD9E9" d="M56.468 106.098L57.267 106.385 49.35 128.955 48.552 128.669z" transform="translate(-861 -3309) translate(0 680) translate(0 2672) translate(861 -43) matrix(-1 0 0 1 609 222)"/>
                            <path fill="#BAD9E9" d="M41.13 109.312L41.784 108.768 56.842 127.251 56.186 127.796z" transform="translate(-861 -3309) translate(0 680) translate(0 2672) translate(861 -43) matrix(-1 0 0 1 609 222)"/>
                            <path fill="#BAD9E9" d="M44.431 107.451L45.262 107.294 49.566 130.847 48.734 131.001z" transform="translate(-861 -3309) translate(0 680) translate(0 2672) translate(861 -43) matrix(-1 0 0 1 609 222)"/>
                            <path fill="#BAD9E9" d="M32.735 117.991L33.033 117.19 55.212 125.583 54.916 126.385z" transform="translate(-861 -3309) translate(0 680) translate(0 2672) translate(861 -43) matrix(-1 0 0 1 609 222)"/>
                            <path fill="#BAD9E9" d="M34.675 114.711L35.318 114.155 50.689 132.373 50.045 132.93z" transform="translate(-861 -3309) translate(0 680) translate(0 2672) translate(861 -43) matrix(-1 0 0 1 609 222)"/>
                            <path fill="#BAD9E9" d="M29.758 129.751L29.618 128.907 52.976 124.962 53.116 125.806z" transform="translate(-861 -3309) translate(0 680) translate(0 2672) translate(861 -43) matrix(-1 0 0 1 609 222)"/>
                            <path fill="#BAD9E9" d="M29.815 125.93L30.097 125.123 52.416 133.129 52.133 133.936z" transform="translate(-861 -3309) translate(0 680) translate(0 2672) translate(861 -43) matrix(-1 0 0 1 609 222)"/>
                            <path fill="#BAD9E9" d="M32.992 141.443L32.455 140.782 50.733 125.554 51.271 126.216z" transform="translate(-861 -3309) translate(0 680) translate(0 2672) translate(861 -43) matrix(-1 0 0 1 609 222)"/>
                            <path fill="#BAD9E9" d="M31.153 138.105L30.997 137.262 54.287 132.911 54.442 133.752z" transform="translate(-861 -3309) translate(0 680) translate(0 2672) translate(861 -43) matrix(-1 0 0 1 609 222)"/>
                            <path fill="#BAD9E9" d="M41.575 149.932L40.782 149.63 49.082 127.201 49.875 127.501z" transform="translate(-861 -3309) translate(0 680) translate(0 2672) translate(861 -43) matrix(-1 0 0 1 609 222)"/>
                            <path fill="#BAD9E9" d="M38.331 147.971L37.781 147.319 55.797 131.777 56.347 132.428z" transform="translate(-861 -3309) translate(0 680) translate(0 2672) translate(861 -43) matrix(-1 0 0 1 609 222)"/>
                            <path fill="#6293B8" d="M28.872 93.757L22.098 98.96 18.115 97.104 18.115 87.297 31.059 87.297 37.615 89.015z" transform="translate(-861 -3309) translate(0 680) translate(0 2672) translate(861 -43) matrix(-1 0 0 1 609 222)"/>
                            <path fill="#FEA62C" d="M16.415 95.925L18.115 97.104 18.115 87.296 16.415 88.475z" transform="translate(-861 -3309) translate(0 680) translate(0 2672) translate(861 -43) matrix(-1 0 0 1 609 222)"/>
                            <path fill="#12406D" d="M168.71 123.296c1.962-4.265 9.768-21.214 15.041-32.66l-4.26-13.923-5.765-.124 2.504-16.208 7.895-4.95 10.304 16.31-6.385 7.108v11.788c-5.382 11.687-13.352 28.991-15.355 33.344l-3.98-.685z" transform="translate(-861 -3309) translate(0 680) translate(0 2672) translate(861 -43) matrix(-1 0 0 1 609 222)"/>
                            <path fill="#12406D" d="M86.532 105.97l16.142 29.45 14.422 4.133s36.704-1.474 44.046-1.474c4.036 0 5.71-1.719 9.087-8.871.873-1.847 1.155-2.394 2.459-5.227 3.165-6.874-42.518-30.508-42.518-30.508l-3.216-5.52-40.422 18.016z" transform="translate(-861 -3309) translate(0 680) translate(0 2672) translate(861 -43) matrix(-1 0 0 1 609 222)"/>
                            <path fill="#BAD9E9" d="M147.194 122.146L151.909 116.788 150.261 111.757 143.37 113.547zM166.27 141.642h-49.174v-4.175h49.174c3.269 0 5.243-1.522 7.04-5.425l8.236-17.885c.742-1.613.954-2.728.662-3.51-.307-.83 3.144-3.416 3.866-1.47.93 2.5-.002 5.047-.783 6.743l-8.238 17.884c-1.548 3.365-4.352 7.838-10.783 7.838" transform="translate(-861 -3309) translate(0 680) translate(0 2672) translate(861 -43) matrix(-1 0 0 1 609 222)"/>
                            <g fill="#12406D">
                                <path d="M45.295 9.26c10.706 0 20.38 4.115 27.214 11.008 2.954 2.98 6.231 3.55 9.549 3.55h3.904c-.218-.39 4.81-1.51 4.581-1.892C82.538 8.533 62.375.716 45.295.716 23.12.715 4.597 15.132.105 35.838c-.192.89-.385 2.703 1.995 2.703h3.546c1.945 0 3.013-1.666 3.718-3.851C14.232 19.586 28.4 9.259 45.294 9.259" transform="translate(-861 -3309) translate(0 680) translate(0 2672) translate(861 -43) matrix(-1 0 0 1 609 222) translate(8.049 83.669)"/>
                            </g>
                            <path fill="#4D84AE" d="M65.097 129.491c0 6.787-5.439 12.286-12.15 12.286-6.71 0-12.15-5.499-12.15-12.286 0-6.784 5.44-12.286 12.15-12.286 6.711 0 12.15 5.502 12.15 12.286" transform="translate(-861 -3309) translate(0 680) translate(0 2672) translate(861 -43) matrix(-1 0 0 1 609 222)"/>
                            <path fill="#12406D" d="M189.255 53.948L195.266 50.411 201.094 52.328 194.429 60.726z" transform="translate(-861 -3309) translate(0 680) translate(0 2672) translate(861 -43) matrix(-1 0 0 1 609 222)"/>
                            <path fill="#739FC0" d="M232.763 153.23c-14.563 0-26.371-11.938-26.371-26.666s11.808-26.666 26.37-26.666c14.565 0 26.37 11.938 26.37 26.666s-11.805 26.666-26.37 26.666m0-56.675c-16.389 0-29.673 13.435-29.673 30.009 0 16.572 13.284 30.007 29.674 30.007 16.387 0 29.674-13.435 29.674-30.007 0-16.574-13.287-30.009-29.674-30.009" transform="translate(-861 -3309) translate(0 680) translate(0 2672) translate(861 -43) matrix(-1 0 0 1 609 222)"/>
                            <path fill="#12406D" d="M232.763 155.444c-15.776 0-28.56-12.93-28.56-28.88 0-15.951 12.784-28.883 28.56-28.883 15.774 0 28.56 12.932 28.56 28.883 0 15.95-12.786 28.88-28.56 28.88m0-65.398c-19.943 0-36.111 16.35-36.111 36.518 0 20.165 16.168 36.516 36.11 36.516 19.943 0 36.111-16.351 36.111-36.516 0-20.168-16.168-36.518-36.11-36.518" transform="translate(-861 -3309) translate(0 680) translate(0 2672) translate(861 -43) matrix(-1 0 0 1 609 222)"/>
                            <path fill="#BAD9E9" d="M151.18 111.059L157.602 111.059 157.602 105.411 151.18 105.411z" transform="translate(-861 -3309) translate(0 680) translate(0 2672) translate(861 -43) matrix(-1 0 0 1 609 222)"/>
                            <path fill="#12406D" d="M204.204 126.564c0-10.404 5.438-19.522 13.598-24.606l-4.583-6.105c-9.967 6.5-16.567 17.825-16.567 30.71 0 11.691 5.435 22.1 13.888 28.785l5.39-5.45c-7.108-5.254-11.726-13.749-11.726-23.334" transform="translate(-861 -3309) translate(0 680) translate(0 2672) translate(861 -43) matrix(-1 0 0 1 609 222)"/>
                            <path fill="#E3F0F5" d="M200.673 126.564c0-17.925 14.366-32.45 32.09-32.45h4.662c1.203 0 2.693-.481 3.987-1.42 1.198-.869 2.44-1.753 3.278-2.647 1.164-1.241.128-2.494-.82-2.767-3.529-1.019-7.255-1.565-11.107-1.565-7.492 0-14.509 2.063-20.522 5.656-11.895 7.108-19.873 20.208-19.873 35.193v5.893h3.554c3.678 0 4.75-2.15 4.75-5.893" transform="translate(-861 -3309) translate(0 680) translate(0 2672) translate(861 -43) matrix(-1 0 0 1 609 222)"/>
                            <path fill="#BAD9E9" d="M200.673 126.564c0-17.925 14.366-32.45 32.09-32.45h4.662c1.203 0 2.693-.481 3.987-1.42 1.198-.869 2.44-1.753 3.278-2.647 1.164-1.241.128-2.494-.82-2.767-2.374 1.923-1.84 2.767-11.107 2.767-7.143 0-12.01 1.463-17.83 4.75-.285.161-2.413-3.593-2.692-3.426-11.895 7.108-19.873 20.208-19.873 35.193v5.893h3.554c3.678 0 4.75-2.15 4.75-5.893" transform="translate(-861 -3309) translate(0 680) translate(0 2672) translate(861 -43) matrix(-1 0 0 1 609 222)"/>
                            <path fill="#739FC0" d="M52.947 150.981c-11.735 0-21.249-9.623-21.249-21.49 0-11.866 9.514-21.487 21.25-21.487 11.735 0 21.247 9.621 21.247 21.487 0 11.867-9.512 21.49-21.248 21.49m0-49.093c-15.074 0-27.296 12.358-27.296 27.603 0 15.244 12.222 27.6 27.296 27.6s27.297-12.356 27.297-27.6c0-15.245-12.223-27.603-27.297-27.603" transform="translate(-861 -3309) translate(0 680) translate(0 2672) translate(861 -43) matrix(-1 0 0 1 609 222)"/>
                            <path fill="#12406D" d="M52.947 154.511c-13.665 0-24.741-11.2-24.741-25.02 0-13.818 11.076-25.02 24.741-25.02s24.744 11.202 24.744 25.02c0 13.82-11.079 25.02-24.744 25.02m0-58.608c-18.343 0-33.215 15.037-33.215 33.588 0 18.55 14.872 33.589 33.215 33.589 18.345 0 33.216-15.039 33.216-33.589 0-18.55-14.871-33.588-33.216-33.588" transform="translate(-861 -3309) translate(0 680) translate(0 2672) translate(861 -43) matrix(-1 0 0 1 609 222)"/>
                            <path fill="#739FC0" d="M248.096 126.564c0 8.564-6.866 15.505-15.333 15.505-8.47 0-15.334-6.941-15.334-15.505s6.864-15.505 15.334-15.505c8.467 0 15.333 6.94 15.333 15.505" transform="translate(-861 -3309) translate(0 680) translate(0 2672) translate(861 -43) matrix(-1 0 0 1 609 222)"/>
                            <path fill="#4D84AE" d="M225.873 112.712c-5.007 2.55-8.444 7.793-8.444 13.852 0 5.906 3.265 11.04 8.069 13.659l11.95-12.086-11.575-15.425z" transform="translate(-861 -3309) translate(0 680) translate(0 2672) translate(861 -43) matrix(-1 0 0 1 609 222)"/>
                            <path fill="#BAD9E9" d="M235.985 125.82L230.74 129.208 178.234 46.107 183.479 42.719z" transform="translate(-861 -3309) translate(0 680) translate(0 2672) translate(861 -43) matrix(-1 0 0 1 609 222)"/>
                            <path fill="#92C1DB" d="M233.362 127.514L230.74 129.209 178.233 46.108 180.856 44.413z" transform="translate(-861 -3309) translate(0 680) translate(0 2672) translate(861 -43) matrix(-1 0 0 1 609 222)"/>
                            <path fill="#2A537C" d="M177.223 67.553s1.203-.718 1.875-1.145c.675-.427 1.403-.26 1.843.448.177.288.625 1.004 1.093 1.76.686 1.101 1.27 3.05 1.479 6.366.205 3.314.237 15.655.237 15.655s-.727-.23-.995-1.394c-.268-1.166-1.656-5.491-4.016-8.994-2.08-3.082-5.013-3.66-5.013-3.66l3.497-9.036z" transform="translate(-861 -3309) translate(0 680) translate(0 2672) translate(861 -43) matrix(-1 0 0 1 609 222)"/>
                            <path fill="#92C1DB" d="M207.765 36.996c-.287 3.635-.052 6.884.703 9.745.755 2.862 1.7 5.24 2.835 7.134l.447-13.861-3.985-3.018z" transform="translate(-861 -3309) translate(0 680) translate(0 2672) translate(861 -43) matrix(-1 0 0 1 609 222) matrix(-1 0 0 1 419.397 0)"/>
                            <path fill="#BAD9E9" d="M208.548 36.562c-9.202 0-18.547 3.944-19.255 8.692-.706 4.716 8.959 8.694 17.361 8.694.518 0 .994-.026 1.44-.073.26-9.112 1.08-12.343 3.537-16.879-.767-.28-1.77-.434-3.083-.434" transform="translate(-861 -3309) translate(0 680) translate(0 2672) translate(861 -43) matrix(-1 0 0 1 609 222)"/>
                            <path fill="#E3F0F5" d="M119.136 87.836s10.053-16.502 21.418-25.048c11.366-8.546 19.962-10.46 26.955-10.46 6.994 0 10.726 6.482 10.726 12.23 0 5.744-1.046 9.451-2.937 12.05-1.414 1.945-4.306 2.222-7.97 2.72-11.147 1.51-20.121 4.313-30.417 8.657-6.862 2.892-13.84 6.04-13.84 6.04l-3.935-6.19z" transform="translate(-861 -3309) translate(0 680) translate(0 2672) translate(861 -43) matrix(-1 0 0 1 609 222)"/>
                            <path fill="#BAD9E9" d="M127.987 81.465c2.856-3.711 7.382-8.162 12.189-11.776 9.694-7.29 18.834-10.39 26.884-10.39 6.164 0 7.615 3.036 8.264 6.32.594 3.01.647 7.028-.99 9.28-.965 1.324-3.342 1.642-6.353 2.044l-.64.086c-10.485 1.42-19.404 3.956-30.782 8.757-1.537.647-3.082 1.31-4.559 1.948-3.49 1.51-6.71-2.765-4.013-6.27M161.587 122.146L156.873 116.788 158.521 111.757 165.412 113.547z" transform="translate(-861 -3309) translate(0 680) translate(0 2672) translate(861 -43) matrix(-1 0 0 1 609 222)"/>
                            <path fill="#6DA9CB" d="M92.868 107.487l10.552 19.252c1.129 2.057 2.697 2.656 4.864 2.656h5.073c1.963 0 3.935-1.308 4.346-3.324.766-3.764 2.041-9.999 3.036-14.808.795-3.837 2.957-7.984 3.91-10.607.553-1.529.598-2.893.047-3.84l-1.626-2.79-30.202 13.46z" transform="translate(-861 -3309) translate(0 680) translate(0 2672) translate(861 -43) matrix(-1 0 0 1 609 222)"/>
                            <path fill="#BAD9E9" d="M108.284 127.037c-1.74 0-2.278-.444-2.825-1.442l16.654-28.568.574.987c.07.12.179.712-.227 1.829-.273.751-.68 1.7-1.11 2.705-1.023 2.385-2.298 5.353-2.894 8.234-1.023 4.94-2.34 11.4-3.037 14.813-.18.892-1.212 1.442-2.061 1.442h-5.074z" transform="translate(-861 -3309) translate(0 680) translate(0 2672) translate(861 -43) matrix(-1 0 0 1 609 222)"/>
                            <path fill="#5398C3" d="M154.323 114.8c4.012 0 7.264 3.289 7.264 7.345 0 2.635-1.29 5.23-3.429 6.241-1.197.566-15.755 7.409-17.07 8.023-1.783.836-3.706.936-5.05.936-6.598 0-11.949-4.276-11.949-11.445 0-6.673 2.477-11.1 7.723-11.1h22.511z" transform="translate(-861 -3309) translate(0 680) translate(0 2672) translate(861 -43) matrix(-1 0 0 1 609 222)"/>
                            <path fill="#12406D" d="M136.037 132.923c-3.495 0-7.577-1.84-7.577-7.023 0-3.337.73-4.945 1.166-5.606.422-.645.955-1.073 2.187-1.073h22.51c1.595 0 2.892 1.312 2.892 2.925 0 1.162-.538 2.06-.911 2.235-1.106.526-15.608 7.342-17.05 8.016-1.007.472-2.318.526-3.217.526" transform="translate(-861 -3309) translate(0 680) translate(0 2672) translate(861 -43) matrix(-1 0 0 1 609 222)"/>
                            <path fill="#92C1DB" d="M136.037 131.745c-1.07 0-6.41-.282-6.41-5.846 0-3.14.677-4.51.969-4.952.202-.307.358-.55 1.217-.55h22.51c.954 0 1.728.787 1.728 1.749 0 .617-.223 1.066-.335 1.213-1.645.777-15.52 7.3-16.952 7.968-.89.418-2.272.418-2.727.418" transform="translate(-861 -3309) translate(0 680) translate(0 2672) translate(861 -43) matrix(-1 0 0 1 609 222)"/>
                            <path fill="#92C1DB" d="M157.602 122.211c0 1.91-1.532 3.46-3.423 3.46-1.89 0-3.42-1.55-3.42-3.46 0-1.912 1.53-3.462 3.42-3.462s3.423 1.55 3.423 3.462M169.558 110.378L158.521 105.411 164.145 92.633 175.184 97.599z" transform="translate(-861 -3309) translate(0 680) translate(0 2672) translate(861 -43) matrix(-1 0 0 1 609 222)"/>
                            <path fill="#5398C3" d="M169.558 110.378L158.521 105.411 158.521 111.757 165.412 113.546zM175.596 93.932L166.852 90.046 164.145 92.633 175.183 97.599z" transform="translate(-861 -3309) translate(0 680) translate(0 2672) translate(861 -43) matrix(-1 0 0 1 609 222)"/>
                            <path fill="#92C1DB" d="M139.225 110.378L150.262 105.411 144.637 92.633 133.601 97.599z" transform="translate(-861 -3309) translate(0 680) translate(0 2672) translate(861 -43) matrix(-1 0 0 1 609 222)"/>
                            <path fill="#5398C3" d="M139.225 110.378L150.262 105.411 150.262 111.757 143.37 113.546zM133.185 93.932L141.931 90.046 144.637 92.633 133.601 97.599z" transform="translate(-861 -3309) translate(0 680) translate(0 2672) translate(861 -43) matrix(-1 0 0 1 609 222)"/>
                            <path fill="#6DA9CB" d="M162.125 103.894c-.607 1.5-2.413 2.727-4.016 2.727h-7.436c-1.604 0-3.41-1.227-4.016-2.727l-5.083-12.593c-.606-1.502.085-3.292 1.536-3.983 0 0 3.554-1.693 11.282-1.693 7.727 0 11.281 1.693 11.281 1.693 1.45.69 2.141 2.481 1.534 3.983l-5.082 12.593z" transform="translate(-861 -3309) translate(0 680) translate(0 2672) translate(861 -43) matrix(-1 0 0 1 609 222)"/>
                            <path fill="#5398C3" d="M150.673 104.267c-.656 0-1.61-.651-1.858-1.263l-5.083-12.594c-.136-.337.045-.803.371-.958.013-.007 3.31-1.468 10.288-1.468 6.977 0 10.274 1.46 10.307 1.477.308.146.488.612.35.95l-5.082 12.593c-.247.612-1.202 1.263-1.856 1.263h-7.437z" transform="translate(-861 -3309) translate(0 680) translate(0 2672) translate(861 -43) matrix(-1 0 0 1 609 222)"/>
                            <path fill="#BAD9E9" d="M43.923 144.765L99.969 144.765 99.969 132.923 43.923 132.923z" transform="translate(-861 -3309) translate(0 680) translate(0 2672) translate(861 -43) matrix(-1 0 0 1 609 222)"/>
                            <path fill="#92C1DB" d="M43.923 144.811L99.969 144.811 99.969 138.447 43.923 138.447z" transform="translate(-861 -3309) translate(0 680) translate(0 2672) translate(861 -43) matrix(-1 0 0 1 609 222)"/>
                            <path fill="#5398C3" d="M117.387 141.642L99.97 144.765 99.97 132.923 117.387 137.467z" transform="translate(-861 -3309) translate(0 680) translate(0 2672) translate(861 -43) matrix(-1 0 0 1 609 222)"/>
                            <path fill="#447EAB" d="M41.136 143.727L43.924 144.766 43.924 132.923 41.136 133.963z" transform="translate(-861 -3309) translate(0 680) translate(0 2672) translate(861 -43) matrix(-1 0 0 1 609 222)"/>
                            <path fill="#6DA9CB" d="M16.415 106.864c0-1.905-3.245-3.448-5.857-3.448v6.897c2.612 0 5.857-1.543 5.857-3.449" transform="translate(-861 -3309) translate(0 680) translate(0 2672) translate(861 -43) matrix(-1 0 0 1 609 222)"/>
                            <path fill="#FEA62C" d="M10.558 110.295v-6.879c-1.91 0-2.083.442-2.083 3.44 0 2.996.174 3.439 2.083 3.439" transform="translate(-861 -3309) translate(0 680) translate(0 2672) translate(861 -43) matrix(-1 0 0 1 609 222)"/>
                            <path fill="#E3F0F5" d="M10.558 103.416v3.448h5.857c0-1.905-3.245-3.448-5.857-3.448" transform="translate(-861 -3309) translate(0 680) translate(0 2672) translate(861 -43) matrix(-1 0 0 1 609 222)"/>
                            <path fill="#646463" d="M58.415 127.545L54.084 123.874 76.275 97.104 80.606 100.774z" transform="translate(-861 -3309) translate(0 680) translate(0 2672) translate(861 -43) matrix(-1 0 0 1 609 222)"/>
                            <path fill="#3E3E41" d="M54.013 131.209L51.284 128.896 69.445 106.988 72.174 109.302z" transform="translate(-861 -3309) translate(0 680) translate(0 2672) translate(861 -43) matrix(-1 0 0 1 609 222)"/>
                            <path fill="#1F1F23" d="M54.013 131.209L52.649 130.053 70.811 108.145 72.174 109.302z" transform="translate(-861 -3309) translate(0 680) translate(0 2672) translate(861 -43) matrix(-1 0 0 1 609 222)"/>
                            <path fill="#80A8C6" d="M73.633 110.54L67.986 105.75 77.23 94.599 82.879 99.387z" transform="translate(-861 -3309) translate(0 680) translate(0 2672) translate(861 -43) matrix(-1 0 0 1 609 222)"/>
                            <path fill="#646463" d="M84.05 95.017L81.279 92.668 78.669 95.819 81.44 98.166z" transform="translate(-861 -3309) translate(0 680) translate(0 2672) translate(861 -43) matrix(-1 0 0 1 609 222)"/>
                            <path fill="#BAD9E9" d="M180.586 45.558c-.56 0-1.11-.29-1.418-.812l-1.58-2.66c-.834-1.405-2.075-3.695-3.216-7.324-.662-2.109-2.197-7.152-3.37-11.012-.234-.77-.571-1.121-.808-1.193-.281-.088-.738.102-1.222.502-2.012 1.66-13.079 10.596-13.55 10.976-.712.576-1.753.458-2.322-.262-.57-.723-.454-1.773.26-2.348.115-.094 11.525-9.305 13.521-10.955 1.38-1.139 2.898-1.533 4.272-1.113 1.401.43 2.47 1.642 3.007 3.412 1.17 3.852 2.703 8.883 3.361 10.98 1.023 3.26 2.087 5.248 2.901 6.617l1.579 2.661c.469.792.216 1.816-.565 2.293-.267.161-.56.238-.85.238" transform="translate(-861 -3309) translate(0 680) translate(0 2672) translate(861 -43) matrix(-1 0 0 1 609 222)"/>
                            <path fill="#286B9E" d="M164.67 27.068L155.725 34.371 153.177 31.1 162.122 23.797z" transform="translate(-861 -3309) translate(0 680) translate(0 2672) translate(861 -43) matrix(-1 0 0 1 609 222)"/>
                            <path fill="#2E577F" d="M155.401 31.982c.703.901.849 1.973.324 2.39-.525.418-1.52.023-2.223-.878-.703-.905-.848-1.977-.325-2.394.524-.416 1.52-.023 2.224.882" transform="translate(-861 -3309) translate(0 680) translate(0 2672) translate(861 -43) matrix(-1 0 0 1 609 222)"/>
                            <path fill="#286B9E" d="M164.345 24.677c.703.902.849 1.974.325 2.39-.526.42-1.521.024-2.223-.877-.704-.905-.85-1.975-.324-2.393.523-.417 1.518-.023 2.222.88" transform="translate(-861 -3309) translate(0 680) translate(0 2672) translate(861 -43) matrix(-1 0 0 1 609 222)"/>
                            <path fill="#BAD9E9" d="M162.82 7.39c.196 1.607-.945 3.084-2.534 3.28l-1.404.172c-1.59.197-3.108-.953-3.371-2.55l-.888-5.385C154.36 1.308 155.457 0 157.058 0h1.944c1.601 0 3.073 1.316 3.272 2.925l.546 4.465z" transform="translate(-861 -3309) translate(0 680) translate(0 2672) translate(861 -43) matrix(-1 0 0 1 609 222)"/>
                            <path fill="#80A8C6" d="M166.19 22.85c-.378 0-.693-.287-.734-.668-.01-.088-1.173-10.888-1.503-13.573-.252-2.03-.597-2.345-2.648-2.414-.199-.005-.381-.09-.517-.237-.134-.144-.205-.335-.198-.534.012-.406.336-.726.738-.726 2.58.086 3.711.62 4.094 3.726.278 2.26 1.13 10.11 1.483 13.377l.023.22c.044.41-.25.78-.656.826l-.082.002" transform="translate(-861 -3309) translate(0 680) translate(0 2672) translate(861 -43) matrix(-1 0 0 1 609 222)"/>
                            <path fill="#12406D" d="M237.448 128.137L232.203 131.525 227.988 124.854 233.234 121.465z" transform="translate(-861 -3309) translate(0 680) translate(0 2672) translate(861 -43) matrix(-1 0 0 1 609 222)"/>
                            <path fill="#80A8C6" d="M234.982 126.564c0 1.24-.994 2.246-2.22 2.246-1.226 0-2.22-1.007-2.22-2.246 0-1.24.994-2.245 2.22-2.245 1.226 0 2.22 1.006 2.22 2.245" transform="translate(-861 -3309) translate(0 680) translate(0 2672) translate(861 -43) matrix(-1 0 0 1 609 222)"/>
                            <path fill="#6DA9CB" d="M186.015 45.229L179.419 49.493 177.243 46.046 183.839 41.783zM191.115 53.299L184.519 57.563 182.343 54.117 188.939 49.856zM201.422 69.614L194.826 73.878 192.649 70.43 199.246 66.169zM191.522 61.737c0 1.904 3.246 3.45 5.858 3.45v-6.9c-2.612 0-5.858 1.546-5.858 3.45" transform="translate(-861 -3309) translate(0 680) translate(0 2672) translate(861 -43) matrix(-1 0 0 1 609 222)"/>
                            <path fill="#FEA62C" d="M197.38 58.307v6.88c1.908 0 2.08-.443 2.08-3.44s-.172-3.44-2.08-3.44" transform="translate(-861 -3309) translate(0 680) translate(0 2672) translate(861 -43) matrix(-1 0 0 1 609 222)"/>
                            <path fill="#E3F0F5" d="M197.38 58.287c-2.612 0-5.858 1.546-5.858 3.45h5.857v-3.45zM208.548 36.562c-9.202 0-18.547 3.944-19.255 8.692 3.61-2.274 12.203-2.323 17.88-1.632.522-2.457 1.353-4.723 2.623-7.005-.381-.035-.796-.055-1.248-.055" transform="translate(-861 -3309) translate(0 680) translate(0 2672) translate(861 -43) matrix(-1 0 0 1 609 222)"/>
                            <path fill="#1F1F23" d="M55.335 129.491c0 1.334-1.07 2.415-2.387 2.415-1.32 0-2.387-1.08-2.387-2.415 0-1.333 1.067-2.414 2.387-2.414 1.318 0 2.387 1.08 2.387 2.414" transform="translate(-861 -3309) translate(0 680) translate(0 2672) translate(861 -43) matrix(-1 0 0 1 609 222)"/>
                            <path fill="#286B9E" d="M123.07 94.026s-22.012 9.81-24.807 11.057c-2.795 1.244-6.315.94-8.115-1.253-3.355-4.089-9.77-10.715-18.997-15.16-.695-.304-1.009-.428-1.886-.784 2.121-4.587 5.77-7.859 5.77-7.859s10.59 9.796 14.377 11.774c3.79 1.978 19.234 2.371 21.759 1.192 2.525-1.178 7.964-5.157 7.964-5.157l3.935 6.19z" transform="translate(-861 -3309) translate(0 680) translate(0 2672) translate(861 -43) matrix(-1 0 0 1 609 222)"/>
                            <path fill="#4680AC" d="M71.995 86.793c-.465 1.033-1.692 1.524-2.73 1.094 0 0-3.474-1.45-10.705-1.45H46.675c-1.122 0-2.28-.897-2.574-1.992l-1.07-4c-.295-1.093.382-1.99 1.506-1.99h20.105c1.12 0 2.921-.262 3.996-.584 0 0 .975-.282 1.698-.508 1.111-.347 1.838.01 2.419.56.797.757 2.28 2.104 2.28 2.104l-.844 1.878-2.196 4.888z" transform="translate(-861 -3309) translate(0 680) translate(0 2672) translate(861 -43) matrix(-1 0 0 1 609 222)"/>
                        </g>
                        <g>
                            <path fill="#233862" d="M38.358 169.389s.395-3.09 1.31-4.926c.914-1.837 6.736-.668 6.736-.668s1.164 1.002 1.413 5.678l-9.46-.084z" transform="translate(-861 -3309) translate(0 680) translate(0 2672) translate(861 -43) translate(192 215)"/>
                            <g transform="translate(-861 -3309) translate(0 680) translate(0 2672) translate(861 -43) translate(192 215) translate(0 159.496)">
                                <mask id="da2k725cuf" fill="#fff">
                                    <use xlink:href="#z885xhqzpe"/>
                                </mask>
                                <path fill="#233862" d="M18.524 9.851c1.368-.837.59-7.09.59-7.09s-6.374-5.12-7.25-1.2C10.986 5.48 5.807 7.24 2.86 7.72.825 8.05.195 9.182 0 9.85h18.524z" mask="url(#da2k725cuf)"/>
                            </g>
                            <path fill="#12406D" d="M31.726 123.868c-.26 1.435-.424 2.612-.467 3.456-.593 11.603-9.73 38.133-11.363 38.752-2.53.958-6.51-1.079-8.594-1.745-.863-.276-1.446-1.15-1.254-2.037 4.525-20.882 6.188-50.951 6.792-68.753.306-8.967 1.84-15.161 1.84-15.161s22.282-5.969 22.415 1.581c.117 6.682-7.382 32.885-9.369 43.907" transform="translate(-861 -3309) translate(0 680) translate(0 2672) translate(861 -43) translate(192 215)"/>
                            <path fill="#0D3760" d="M31.726 123.868L16.84 93.54c.306-8.967 1.84-15.161 1.84-15.161s22.282-5.969 22.415 1.581c.117 6.682-7.382 32.885-9.369 43.907" transform="translate(-861 -3309) translate(0 680) translate(0 2672) translate(861 -43) translate(192 215)"/>
                            <path fill="#12406D" d="M26.769 79.988l11.78 85.712s5.172 1.252 9.196.25c0 0 3.449-45.585 3.161-56.606-.287-11.02 2.475-29.49-.63-31.526-3.106-2.037-23.507 2.17-23.507 2.17" transform="translate(-861 -3309) translate(0 680) translate(0 2672) translate(861 -43) translate(192 215)"/>
                            <path fill="#92C1DB" d="M52.572 78.56c.056.774-.437 1.479-1.18 1.695-1.643.479-3.538.812-7.192 1.572-3.431.716-8.049 1.35-13.722 1.384-9.023.058-12.44-3.064-12.44-3.064-.388.007.206-1.89.741-10.904.181-3.054.356-6.924.482-11.816.114-4.402.191-9.631.198-15.835.01-7.462 11.516-15.491 11.728-15.491l.003.003c0 1.075 1.687 3.058 4.285 3.229 3.083.202 6.867-1.338 6.867-3.121 0-.018 5.574 8.953 7.554 18.511 1 4.811.596 4.682 2.676 33.837" transform="translate(-861 -3309) translate(0 680) translate(0 2672) translate(861 -43) translate(192 215)"/>
                            <path fill="#92C1DB" d="M31.187 26.101s-10.699-.09-13.274 3.535c-2.575 3.625-8.22 23.128-5.274 29.618 2.946 6.49 8.459-2.684 11.518-6.66 3.06-3.975 7.03-26.493 7.03-26.493" transform="translate(-861 -3309) translate(0 680) translate(0 2672) translate(861 -43) translate(192 215)"/>
                            <path fill="#FFB27D" d="M31.078 24.462l.006 1.11s-.301 3.473 3.958 3.98c4.26.508 7.42-.649 7.305-3.328-.383-2.075-.74-4.205-.768-5.922-.01-.638.033-1.315.152-2.08l-8.253-.165-2.431.398.031 6.007z" transform="translate(-861 -3309) translate(0 680) translate(0 2672) translate(861 -43) translate(192 215)"/>
                            <path fill="#E2915A" d="M31.047 18.455l.031 6.007c.877.409 1.866.659 2.975.659 3.793 0 6.245-2.793 7.526-4.82-.01-.637.033-1.314.152-2.079l-8.253-.165-2.431.398z" transform="translate(-861 -3309) translate(0 680) translate(0 2672) translate(861 -43) translate(192 215)"/>
                            <path fill="#FFB27D" d="M42.363 16.889c-.957 5.174-7.607 5.004-10.481 4.679-.809-.09-1.317-.194-1.317-.194-.912-.245-1.421-1.687-1.658-3.576-.469-3.737.124-9.225.753-10.628.946-2.112 2.73-4.396 9.426-2.748 6.698 1.65 4.506 5.838 3.277 12.467" transform="translate(-861 -3309) translate(0 680) translate(0 2672) translate(861 -43) translate(192 215)"/>
                            <path fill="#5398C3" d="M20.247 40.636s-4.138 9.175-4.018 11.925c0 0 2.049-.07 4.018.518 3.234.969 0-12.443 0-12.443" transform="translate(-861 -3309) translate(0 680) translate(0 2672) translate(861 -43) translate(192 215)"/>
                            <path fill="#233862" d="M27.605 2.245S30.552 2.018 34.029.5c2.822-1.232 6.382.125 7.538.736-.031-.187-.106-.442-.282-.698 0 0 .519.37.595.886.054.04.077.066.064.075 0 0 .588-.107.966.063 0 0-.265-.038-.36.133-.01.018-.024.033-.042.047 4.402 2.135 4.809 9.12 3.392 10.735-1.704 1.945-4.277 6.344-4.277 6.344s-.216-1.055.094-2.766-1.162-1.711-3.021-2.489c-1.86-.778-.31-2.955-1.937-4.277-1.626-1.322-7.591-.545-7.514-1.556-2.214-.81-1.64-5.26-1.64-5.488" transform="translate(-861 -3309) translate(0 680) translate(0 2672) translate(861 -43) translate(192 215)"/>
                            <path fill="#5398C3" d="M43.712 57.822c-1.747 7.043-20.639 10.682-24.933 11.421.181-3.054.356-6.924.483-11.816l24.45.395z" transform="translate(-861 -3309) translate(0 680) translate(0 2672) translate(861 -43) translate(192 215)"/>
                            <path fill="#FFB27D" d="M39.565 60.111c.18 0 4.2-.602 4.92-.964.72-.361 4.012-5.059 1.856-6.264-2.156-1.204-7.945 3.614-7.945 3.614l1.169 3.614z" transform="translate(-861 -3309) translate(0 680) translate(0 2672) translate(861 -43) translate(192 215)"/>
                            <path fill="#92C1DB" d="M15.116 61.507s15.547.847 25.98-1.396c0 0 .263-3.026-3.016-4.37 0 0-16.26-3.46-20.167-2.496-3.906.963-2.797 8.262-2.797 8.262" transform="translate(-861 -3309) translate(0 680) translate(0 2672) translate(861 -43) translate(192 215)"/>
                            <g transform="translate(-861 -3309) translate(0 680) translate(0 2672) translate(861 -43) translate(192 215) translate(37.458 26.15)">
                                <mask id="17ew0fkv4h" fill="#fff">
                                    <use xlink:href="#ko2o9yp07g"/>
                                </mask>
                                <path fill="#92C1DB" d="M13.361 23.108c-3.226 3.905-7.444 7.094-12.094 7.84-.04-.06-1.408-2.146-1.152-5.213.12-1.419.586-3.049 1.693-4.784.341-.534.645-1.158.915-1.85C5.262 12.595 4.883.06 4.883.06s10.783 1.134 14.143 5.952c2.058 2.951-.566 10.92-5.665 17.095" mask="url(#17ew0fkv4h)"/>
                            </g>
                            <path fill="#E2915A" d="M31.882 21.568c-.809-.09-1.318-.194-1.318-.194-.911-.245-1.42-1.687-1.657-3.576 1.71.423 2.494 1.75 2.82 2.315.148.254.178.823.155 1.455" transform="translate(-861 -3309) translate(0 680) translate(0 2672) translate(861 -43) translate(192 215)"/>
                            <path fill="#FFB27D" d="M27.538 24.494s-3.724-6.169-.828-6.437c2.896-.269 4.06 1.699 4.477 2.422.419.722-.109 3.983-.109 3.983l-3.54.032z" transform="translate(-861 -3309) translate(0 680) translate(0 2672) translate(861 -43) translate(192 215)"/>
                            <path fill="#92C1DB" d="M41.73 51.679c-.113.782-.346 1.5-.634 2.141-.91 2.028-2.371 3.28-2.371 3.28l-.001-.002c-9.671-4.382-11.628-19.432-11.956-27.7-.132-3.324 0-5.552 0-5.552 4.363-1.45 5.589 1.07 5.589 1.07s5.151 12.298 7.824 20.335c1.022 3.075 1.68 5.528 1.55 6.428" transform="translate(-861 -3309) translate(0 680) translate(0 2672) translate(861 -43) translate(192 215)"/>
                            <path fill="#5398C3" d="M50.819 49.258c-3.227 3.906-7.444 7.095-12.094 7.842l-.001-.002c-9.672-4.382-11.628-19.432-11.956-27.7 0 0 4.576 16.663 10.805 22.488 1.126 1.054 2.306 1.753 3.523 1.934 0 0 7.855-2.228 9.502-4.327.118-.15.19-.225.22-.235" transform="translate(-861 -3309) translate(0 680) translate(0 2672) translate(861 -43) translate(192 215)"/>
                        </g>
                        <g>
                            <g transform="translate(-861 -3309) translate(0 680) translate(0 2672) translate(861 -43) translate(241 125) translate(10.973 .165)">
                                <mask id="4psebt4k5j" fill="#fff">
                                    <use xlink:href="#mgu4pcvygi"/>
                                </mask>
                                <path fill="#FFF" d="M90.434 20.434c-.056 0-.11.004-.165.004C88.929 9.105 79.295.313 67.6.313c-8.52 0-15.943 4.667-19.868 11.582-2.622-3.555-6.839-5.862-11.595-5.862-7.954 0-14.402 6.448-14.402 14.4 0 .548.033 1.088.093 1.62-1.205-.253-2.453-.389-3.733-.389-9.966 0-18.043 8.077-18.043 18.04 0 9.483 7.317 17.25 16.614 17.98-.04.514-.068 1.032-.068 1.557 0 10.79 8.748 19.537 19.539 19.537 5.85 0 11.097-2.575 14.678-6.649 3.41 6.383 10.137 10.728 17.88 10.728 9.762 0 17.908-6.9 19.832-16.088.63.051 1.264.085 1.907.085 12.82 0 23.212-10.392 23.212-23.21 0-12.819-10.393-23.21-23.212-23.21" mask="url(#4psebt4k5j)"/>
                            </g>
                            <path fill="#FFF" d="M28.711 81.235c0 4.535-3.677 8.212-8.212 8.212-4.536 0-8.213-3.677-8.213-8.212 0-4.534 3.677-8.211 8.213-8.211 4.535 0 8.212 3.677 8.212 8.211" transform="translate(-861 -3309) translate(0 680) translate(0 2672) translate(861 -43) translate(241 125)"/>
                            <g transform="translate(-861 -3309) translate(0 680) translate(0 2672) translate(861 -43) translate(241 125) translate(0 86.987)">
                                <mask id="sbzpfencgl" fill="#fff">
                                    <use xlink:href="#jhe0a4ym8k"/>
                                </mask>
                                <path fill="#FFF" d="M9.836 5.1c0 2.716-2.202 4.918-4.918 4.918S0 7.816 0 5.101C0 2.385 2.202.183 4.918.183s4.918 2.202 4.918 4.918" mask="url(#sbzpfencgl)"/>
                            </g>
                            <path stroke="#3D89BA" stroke-linecap="round" stroke-linejoin="round" stroke-width="5.12" d="M58.697 34.649s-2.295-11.953 11.965-11.906c14.26.049 13.458 18.199 4.382 20.907-2.89 1.164-6.608 3.968-6.638 12.888" transform="translate(-861 -3309) translate(0 680) translate(0 2672) translate(861 -43) translate(241 125)"/>
                            <path fill="#3D89BA" d="M72.665 64.768c-.007 2.031-1.747 3.672-3.887 3.665-2.14-.007-3.869-1.66-3.861-3.69.006-2.032 1.746-3.673 3.886-3.665 2.14.007 3.869 1.66 3.862 3.69" transform="translate(-861 -3309) translate(0 680) translate(0 2672) translate(861 -43) translate(241 125)"/>
                        </g>
                    </g>
                </g>
            </g>
        </g>
    </g>
</svg>
